<mxfile host="app.diagrams.net" modified="2021-04-18T10:25:29.909Z" agent="5.0 (Macintosh; Intel Mac OS X 10_15_7) AppleWebKit/537.36 (KHTML, like Gecko) Chrome/89.0.4389.114 Safari/537.36" etag="uLtMVVL778dzyyDb49t9" version="14.6.1" type="github">
  <diagram id="BOFwDPjg338fdRXlVryg" name="Page-1">
    <mxGraphModel dx="985" dy="1699" grid="1" gridSize="10" guides="1" tooltips="1" connect="1" arrows="1" fold="1" page="1" pageScale="1" pageWidth="827" pageHeight="1169" math="0" shadow="0">
      <root>
        <mxCell id="0" />
        <mxCell id="1" parent="0" />
        <mxCell id="kWca1h-Ah_QSKacg4VAW-32" value="" style="rounded=0;whiteSpace=wrap;html=1;strokeWidth=3;fillColor=none;dashed=1;" vertex="1" parent="1">
          <mxGeometry x="1400" y="1340" width="270" height="440" as="geometry" />
        </mxCell>
        <mxCell id="GyIqp0dEOlZTqXCWweCi-41" value="" style="rounded=0;whiteSpace=wrap;html=1;strokeWidth=3;fillColor=none;dashed=1;" parent="1" vertex="1">
          <mxGeometry x="1370" y="-100" width="270" height="280" as="geometry" />
        </mxCell>
        <mxCell id="GyIqp0dEOlZTqXCWweCi-3" style="edgeStyle=orthogonalEdgeStyle;rounded=0;orthogonalLoop=1;jettySize=auto;html=1;exitX=0.5;exitY=1;exitDx=0;exitDy=0;" parent="1" edge="1">
          <mxGeometry relative="1" as="geometry">
            <mxPoint x="260" y="150" as="sourcePoint" />
            <mxPoint x="260" y="150" as="targetPoint" />
          </mxGeometry>
        </mxCell>
        <mxCell id="GyIqp0dEOlZTqXCWweCi-7" value="&lt;meta charset=&quot;utf-8&quot;&gt;&lt;ol class=&quot;linenums&quot; style=&quot;box-sizing: border-box; outline: none; margin-top: 0px; margin-bottom: 0px; color: rgb(51, 51, 51); font-family: menlo, &amp;quot;bitstream vera sans mono&amp;quot;, &amp;quot;dejavu sans mono&amp;quot;, monaco, consolas, monospace; font-size: 12px; font-style: normal; font-weight: 400; letter-spacing: normal; text-align: left; text-indent: 0px; text-transform: none; word-spacing: 0px;&quot;&gt;&lt;li class=&quot;L0&quot; style=&quot;box-sizing: border-box ; outline: none ; border-left: 1px solid rgb(238 , 238 , 238) ; padding-left: 10px ; color: rgb(221 , 221 , 221) ; background-color: rgb(250 , 250 , 250)&quot;&gt;&lt;code style=&quot;box-sizing: border-box; outline: none; font-family: &amp;quot;source code pro&amp;quot;, monospace; font-size: inherit; padding: 0px; color: inherit; background: transparent; border-radius: 0px; border: none; margin: 0px;&quot;&gt;&lt;span class=&quot;com&quot; style=&quot;box-sizing: border-box ; outline: none ; color: rgb(142 , 144 , 140)&quot;&gt;# 可以被paddle2.0的paddle.save解析的state_dict的形式。&lt;/span&gt;&lt;/code&gt;&lt;/li&gt;&lt;li class=&quot;L1&quot; style=&quot;box-sizing: border-box ; outline: none ; border-left: 1px solid rgb(238 , 238 , 238) ; padding-left: 10px ; color: rgb(221 , 221 , 221)&quot;&gt;&lt;code style=&quot;box-sizing: border-box; outline: none; font-family: &amp;quot;source code pro&amp;quot;, monospace; font-size: inherit; padding: 0px; color: inherit; background: transparent; border-radius: 0px; border: none; margin: 0px;&quot;&gt;&lt;span class=&quot;com&quot; style=&quot;box-sizing: border-box ; outline: none ; color: rgb(142 , 144 , 140)&quot;&gt;# tensor只能是obj1的value，tensor不能出现在嵌套结构中。&lt;/span&gt;&lt;/code&gt;&lt;/li&gt;&lt;li class=&quot;L2&quot; style=&quot;box-sizing: border-box ; outline: none ; border-left: 1px solid rgb(238 , 238 , 238) ; padding-left: 10px ; color: rgb(221 , 221 , 221)&quot;&gt;&lt;code style=&quot;box-sizing: border-box; outline: none; font-family: &amp;quot;source code pro&amp;quot;, monospace; font-size: inherit; padding: 0px; color: inherit; background: transparent; border-radius: 0px; border: none; margin: 0px;&quot;&gt;&lt;span class=&quot;pln&quot; style=&quot;box-sizing: border-box ; outline: none ; color: rgb(77 , 77 , 76)&quot;&gt;obj1&lt;/span&gt;&lt;span class=&quot;pun&quot; style=&quot;box-sizing: border-box ; outline: none ; color: rgb(77 , 77 , 76)&quot;&gt;={&lt;/span&gt;&lt;span class=&quot;str&quot; style=&quot;box-sizing: border-box ; outline: none ; color: rgb(113 , 140 , 0)&quot;&gt;&#39;name1&#39;&lt;/span&gt;&lt;span class=&quot;pun&quot; style=&quot;box-sizing: border-box ; outline: none ; color: rgb(77 , 77 , 76)&quot;&gt;:&lt;/span&gt;&lt;span class=&quot;pln&quot; style=&quot;box-sizing: border-box ; outline: none ; color: rgb(77 , 77 , 76)&quot;&gt; &lt;/span&gt;&lt;span class=&quot;typ&quot; style=&quot;box-sizing: border-box ; outline: none ; color: rgb(66 , 113 , 174)&quot;&gt;Tensor1&lt;/span&gt;&lt;span class=&quot;pun&quot; style=&quot;box-sizing: border-box ; outline: none ; color: rgb(77 , 77 , 76)&quot;&gt;,&lt;/span&gt;&lt;span class=&quot;pln&quot; style=&quot;box-sizing: border-box ; outline: none ; color: rgb(77 , 77 , 76)&quot;&gt; &lt;/span&gt;&lt;/code&gt;&lt;/li&gt;&lt;li class=&quot;L3&quot; style=&quot;box-sizing: border-box ; outline: none ; border-left: 1px solid rgb(238 , 238 , 238) ; padding-left: 10px ; color: rgb(221 , 221 , 221)&quot;&gt;&lt;code style=&quot;box-sizing: border-box; outline: none; font-family: &amp;quot;source code pro&amp;quot;, monospace; font-size: inherit; padding: 0px; color: inherit; background: transparent; border-radius: 0px; border: none; margin: 0px;&quot;&gt;&lt;span class=&quot;pln&quot; style=&quot;box-sizing: border-box ; outline: none ; color: rgb(77 , 77 , 76)&quot;&gt;      &lt;/span&gt;&lt;span class=&quot;str&quot; style=&quot;box-sizing: border-box ; outline: none ; color: rgb(113 , 140 , 0)&quot;&gt;&#39;name2&#39;&lt;/span&gt;&lt;span class=&quot;pun&quot; style=&quot;box-sizing: border-box ; outline: none ; color: rgb(77 , 77 , 76)&quot;&gt;:&lt;/span&gt;&lt;span class=&quot;pln&quot; style=&quot;box-sizing: border-box ; outline: none ; color: rgb(77 , 77 , 76)&quot;&gt; &lt;/span&gt;&lt;span class=&quot;typ&quot; style=&quot;box-sizing: border-box ; outline: none ; color: rgb(66 , 113 , 174)&quot;&gt;Tensor2&lt;/span&gt;&lt;span class=&quot;pun&quot; style=&quot;box-sizing: border-box ; outline: none ; color: rgb(77 , 77 , 76)&quot;&gt;,&lt;/span&gt;&lt;span class=&quot;pln&quot; style=&quot;box-sizing: border-box ; outline: none ; color: rgb(77 , 77 , 76)&quot;&gt; &lt;/span&gt;&lt;/code&gt;&lt;/li&gt;&lt;li class=&quot;L4&quot; style=&quot;box-sizing: border-box ; outline: none ; border-left: 1px solid rgb(238 , 238 , 238) ; padding-left: 10px ; color: rgb(221 , 221 , 221)&quot;&gt;&lt;code style=&quot;box-sizing: border-box; outline: none; font-family: &amp;quot;source code pro&amp;quot;, monospace; font-size: inherit; padding: 0px; color: inherit; background: transparent; border-radius: 0px; border: none; margin: 0px;&quot;&gt;&lt;span class=&quot;pln&quot; style=&quot;box-sizing: border-box ; outline: none ; color: rgb(77 , 77 , 76)&quot;&gt;      &lt;/span&gt;&lt;span class=&quot;str&quot; style=&quot;box-sizing: border-box ; outline: none ; color: rgb(113 , 140 , 0)&quot;&gt;&#39;name3&#39;&lt;/span&gt;&lt;span class=&quot;pun&quot; style=&quot;box-sizing: border-box ; outline: none ; color: rgb(77 , 77 , 76)&quot;&gt;:&lt;/span&gt;&lt;span class=&quot;pln&quot; style=&quot;box-sizing: border-box ; outline: none ; color: rgb(77 , 77 , 76)&quot;&gt; &lt;/span&gt;&lt;span class=&quot;pun&quot; style=&quot;box-sizing: border-box ; outline: none ; color: rgb(77 , 77 , 76)&quot;&gt;[&lt;/span&gt;&lt;span class=&quot;lit&quot; style=&quot;box-sizing: border-box ; outline: none ; color: rgb(245 , 135 , 31)&quot;&gt;1&lt;/span&gt;&lt;span class=&quot;pun&quot; style=&quot;box-sizing: border-box ; outline: none ; color: rgb(77 , 77 , 76)&quot;&gt;,&lt;/span&gt;&lt;span class=&quot;lit&quot; style=&quot;box-sizing: border-box ; outline: none ; color: rgb(245 , 135 , 31)&quot;&gt;2&lt;/span&gt;&lt;span class=&quot;pun&quot; style=&quot;box-sizing: border-box ; outline: none ; color: rgb(77 , 77 , 76)&quot;&gt;]}&lt;/span&gt;&lt;/code&gt;&lt;/li&gt;&lt;/ol&gt;" style="text;whiteSpace=wrap;html=1;fillColor=#f5f5f5;strokeColor=#666666;fontColor=#333333;" parent="1" vertex="1">
          <mxGeometry x="40" y="40" width="480" height="80" as="geometry" />
        </mxCell>
        <mxCell id="GyIqp0dEOlZTqXCWweCi-10" value="&lt;meta charset=&quot;utf-8&quot;&gt;&lt;ol class=&quot;linenums&quot; style=&quot;box-sizing: border-box; outline: none; margin-top: 0px; margin-bottom: 0px; color: rgb(51, 51, 51); font-family: menlo, &amp;quot;bitstream vera sans mono&amp;quot;, &amp;quot;dejavu sans mono&amp;quot;, monaco, consolas, monospace; font-size: 12px; font-style: normal; font-weight: 400; letter-spacing: normal; text-align: left; text-indent: 0px; text-transform: none; word-spacing: 0px;&quot;&gt;&lt;li class=&quot;L6&quot; style=&quot;box-sizing: border-box ; outline: none ; border-left: 1px solid rgb(238 , 238 , 238) ; padding-left: 10px ; color: rgb(221 , 221 , 221)&quot;&gt;&lt;code style=&quot;box-sizing: border-box; outline: none; font-family: &amp;quot;source code pro&amp;quot;, monospace; font-size: inherit; padding: 0px; color: inherit; background: transparent; border-radius: 0px; border: none; margin: 0px;&quot;&gt;&lt;span class=&quot;com&quot; style=&quot;box-sizing: border-box ; outline: none ; color: rgb(142 , 144 , 140)&quot;&gt;# 可以被paddle2.0的paddle.save解析的state_dict的形式。&lt;/span&gt;&lt;/code&gt;&lt;/li&gt;&lt;li class=&quot;L7&quot; style=&quot;box-sizing: border-box ; outline: none ; border-left: 1px solid rgb(238 , 238 , 238) ; padding-left: 10px ; color: rgb(221 , 221 , 221)&quot;&gt;&lt;code style=&quot;box-sizing: border-box; outline: none; font-family: &amp;quot;source code pro&amp;quot;, monospace; font-size: inherit; padding: 0px; color: inherit; background: transparent; border-radius: 0px; border: none; margin: 0px;&quot;&gt;&lt;span class=&quot;com&quot; style=&quot;box-sizing: border-box ; outline: none ; color: rgb(142 , 144 , 140)&quot;&gt;# 但是，存在numpy.ndarray, 需要对用户做出警告：&lt;/span&gt;&lt;/code&gt;&lt;/li&gt;&lt;li class=&quot;L8&quot; style=&quot;box-sizing: border-box ; outline: none ; border-left: 1px solid rgb(238 , 238 , 238) ; padding-left: 10px ; color: rgb(221 , 221 , 221)&quot;&gt;&lt;code style=&quot;box-sizing: border-box; outline: none; font-family: &amp;quot;source code pro&amp;quot;, monospace; font-size: inherit; padding: 0px; color: inherit; background: transparent; border-radius: 0px; border: none; margin: 0px;&quot;&gt;&lt;span class=&quot;com&quot; style=&quot;box-sizing: border-box ; outline: none ; color: rgb(142 , 144 , 140)&quot;&gt;# 如果用户在load时期望返回Tensor，ndarray2也会被转化为Tensor。&lt;/span&gt;&lt;/code&gt;&lt;/li&gt;&lt;li class=&quot;L9&quot; style=&quot;box-sizing: border-box ; outline: none ; border-left: 1px solid rgb(238 , 238 , 238) ; padding-left: 10px ; color: rgb(221 , 221 , 221)&quot;&gt;&lt;code style=&quot;box-sizing: border-box; outline: none; font-family: &amp;quot;source code pro&amp;quot;, monospace; font-size: inherit; padding: 0px; color: inherit; background: transparent; border-radius: 0px; border: none; margin: 0px;&quot;&gt;&lt;span class=&quot;pln&quot; style=&quot;box-sizing: border-box ; outline: none ; color: rgb(77 , 77 , 76)&quot;&gt;obj2&lt;/span&gt;&lt;span class=&quot;pun&quot; style=&quot;box-sizing: border-box ; outline: none ; color: rgb(77 , 77 , 76)&quot;&gt;={&lt;/span&gt;&lt;span class=&quot;str&quot; style=&quot;box-sizing: border-box ; outline: none ; color: rgb(113 , 140 , 0)&quot;&gt;&#39;name1&#39;&lt;/span&gt;&lt;span class=&quot;pun&quot; style=&quot;box-sizing: border-box ; outline: none ; color: rgb(77 , 77 , 76)&quot;&gt;:&lt;/span&gt;&lt;span class=&quot;pln&quot; style=&quot;box-sizing: border-box ; outline: none ; color: rgb(77 , 77 , 76)&quot;&gt; &lt;/span&gt;&lt;span class=&quot;typ&quot; style=&quot;box-sizing: border-box ; outline: none ; color: rgb(66 , 113 , 174)&quot;&gt;Tensor1&lt;/span&gt;&lt;span class=&quot;pun&quot; style=&quot;box-sizing: border-box ; outline: none ; color: rgb(77 , 77 , 76)&quot;&gt;,&lt;/span&gt;&lt;span class=&quot;pln&quot; style=&quot;box-sizing: border-box ; outline: none ; color: rgb(77 , 77 , 76)&quot;&gt; &lt;/span&gt;&lt;/code&gt;&lt;/li&gt;&lt;li class=&quot;L0&quot; style=&quot;box-sizing: border-box ; outline: none ; border-left: 1px solid rgb(238 , 238 , 238) ; padding-left: 10px ; color: rgb(221 , 221 , 221)&quot;&gt;&lt;code style=&quot;box-sizing: border-box; outline: none; font-family: &amp;quot;source code pro&amp;quot;, monospace; font-size: inherit; padding: 0px; color: inherit; background: transparent; border-radius: 0px; border: none; margin: 0px;&quot;&gt;&lt;span class=&quot;pln&quot; style=&quot;box-sizing: border-box ; outline: none ; color: rgb(77 , 77 , 76)&quot;&gt;      &lt;/span&gt;&lt;span class=&quot;str&quot; style=&quot;box-sizing: border-box ; outline: none ; color: rgb(113 , 140 , 0)&quot;&gt;&#39;name2&#39;&lt;/span&gt;&lt;span class=&quot;pun&quot; style=&quot;box-sizing: border-box ; outline: none ; color: rgb(77 , 77 , 76)&quot;&gt;:&lt;/span&gt;&lt;span class=&quot;pln&quot; style=&quot;box-sizing: border-box ; outline: none ; color: rgb(77 , 77 , 76)&quot;&gt; ndarray2&lt;/span&gt;&lt;span class=&quot;pun&quot; style=&quot;box-sizing: border-box ; outline: none ; color: rgb(77 , 77 , 76)&quot;&gt;,&lt;/span&gt;&lt;span class=&quot;pln&quot; style=&quot;box-sizing: border-box ; outline: none ; color: rgb(77 , 77 , 76)&quot;&gt; &lt;/span&gt;&lt;/code&gt;&lt;/li&gt;&lt;li class=&quot;L1&quot; style=&quot;box-sizing: border-box ; outline: none ; border-left: 1px solid rgb(238 , 238 , 238) ; padding-left: 10px ; color: rgb(221 , 221 , 221)&quot;&gt;&lt;code style=&quot;box-sizing: border-box; outline: none; font-family: &amp;quot;source code pro&amp;quot;, monospace; font-size: inherit; padding: 0px; color: inherit; background: transparent; border-radius: 0px; border: none; margin: 0px;&quot;&gt;&lt;span class=&quot;pln&quot; style=&quot;box-sizing: border-box ; outline: none ; color: rgb(77 , 77 , 76)&quot;&gt;      &lt;/span&gt;&lt;span class=&quot;str&quot; style=&quot;box-sizing: border-box ; outline: none ; color: rgb(113 , 140 , 0)&quot;&gt;&#39;name3&#39;&lt;/span&gt;&lt;span class=&quot;pun&quot; style=&quot;box-sizing: border-box ; outline: none ; color: rgb(77 , 77 , 76)&quot;&gt;:&lt;/span&gt;&lt;span class=&quot;pln&quot; style=&quot;box-sizing: border-box ; outline: none ; color: rgb(77 , 77 , 76)&quot;&gt; &lt;/span&gt;&lt;span class=&quot;pun&quot; style=&quot;box-sizing: border-box ; outline: none ; color: rgb(77 , 77 , 76)&quot;&gt;[&lt;/span&gt;&lt;span class=&quot;lit&quot; style=&quot;box-sizing: border-box ; outline: none ; color: rgb(245 , 135 , 31)&quot;&gt;1&lt;/span&gt;&lt;span class=&quot;pun&quot; style=&quot;box-sizing: border-box ; outline: none ; color: rgb(77 , 77 , 76)&quot;&gt;,&lt;/span&gt;&lt;span class=&quot;lit&quot; style=&quot;box-sizing: border-box ; outline: none ; color: rgb(245 , 135 , 31)&quot;&gt;2&lt;/span&gt;&lt;span class=&quot;pun&quot; style=&quot;box-sizing: border-box ; outline: none ; color: rgb(77 , 77 , 76)&quot;&gt;]}&lt;/span&gt;&lt;/code&gt;&lt;/li&gt;&lt;/ol&gt;" style="text;whiteSpace=wrap;html=1;fillColor=#f5f5f5;strokeColor=#666666;fontColor=#333333;" parent="1" vertex="1">
          <mxGeometry x="40" y="200" width="480" height="100" as="geometry" />
        </mxCell>
        <mxCell id="GyIqp0dEOlZTqXCWweCi-11" value="&lt;meta charset=&quot;utf-8&quot;&gt;&lt;ol class=&quot;linenums&quot; style=&quot;box-sizing: border-box; outline: none; margin-top: 0px; margin-bottom: 0px; color: rgb(51, 51, 51); font-family: menlo, &amp;quot;bitstream vera sans mono&amp;quot;, &amp;quot;dejavu sans mono&amp;quot;, monaco, consolas, monospace; font-size: 12px; font-style: normal; font-weight: 400; letter-spacing: normal; text-align: left; text-indent: 0px; text-transform: none; word-spacing: 0px;&quot;&gt;&lt;li class=&quot;L3&quot; style=&quot;box-sizing: border-box ; outline: none ; border-left: 1px solid rgb(238 , 238 , 238) ; padding-left: 10px ; color: rgb(221 , 221 , 221)&quot;&gt;&lt;code style=&quot;box-sizing: border-box; outline: none; font-family: &amp;quot;source code pro&amp;quot;, monospace; font-size: inherit; padding: 0px; color: inherit; background: transparent; border-radius: 0px; border: none; margin: 0px;&quot;&gt;&lt;span class=&quot;com&quot; style=&quot;box-sizing: border-box ; outline: none ; color: rgb(142 , 144 , 140)&quot;&gt;# 不可以被paddle2.0的paddle.save解析的state_dict的形式。&lt;/span&gt;&lt;/code&gt;&lt;/li&gt;&lt;li class=&quot;L4&quot; style=&quot;box-sizing: border-box ; outline: none ; border-left: 1px solid rgb(238 , 238 , 238) ; padding-left: 10px ; color: rgb(221 , 221 , 221)&quot;&gt;&lt;code style=&quot;box-sizing: border-box; outline: none; font-family: &amp;quot;source code pro&amp;quot;, monospace; font-size: inherit; padding: 0px; color: inherit; background: transparent; border-radius: 0px; border: none; margin: 0px;&quot;&gt;&lt;span class=&quot;com&quot; style=&quot;box-sizing: border-box ; outline: none ; color: rgb(142 , 144 , 140)&quot;&gt;# 因为Tensor出现在嵌套结构中（Tensor3在dict的list中）&lt;/span&gt;&lt;/code&gt;&lt;/li&gt;&lt;li class=&quot;L5&quot; style=&quot;box-sizing: border-box ; outline: none ; border-left: 1px solid rgb(238 , 238 , 238) ; padding-left: 10px ; color: rgb(221 , 221 , 221)&quot;&gt;&lt;code style=&quot;box-sizing: border-box; outline: none; font-family: &amp;quot;source code pro&amp;quot;, monospace; font-size: inherit; padding: 0px; color: inherit; background: transparent; border-radius: 0px; border: none; margin: 0px;&quot;&gt;&lt;span class=&quot;pln&quot; style=&quot;box-sizing: border-box ; outline: none ; color: rgb(77 , 77 , 76)&quot;&gt;obj3&lt;/span&gt;&lt;span class=&quot;pun&quot; style=&quot;box-sizing: border-box ; outline: none ; color: rgb(77 , 77 , 76)&quot;&gt;={&lt;/span&gt;&lt;span class=&quot;str&quot; style=&quot;box-sizing: border-box ; outline: none ; color: rgb(113 , 140 , 0)&quot;&gt;&#39;name1&#39;&lt;/span&gt;&lt;span class=&quot;pun&quot; style=&quot;box-sizing: border-box ; outline: none ; color: rgb(77 , 77 , 76)&quot;&gt;:&lt;/span&gt;&lt;span class=&quot;pln&quot; style=&quot;box-sizing: border-box ; outline: none ; color: rgb(77 , 77 , 76)&quot;&gt; &lt;/span&gt;&lt;span class=&quot;typ&quot; style=&quot;box-sizing: border-box ; outline: none ; color: rgb(66 , 113 , 174)&quot;&gt;Tensor1&lt;/span&gt;&lt;span class=&quot;pun&quot; style=&quot;box-sizing: border-box ; outline: none ; color: rgb(77 , 77 , 76)&quot;&gt;,&lt;/span&gt;&lt;span class=&quot;pln&quot; style=&quot;box-sizing: border-box ; outline: none ; color: rgb(77 , 77 , 76)&quot;&gt; &lt;/span&gt;&lt;/code&gt;&lt;/li&gt;&lt;li class=&quot;L6&quot; style=&quot;box-sizing: border-box ; outline: none ; border-left: 1px solid rgb(238 , 238 , 238) ; padding-left: 10px ; color: rgb(221 , 221 , 221)&quot;&gt;&lt;code style=&quot;box-sizing: border-box; outline: none; font-family: &amp;quot;source code pro&amp;quot;, monospace; font-size: inherit; padding: 0px; color: inherit; background: transparent; border-radius: 0px; border: none; margin: 0px;&quot;&gt;&lt;span class=&quot;pln&quot; style=&quot;box-sizing: border-box ; outline: none ; color: rgb(77 , 77 , 76)&quot;&gt;      &lt;/span&gt;&lt;span class=&quot;str&quot; style=&quot;box-sizing: border-box ; outline: none ; color: rgb(113 , 140 , 0)&quot;&gt;&#39;name2&#39;&lt;/span&gt;&lt;span class=&quot;pun&quot; style=&quot;box-sizing: border-box ; outline: none ; color: rgb(77 , 77 , 76)&quot;&gt;:&lt;/span&gt;&lt;span class=&quot;pln&quot; style=&quot;box-sizing: border-box ; outline: none ; color: rgb(77 , 77 , 76)&quot;&gt; ndarray2&lt;/span&gt;&lt;span class=&quot;pun&quot; style=&quot;box-sizing: border-box ; outline: none ; color: rgb(77 , 77 , 76)&quot;&gt;,&lt;/span&gt;&lt;span class=&quot;pln&quot; style=&quot;box-sizing: border-box ; outline: none ; color: rgb(77 , 77 , 76)&quot;&gt; &lt;/span&gt;&lt;/code&gt;&lt;/li&gt;&lt;li class=&quot;L7&quot; style=&quot;box-sizing: border-box ; outline: none ; border-left: 1px solid rgb(238 , 238 , 238) ; padding-left: 10px ; color: rgb(221 , 221 , 221)&quot;&gt;&lt;code style=&quot;box-sizing: border-box; outline: none; font-family: &amp;quot;source code pro&amp;quot;, monospace; font-size: inherit; padding: 0px; color: inherit; background: transparent; border-radius: 0px; border: none; margin: 0px;&quot;&gt;&lt;span class=&quot;pln&quot; style=&quot;box-sizing: border-box ; outline: none ; color: rgb(77 , 77 , 76)&quot;&gt;      &lt;/span&gt;&lt;span class=&quot;str&quot; style=&quot;box-sizing: border-box ; outline: none ; color: rgb(113 , 140 , 0)&quot;&gt;&#39;name3&#39;&lt;/span&gt;&lt;span class=&quot;pun&quot; style=&quot;box-sizing: border-box ; outline: none ; color: rgb(77 , 77 , 76)&quot;&gt;:&lt;/span&gt;&lt;span class=&quot;pln&quot; style=&quot;box-sizing: border-box ; outline: none ; color: rgb(77 , 77 , 76)&quot;&gt; &lt;/span&gt;&lt;span class=&quot;pun&quot; style=&quot;box-sizing: border-box ; outline: none ; color: rgb(77 , 77 , 76)&quot;&gt;[&lt;/span&gt;&lt;span class=&quot;lit&quot; style=&quot;box-sizing: border-box ; outline: none ; color: rgb(245 , 135 , 31)&quot;&gt;1&lt;/span&gt;&lt;span class=&quot;pun&quot; style=&quot;box-sizing: border-box ; outline: none ; color: rgb(77 , 77 , 76)&quot;&gt;,&lt;/span&gt;&lt;span class=&quot;typ&quot; style=&quot;box-sizing: border-box ; outline: none ; color: rgb(66 , 113 , 174)&quot;&gt;Tensor3&lt;/span&gt;&lt;span class=&quot;pun&quot; style=&quot;box-sizing: border-box ; outline: none ; color: rgb(77 , 77 , 76)&quot;&gt;]}&lt;/span&gt;&lt;/code&gt;&lt;/li&gt;&lt;/ol&gt;" style="text;whiteSpace=wrap;html=1;fillColor=#f5f5f5;strokeColor=#666666;fontColor=#333333;" parent="1" vertex="1">
          <mxGeometry x="40" y="380" width="480" height="80" as="geometry" />
        </mxCell>
        <mxCell id="GyIqp0dEOlZTqXCWweCi-12" value="&lt;meta charset=&quot;utf-8&quot;&gt;&lt;ol class=&quot;linenums&quot; style=&quot;box-sizing: border-box; outline: none; margin-top: 0px; margin-bottom: 0px; color: rgb(51, 51, 51); font-family: menlo, &amp;quot;bitstream vera sans mono&amp;quot;, &amp;quot;dejavu sans mono&amp;quot;, monaco, consolas, monospace; font-size: 12px; font-style: normal; font-weight: 400; letter-spacing: normal; text-align: left; text-indent: 0px; text-transform: none; word-spacing: 0px;&quot;&gt;&lt;li class=&quot;L0&quot; style=&quot;box-sizing: border-box ; outline: none ; border-left: 1px solid rgb(238 , 238 , 238) ; padding-left: 10px ; color: rgb(221 , 221 , 221)&quot;&gt;&lt;code style=&quot;box-sizing: border-box; outline: none; font-family: &amp;quot;source code pro&amp;quot;, monospace; font-size: inherit; padding: 0px; color: inherit; background: transparent; border-radius: 0px; border: none; margin: 0px;&quot;&gt;&lt;span class=&quot;pln&quot; style=&quot;box-sizing: border-box ; outline: none ; color: rgb(77 , 77 , 76)&quot;&gt;obj1&lt;/span&gt;&lt;span class=&quot;pun&quot; style=&quot;box-sizing: border-box ; outline: none ; color: rgb(77 , 77 , 76)&quot;&gt;={&lt;/span&gt;&lt;span class=&quot;str&quot; style=&quot;box-sizing: border-box ; outline: none ; color: rgb(113 , 140 , 0)&quot;&gt;&#39;name1&#39;&lt;/span&gt;&lt;span class=&quot;pun&quot; style=&quot;box-sizing: border-box ; outline: none ; color: rgb(77 , 77 , 76)&quot;&gt;:&lt;/span&gt;&lt;span class=&quot;pln&quot; style=&quot;box-sizing: border-box ; outline: none ; color: rgb(77 , 77 , 76)&quot;&gt; ndarray1&lt;/span&gt;&lt;span class=&quot;pun&quot; style=&quot;box-sizing: border-box ; outline: none ; color: rgb(77 , 77 , 76)&quot;&gt;,&lt;/span&gt;&lt;span class=&quot;pln&quot; style=&quot;box-sizing: border-box ; outline: none ; color: rgb(77 , 77 , 76)&quot;&gt; &lt;/span&gt;&lt;/code&gt;&lt;/li&gt;&lt;li class=&quot;L1&quot; style=&quot;box-sizing: border-box ; outline: none ; border-left: 1px solid rgb(238 , 238 , 238) ; padding-left: 10px ; color: rgb(221 , 221 , 221)&quot;&gt;&lt;code style=&quot;box-sizing: border-box; outline: none; font-family: &amp;quot;source code pro&amp;quot;, monospace; font-size: inherit; padding: 0px; color: inherit; background: transparent; border-radius: 0px; border: none; margin: 0px;&quot;&gt;&lt;span class=&quot;pln&quot; style=&quot;box-sizing: border-box ; outline: none ; color: rgb(77 , 77 , 76)&quot;&gt;      &lt;/span&gt;&lt;span class=&quot;str&quot; style=&quot;box-sizing: border-box ; outline: none ; color: rgb(113 , 140 , 0)&quot;&gt;&#39;name2&#39;&lt;/span&gt;&lt;span class=&quot;pun&quot; style=&quot;box-sizing: border-box ; outline: none ; color: rgb(77 , 77 , 76)&quot;&gt;:&lt;/span&gt;&lt;span class=&quot;pln&quot; style=&quot;box-sizing: border-box ; outline: none ; color: rgb(77 , 77 , 76)&quot;&gt; ndarray2&lt;/span&gt;&lt;span class=&quot;pun&quot; style=&quot;box-sizing: border-box ; outline: none ; color: rgb(77 , 77 , 76)&quot;&gt;,&lt;/span&gt;&lt;span class=&quot;pln&quot; style=&quot;box-sizing: border-box ; outline: none ; color: rgb(77 , 77 , 76)&quot;&gt; &lt;/span&gt;&lt;/code&gt;&lt;/li&gt;&lt;li class=&quot;L2&quot; style=&quot;box-sizing: border-box ; outline: none ; border-left: 1px solid rgb(238 , 238 , 238) ; padding-left: 10px ; color: rgb(221 , 221 , 221)&quot;&gt;&lt;code style=&quot;box-sizing: border-box; outline: none; font-family: &amp;quot;source code pro&amp;quot;, monospace; font-size: inherit; padding: 0px; color: inherit; background: transparent; border-radius: 0px; border: none; margin: 0px;&quot;&gt;&lt;span class=&quot;pln&quot; style=&quot;box-sizing: border-box ; outline: none ; color: rgb(77 , 77 , 76)&quot;&gt;      &lt;/span&gt;&lt;span class=&quot;str&quot; style=&quot;box-sizing: border-box ; outline: none ; color: rgb(113 , 140 , 0)&quot;&gt;&#39;name3&#39;&lt;/span&gt;&lt;span class=&quot;pun&quot; style=&quot;box-sizing: border-box ; outline: none ; color: rgb(77 , 77 , 76)&quot;&gt;:&lt;/span&gt;&lt;span class=&quot;pln&quot; style=&quot;box-sizing: border-box ; outline: none ; color: rgb(77 , 77 , 76)&quot;&gt; &lt;/span&gt;&lt;span class=&quot;pun&quot; style=&quot;box-sizing: border-box ; outline: none ; color: rgb(77 , 77 , 76)&quot;&gt;[&lt;/span&gt;&lt;span class=&quot;lit&quot; style=&quot;box-sizing: border-box ; outline: none ; color: rgb(245 , 135 , 31)&quot;&gt;1&lt;/span&gt;&lt;span class=&quot;pun&quot; style=&quot;box-sizing: border-box ; outline: none ; color: rgb(77 , 77 , 76)&quot;&gt;,&lt;/span&gt;&lt;span class=&quot;lit&quot; style=&quot;box-sizing: border-box ; outline: none ; color: rgb(245 , 135 , 31)&quot;&gt;2&lt;/span&gt;&lt;span class=&quot;pun&quot; style=&quot;box-sizing: border-box ; outline: none ; color: rgb(77 , 77 , 76)&quot;&gt;],&lt;/span&gt;&lt;/code&gt;&lt;/li&gt;&lt;li class=&quot;L3&quot; style=&quot;box-sizing: border-box ; outline: none ; border-left: 1px solid rgb(238 , 238 , 238) ; padding-left: 10px ; color: rgb(221 , 221 , 221)&quot;&gt;&lt;code style=&quot;box-sizing: border-box; outline: none; font-family: &amp;quot;source code pro&amp;quot;, monospace; font-size: inherit; padding: 0px; color: inherit; background: transparent; border-radius: 0px; border: none; margin: 0px;&quot;&gt;&lt;span class=&quot;pln&quot; style=&quot;box-sizing: border-box ; outline: none ; color: rgb(77 , 77 , 76)&quot;&gt;      &lt;/span&gt;&lt;span class=&quot;str&quot; style=&quot;box-sizing: border-box ; outline: none ; color: rgb(113 , 140 , 0)&quot;&gt;&#39;StructuredToParameterName@@&#39;&lt;/span&gt;&lt;span class=&quot;pun&quot; style=&quot;box-sizing: border-box ; outline: none ; color: rgb(77 , 77 , 76)&quot;&gt;:{&lt;/span&gt;&lt;span class=&quot;str&quot; style=&quot;box-sizing: border-box ; outline: none ; color: rgb(113 , 140 , 0)&quot;&gt;&#39;name1&#39;&lt;/span&gt;&lt;span class=&quot;pun&quot; style=&quot;box-sizing: border-box ; outline: none ; color: rgb(77 , 77 , 76)&quot;&gt;:&lt;/span&gt;&lt;span class=&quot;typ&quot; style=&quot;box-sizing: border-box ; outline: none ; color: rgb(66 , 113 , 174)&quot;&gt;Tensor1&lt;/span&gt;&lt;span class=&quot;pun&quot; style=&quot;box-sizing: border-box ; outline: none ; color: rgb(77 , 77 , 76)&quot;&gt;.&lt;/span&gt;&lt;span class=&quot;pln&quot; style=&quot;box-sizing: border-box ; outline: none ; color: rgb(77 , 77 , 76)&quot;&gt;name&lt;/span&gt;&lt;span class=&quot;pun&quot; style=&quot;box-sizing: border-box ; outline: none ; color: rgb(77 , 77 , 76)&quot;&gt;,&lt;/span&gt;&lt;span class=&quot;pln&quot; style=&quot;box-sizing: border-box ; outline: none ; color: rgb(77 , 77 , 76)&quot;&gt; &lt;/span&gt;&lt;/code&gt;&lt;/li&gt;&lt;li class=&quot;L4&quot; style=&quot;box-sizing: border-box ; outline: none ; border-left: 1px solid rgb(238 , 238 , 238) ; padding-left: 10px ; color: rgb(221 , 221 , 221) ; background-color: rgb(250 , 250 , 250)&quot;&gt;&lt;code style=&quot;box-sizing: border-box; outline: none; font-family: &amp;quot;source code pro&amp;quot;, monospace; font-size: inherit; padding: 0px; color: inherit; background: transparent; border-radius: 0px; border: none; margin: 0px;&quot;&gt;&lt;span class=&quot;pln&quot; style=&quot;box-sizing: border-box ; outline: none ; color: rgb(77 , 77 , 76)&quot;&gt;                                     &lt;/span&gt;&lt;span class=&quot;str&quot; style=&quot;box-sizing: border-box ; outline: none ; color: rgb(113 , 140 , 0)&quot;&gt;&#39;name2&#39;&lt;/span&gt;&lt;span class=&quot;pun&quot; style=&quot;box-sizing: border-box ; outline: none ; color: rgb(77 , 77 , 76)&quot;&gt;:&lt;/span&gt;&lt;span class=&quot;typ&quot; style=&quot;box-sizing: border-box ; outline: none ; color: rgb(66 , 113 , 174)&quot;&gt;Tensor2&lt;/span&gt;&lt;span class=&quot;pun&quot; style=&quot;box-sizing: border-box ; outline: none ; color: rgb(77 , 77 , 76)&quot;&gt;.&lt;/span&gt;&lt;span class=&quot;pln&quot; style=&quot;box-sizing: border-box ; outline: none ; color: rgb(77 , 77 , 76)&quot;&gt;name &lt;/span&gt;&lt;span class=&quot;pun&quot; style=&quot;box-sizing: border-box ; outline: none ; color: rgb(77 , 77 , 76)&quot;&gt;}}&lt;/span&gt;&lt;/code&gt;&lt;/li&gt;&lt;/ol&gt;" style="text;whiteSpace=wrap;html=1;fillColor=#f5f5f5;strokeColor=#666666;fontColor=#333333;" parent="1" vertex="1">
          <mxGeometry x="720" y="-10" width="440" height="80" as="geometry" />
        </mxCell>
        <mxCell id="GyIqp0dEOlZTqXCWweCi-14" value="&lt;meta charset=&quot;utf-8&quot;&gt;&lt;ol class=&quot;linenums&quot; style=&quot;box-sizing: border-box; outline: none; margin-top: 0px; margin-bottom: 0px; color: rgb(51, 51, 51); font-family: menlo, &amp;quot;bitstream vera sans mono&amp;quot;, &amp;quot;dejavu sans mono&amp;quot;, monaco, consolas, monospace; font-size: 12px; font-style: normal; font-weight: 400; letter-spacing: normal; text-align: left; text-indent: 0px; text-transform: none; word-spacing: 0px;&quot;&gt;&lt;li class=&quot;L1&quot; style=&quot;box-sizing: border-box ; outline: none ; border-left: 1px solid rgb(238 , 238 , 238) ; padding-left: 10px ; color: rgb(221 , 221 , 221)&quot;&gt;&lt;code style=&quot;box-sizing: border-box; outline: none; font-family: &amp;quot;source code pro&amp;quot;, monospace; font-size: inherit; padding: 0px; color: inherit; background: transparent; border-radius: 0px; border: none; margin: 0px;&quot;&gt;&lt;span class=&quot;pln&quot; style=&quot;box-sizing: border-box ; outline: none ; color: rgb(77 , 77 , 76)&quot;&gt;obj3&lt;/span&gt;&lt;span class=&quot;pun&quot; style=&quot;box-sizing: border-box ; outline: none ; color: rgb(77 , 77 , 76)&quot;&gt;={&lt;/span&gt;&lt;span class=&quot;str&quot; style=&quot;box-sizing: border-box ; outline: none ; color: rgb(113 , 140 , 0)&quot;&gt;&#39;name1&#39;&lt;/span&gt;&lt;span class=&quot;pun&quot; style=&quot;box-sizing: border-box ; outline: none ; color: rgb(77 , 77 , 76)&quot;&gt;:&lt;/span&gt;&lt;span class=&quot;pln&quot; style=&quot;box-sizing: border-box ; outline: none ; color: rgb(77 , 77 , 76)&quot;&gt; &lt;/span&gt;&lt;span class=&quot;pun&quot; style=&quot;box-sizing: border-box ; outline: none ; color: rgb(77 , 77 , 76)&quot;&gt;(&lt;/span&gt;&lt;span class=&quot;typ&quot; style=&quot;box-sizing: border-box ; outline: none ; color: rgb(66 , 113 , 174)&quot;&gt;Tensor1&lt;/span&gt;&lt;span class=&quot;pun&quot; style=&quot;box-sizing: border-box ; outline: none ; color: rgb(77 , 77 , 76)&quot;&gt;.&lt;/span&gt;&lt;span class=&quot;pln&quot; style=&quot;box-sizing: border-box ; outline: none ; color: rgb(77 , 77 , 76)&quot;&gt;name&lt;/span&gt;&lt;span class=&quot;pun&quot; style=&quot;box-sizing: border-box ; outline: none ; color: rgb(77 , 77 , 76)&quot;&gt;,&lt;/span&gt;&lt;span class=&quot;pln&quot; style=&quot;box-sizing: border-box ; outline: none ; color: rgb(77 , 77 , 76)&quot;&gt; ndarray1&lt;/span&gt;&lt;span class=&quot;pun&quot; style=&quot;box-sizing: border-box ; outline: none ; color: rgb(77 , 77 , 76)&quot;&gt;),&lt;/span&gt;&lt;span class=&quot;pln&quot; style=&quot;box-sizing: border-box ; outline: none ; color: rgb(77 , 77 , 76)&quot;&gt; &lt;/span&gt;&lt;/code&gt;&lt;/li&gt;&lt;li class=&quot;L2&quot; style=&quot;box-sizing: border-box ; outline: none ; border-left: 1px solid rgb(238 , 238 , 238) ; padding-left: 10px ; color: rgb(221 , 221 , 221)&quot;&gt;&lt;code style=&quot;box-sizing: border-box; outline: none; font-family: &amp;quot;source code pro&amp;quot;, monospace; font-size: inherit; padding: 0px; color: inherit; background: transparent; border-radius: 0px; border: none; margin: 0px;&quot;&gt;&lt;span class=&quot;pln&quot; style=&quot;box-sizing: border-box ; outline: none ; color: rgb(77 , 77 , 76)&quot;&gt;      &lt;/span&gt;&lt;span class=&quot;str&quot; style=&quot;box-sizing: border-box ; outline: none ; color: rgb(113 , 140 , 0)&quot;&gt;&#39;name2&#39;&lt;/span&gt;&lt;span class=&quot;pun&quot; style=&quot;box-sizing: border-box ; outline: none ; color: rgb(77 , 77 , 76)&quot;&gt;:&lt;/span&gt;&lt;span class=&quot;pln&quot; style=&quot;box-sizing: border-box ; outline: none ; color: rgb(77 , 77 , 76)&quot;&gt; ndarray2&lt;/span&gt;&lt;span class=&quot;pun&quot; style=&quot;box-sizing: border-box ; outline: none ; color: rgb(77 , 77 , 76)&quot;&gt;,&lt;/span&gt;&lt;span class=&quot;pln&quot; style=&quot;box-sizing: border-box ; outline: none ; color: rgb(77 , 77 , 76)&quot;&gt; &lt;/span&gt;&lt;/code&gt;&lt;/li&gt;&lt;li class=&quot;L3&quot; style=&quot;box-sizing: border-box ; outline: none ; border-left: 1px solid rgb(238 , 238 , 238) ; padding-left: 10px ; color: rgb(221 , 221 , 221) ; background-color: rgb(250 , 250 , 250)&quot;&gt;&lt;code style=&quot;box-sizing: border-box; outline: none; font-family: &amp;quot;source code pro&amp;quot;, monospace; font-size: inherit; padding: 0px; color: inherit; background: transparent; border-radius: 0px; border: none; margin: 0px;&quot;&gt;&lt;span class=&quot;pln&quot; style=&quot;box-sizing: border-box ; outline: none ; color: rgb(77 , 77 , 76)&quot;&gt;      &lt;/span&gt;&lt;span class=&quot;str&quot; style=&quot;box-sizing: border-box ; outline: none ; color: rgb(113 , 140 , 0)&quot;&gt;&#39;name3&#39;&lt;/span&gt;&lt;span class=&quot;pun&quot; style=&quot;box-sizing: border-box ; outline: none ; color: rgb(77 , 77 , 76)&quot;&gt;:&lt;/span&gt;&lt;span class=&quot;pln&quot; style=&quot;box-sizing: border-box ; outline: none ; color: rgb(77 , 77 , 76)&quot;&gt; &lt;/span&gt;&lt;span class=&quot;pun&quot; style=&quot;box-sizing: border-box ; outline: none ; color: rgb(77 , 77 , 76)&quot;&gt;[&lt;/span&gt;&lt;span class=&quot;lit&quot; style=&quot;box-sizing: border-box ; outline: none ; color: rgb(245 , 135 , 31)&quot;&gt;1&lt;/span&gt;&lt;span class=&quot;pun&quot; style=&quot;box-sizing: border-box ; outline: none ; color: rgb(77 , 77 , 76)&quot;&gt;,(&lt;/span&gt;&lt;span class=&quot;typ&quot; style=&quot;box-sizing: border-box ; outline: none ; color: rgb(66 , 113 , 174)&quot;&gt;Tensor3&lt;/span&gt;&lt;span class=&quot;pun&quot; style=&quot;box-sizing: border-box ; outline: none ; color: rgb(77 , 77 , 76)&quot;&gt;.&lt;/span&gt;&lt;span class=&quot;pln&quot; style=&quot;box-sizing: border-box ; outline: none ; color: rgb(77 , 77 , 76)&quot;&gt;name&lt;/span&gt;&lt;span class=&quot;pun&quot; style=&quot;box-sizing: border-box ; outline: none ; color: rgb(77 , 77 , 76)&quot;&gt;,&lt;/span&gt;&lt;span class=&quot;pln&quot; style=&quot;box-sizing: border-box ; outline: none ; color: rgb(77 , 77 , 76)&quot;&gt; ndarray3&lt;/span&gt;&lt;span class=&quot;pun&quot; style=&quot;box-sizing: border-box ; outline: none ; color: rgb(77 , 77 , 76)&quot;&gt;)]}&lt;/span&gt;&lt;/code&gt;&lt;/li&gt;&lt;/ol&gt;" style="text;whiteSpace=wrap;html=1;fillColor=#f5f5f5;strokeColor=#666666;fontColor=#333333;" parent="1" vertex="1">
          <mxGeometry x="720" y="420" width="440" height="60" as="geometry" />
        </mxCell>
        <mxCell id="GyIqp0dEOlZTqXCWweCi-15" value="&lt;meta charset=&quot;utf-8&quot;&gt;&lt;ol class=&quot;linenums&quot; style=&quot;box-sizing: border-box; outline: none; margin-top: 0px; margin-bottom: 0px; color: rgb(51, 51, 51); font-family: menlo, &amp;quot;bitstream vera sans mono&amp;quot;, &amp;quot;dejavu sans mono&amp;quot;, monaco, consolas, monospace; font-size: 12px; font-style: normal; font-weight: 400; letter-spacing: normal; text-align: left; text-indent: 0px; text-transform: none; word-spacing: 0px;&quot;&gt;&lt;li class=&quot;L6&quot; style=&quot;box-sizing: border-box ; outline: none ; border-left: 1px solid rgb(238 , 238 , 238) ; padding-left: 10px ; color: rgb(221 , 221 , 221) ; background-color: rgb(250 , 250 , 250)&quot;&gt;&lt;code style=&quot;box-sizing: border-box; outline: none; font-family: &amp;quot;source code pro&amp;quot;, monospace; font-size: inherit; padding: 0px; color: inherit; background: transparent; border-radius: 0px; border: none; margin: 0px;&quot;&gt;&lt;span class=&quot;pln&quot; style=&quot;box-sizing: border-box ; outline: none ; color: rgb(77 , 77 , 76)&quot;&gt;obj2&lt;/span&gt;&lt;span class=&quot;pun&quot; style=&quot;box-sizing: border-box ; outline: none ; color: rgb(77 , 77 , 76)&quot;&gt;={&lt;/span&gt;&lt;span class=&quot;str&quot; style=&quot;box-sizing: border-box ; outline: none ; color: rgb(113 , 140 , 0)&quot;&gt;&#39;name1&#39;&lt;/span&gt;&lt;span class=&quot;pun&quot; style=&quot;box-sizing: border-box ; outline: none ; color: rgb(77 , 77 , 76)&quot;&gt;:&lt;/span&gt;&lt;span class=&quot;pln&quot; style=&quot;box-sizing: border-box ; outline: none ; color: rgb(77 , 77 , 76)&quot;&gt; ndarray1&lt;/span&gt;&lt;span class=&quot;pun&quot; style=&quot;box-sizing: border-box ; outline: none ; color: rgb(77 , 77 , 76)&quot;&gt;,&lt;/span&gt;&lt;span class=&quot;pln&quot; style=&quot;box-sizing: border-box ; outline: none ; color: rgb(77 , 77 , 76)&quot;&gt; &lt;/span&gt;&lt;/code&gt;&lt;/li&gt;&lt;li class=&quot;L7&quot; style=&quot;box-sizing: border-box ; outline: none ; border-left: 1px solid rgb(238 , 238 , 238) ; padding-left: 10px ; color: rgb(221 , 221 , 221)&quot;&gt;&lt;code style=&quot;box-sizing: border-box; outline: none; font-family: &amp;quot;source code pro&amp;quot;, monospace; font-size: inherit; padding: 0px; color: inherit; background: transparent; border-radius: 0px; border: none; margin: 0px;&quot;&gt;&lt;span class=&quot;pln&quot; style=&quot;box-sizing: border-box ; outline: none ; color: rgb(77 , 77 , 76)&quot;&gt;      &lt;/span&gt;&lt;span class=&quot;str&quot; style=&quot;box-sizing: border-box ; outline: none ; color: rgb(113 , 140 , 0)&quot;&gt;&#39;name2&#39;&lt;/span&gt;&lt;span class=&quot;pun&quot; style=&quot;box-sizing: border-box ; outline: none ; color: rgb(77 , 77 , 76)&quot;&gt;:&lt;/span&gt;&lt;span class=&quot;pln&quot; style=&quot;box-sizing: border-box ; outline: none ; color: rgb(77 , 77 , 76)&quot;&gt; ndarray2&lt;/span&gt;&lt;span class=&quot;pun&quot; style=&quot;box-sizing: border-box ; outline: none ; color: rgb(77 , 77 , 76)&quot;&gt;,&lt;/span&gt;&lt;span class=&quot;pln&quot; style=&quot;box-sizing: border-box ; outline: none ; color: rgb(77 , 77 , 76)&quot;&gt; &lt;/span&gt;&lt;/code&gt;&lt;/li&gt;&lt;li class=&quot;L8&quot; style=&quot;box-sizing: border-box ; outline: none ; border-left: 1px solid rgb(238 , 238 , 238) ; padding-left: 10px ; color: rgb(221 , 221 , 221)&quot;&gt;&lt;code style=&quot;box-sizing: border-box; outline: none; font-family: &amp;quot;source code pro&amp;quot;, monospace; font-size: inherit; padding: 0px; color: inherit; background: transparent; border-radius: 0px; border: none; margin: 0px;&quot;&gt;&lt;span class=&quot;pln&quot; style=&quot;box-sizing: border-box ; outline: none ; color: rgb(77 , 77 , 76)&quot;&gt;      &lt;/span&gt;&lt;span class=&quot;str&quot; style=&quot;box-sizing: border-box ; outline: none ; color: rgb(113 , 140 , 0)&quot;&gt;&#39;name3&#39;&lt;/span&gt;&lt;span class=&quot;pun&quot; style=&quot;box-sizing: border-box ; outline: none ; color: rgb(77 , 77 , 76)&quot;&gt;:&lt;/span&gt;&lt;span class=&quot;pln&quot; style=&quot;box-sizing: border-box ; outline: none ; color: rgb(77 , 77 , 76)&quot;&gt; &lt;/span&gt;&lt;span class=&quot;pun&quot; style=&quot;box-sizing: border-box ; outline: none ; color: rgb(77 , 77 , 76)&quot;&gt;[&lt;/span&gt;&lt;span class=&quot;lit&quot; style=&quot;box-sizing: border-box ; outline: none ; color: rgb(245 , 135 , 31)&quot;&gt;1&lt;/span&gt;&lt;span class=&quot;pun&quot; style=&quot;box-sizing: border-box ; outline: none ; color: rgb(77 , 77 , 76)&quot;&gt;,&lt;/span&gt;&lt;span class=&quot;lit&quot; style=&quot;box-sizing: border-box ; outline: none ; color: rgb(245 , 135 , 31)&quot;&gt;2&lt;/span&gt;&lt;span class=&quot;pun&quot; style=&quot;box-sizing: border-box ; outline: none ; color: rgb(77 , 77 , 76)&quot;&gt;],&lt;/span&gt;&lt;span class=&quot;pln&quot; style=&quot;box-sizing: border-box ; outline: none ; color: rgb(77 , 77 , 76)&quot;&gt; &lt;/span&gt;&lt;/code&gt;&lt;/li&gt;&lt;li class=&quot;L9&quot; style=&quot;box-sizing: border-box ; outline: none ; border-left: 1px solid rgb(238 , 238 , 238) ; padding-left: 10px ; color: rgb(221 , 221 , 221)&quot;&gt;&lt;code style=&quot;box-sizing: border-box; outline: none; font-family: &amp;quot;source code pro&amp;quot;, monospace; font-size: inherit; padding: 0px; color: inherit; background: transparent; border-radius: 0px; border: none; margin: 0px;&quot;&gt;&lt;span class=&quot;pln&quot; style=&quot;box-sizing: border-box ; outline: none ; color: rgb(77 , 77 , 76)&quot;&gt;      &lt;/span&gt;&lt;span class=&quot;str&quot; style=&quot;box-sizing: border-box ; outline: none ; color: rgb(113 , 140 , 0)&quot;&gt;&#39;StructuredToParameterName@@&#39;&lt;/span&gt;&lt;span class=&quot;pun&quot; style=&quot;box-sizing: border-box ; outline: none ; color: rgb(77 , 77 , 76)&quot;&gt;:{&lt;/span&gt;&lt;span class=&quot;str&quot; style=&quot;box-sizing: border-box ; outline: none ; color: rgb(113 , 140 , 0)&quot;&gt;&#39;name1&#39;&lt;/span&gt;&lt;span class=&quot;pun&quot; style=&quot;box-sizing: border-box ; outline: none ; color: rgb(77 , 77 , 76)&quot;&gt;:&lt;/span&gt;&lt;span class=&quot;typ&quot; style=&quot;box-sizing: border-box ; outline: none ; color: rgb(66 , 113 , 174)&quot;&gt;Tensor1&lt;/span&gt;&lt;span class=&quot;pun&quot; style=&quot;box-sizing: border-box ; outline: none ; color: rgb(77 , 77 , 76)&quot;&gt;.&lt;/span&gt;&lt;span class=&quot;pln&quot; style=&quot;box-sizing: border-box ; outline: none ; color: rgb(77 , 77 , 76)&quot;&gt;name&lt;/span&gt;&lt;span class=&quot;pun&quot; style=&quot;box-sizing: border-box ; outline: none ; color: rgb(77 , 77 , 76)&quot;&gt;}}&lt;/span&gt;&lt;/code&gt;&lt;/li&gt;&lt;/ol&gt;" style="text;whiteSpace=wrap;html=1;fillColor=#f5f5f5;strokeColor=#666666;fontColor=#333333;" parent="1" vertex="1">
          <mxGeometry x="720" y="245" width="440" height="70" as="geometry" />
        </mxCell>
        <mxCell id="GyIqp0dEOlZTqXCWweCi-16" value="&lt;meta charset=&quot;utf-8&quot;&gt;&lt;ol class=&quot;linenums&quot; style=&quot;box-sizing: border-box; outline: none; margin-top: 0px; margin-bottom: 0px; color: rgb(51, 51, 51); font-family: menlo, &amp;quot;bitstream vera sans mono&amp;quot;, &amp;quot;dejavu sans mono&amp;quot;, monaco, consolas, monospace; font-size: 12px; font-style: normal; font-weight: 400; letter-spacing: normal; text-align: left; text-indent: 0px; text-transform: none; word-spacing: 0px;&quot;&gt;&lt;li class=&quot;L0&quot; style=&quot;box-sizing: border-box ; outline: none ; border-left: 1px solid rgb(238 , 238 , 238) ; padding-left: 10px ; color: rgb(221 , 221 , 221)&quot;&gt;&lt;code style=&quot;box-sizing: border-box; outline: none; font-family: &amp;quot;source code pro&amp;quot;, monospace; font-size: inherit; padding: 0px; color: inherit; background: transparent; border-radius: 0px; border: none; margin: 0px;&quot;&gt;&lt;span class=&quot;pln&quot; style=&quot;box-sizing: border-box ; outline: none ; color: rgb(77 , 77 , 76)&quot;&gt;obj1&lt;/span&gt;&lt;span class=&quot;pun&quot; style=&quot;box-sizing: border-box ; outline: none ; color: rgb(77 , 77 , 76)&quot;&gt;={&lt;/span&gt;&lt;span class=&quot;str&quot; style=&quot;box-sizing: border-box ; outline: none ; color: rgb(113 , 140 , 0)&quot;&gt;&#39;name1&#39;&lt;/span&gt;&lt;span class=&quot;pun&quot; style=&quot;box-sizing: border-box ; outline: none ; color: rgb(77 , 77 , 76)&quot;&gt;:&lt;/span&gt;&lt;span class=&quot;pln&quot; style=&quot;box-sizing: border-box ; outline: none ; color: rgb(77 , 77 , 76)&quot;&gt; ndarray1&lt;/span&gt;&lt;span class=&quot;pun&quot; style=&quot;box-sizing: border-box ; outline: none ; color: rgb(77 , 77 , 76)&quot;&gt;,&lt;/span&gt;&lt;span class=&quot;pln&quot; style=&quot;box-sizing: border-box ; outline: none ; color: rgb(77 , 77 , 76)&quot;&gt; &lt;/span&gt;&lt;/code&gt;&lt;/li&gt;&lt;li class=&quot;L1&quot; style=&quot;box-sizing: border-box ; outline: none ; border-left: 1px solid rgb(238 , 238 , 238) ; padding-left: 10px ; color: rgb(221 , 221 , 221)&quot;&gt;&lt;code style=&quot;box-sizing: border-box; outline: none; font-family: &amp;quot;source code pro&amp;quot;, monospace; font-size: inherit; padding: 0px; color: inherit; background: transparent; border-radius: 0px; border: none; margin: 0px;&quot;&gt;&lt;span class=&quot;pln&quot; style=&quot;box-sizing: border-box ; outline: none ; color: rgb(77 , 77 , 76)&quot;&gt;      &lt;/span&gt;&lt;span class=&quot;str&quot; style=&quot;box-sizing: border-box ; outline: none ; color: rgb(113 , 140 , 0)&quot;&gt;&#39;name2&#39;&lt;/span&gt;&lt;span class=&quot;pun&quot; style=&quot;box-sizing: border-box ; outline: none ; color: rgb(77 , 77 , 76)&quot;&gt;:&lt;/span&gt;&lt;span class=&quot;pln&quot; style=&quot;box-sizing: border-box ; outline: none ; color: rgb(77 , 77 , 76)&quot;&gt; ndarray2&lt;/span&gt;&lt;span class=&quot;pun&quot; style=&quot;box-sizing: border-box ; outline: none ; color: rgb(77 , 77 , 76)&quot;&gt;,&lt;/span&gt;&lt;span class=&quot;pln&quot; style=&quot;box-sizing: border-box ; outline: none ; color: rgb(77 , 77 , 76)&quot;&gt; &lt;/span&gt;&lt;/code&gt;&lt;/li&gt;&lt;li class=&quot;L2&quot; style=&quot;box-sizing: border-box ; outline: none ; border-left: 1px solid rgb(238 , 238 , 238) ; padding-left: 10px ; color: rgb(221 , 221 , 221)&quot;&gt;&lt;code style=&quot;box-sizing: border-box; outline: none; font-family: &amp;quot;source code pro&amp;quot;, monospace; font-size: inherit; padding: 0px; color: inherit; background: transparent; border-radius: 0px; border: none; margin: 0px;&quot;&gt;&lt;span class=&quot;pln&quot; style=&quot;box-sizing: border-box ; outline: none ; color: rgb(77 , 77 , 76)&quot;&gt;      &lt;/span&gt;&lt;span class=&quot;str&quot; style=&quot;box-sizing: border-box ; outline: none ; color: rgb(113 , 140 , 0)&quot;&gt;&#39;name3&#39;&lt;/span&gt;&lt;span class=&quot;pun&quot; style=&quot;box-sizing: border-box ; outline: none ; color: rgb(77 , 77 , 76)&quot;&gt;:&lt;/span&gt;&lt;span class=&quot;pln&quot; style=&quot;box-sizing: border-box ; outline: none ; color: rgb(77 , 77 , 76)&quot;&gt; &lt;/span&gt;&lt;span class=&quot;pun&quot; style=&quot;box-sizing: border-box ; outline: none ; color: rgb(77 , 77 , 76)&quot;&gt;[&lt;/span&gt;&lt;span class=&quot;lit&quot; style=&quot;box-sizing: border-box ; outline: none ; color: rgb(245 , 135 , 31)&quot;&gt;1&lt;/span&gt;&lt;span class=&quot;pun&quot; style=&quot;box-sizing: border-box ; outline: none ; color: rgb(77 , 77 , 76)&quot;&gt;,&lt;/span&gt;&lt;span class=&quot;lit&quot; style=&quot;box-sizing: border-box ; outline: none ; color: rgb(245 , 135 , 31)&quot;&gt;2&lt;/span&gt;&lt;span class=&quot;pun&quot; style=&quot;box-sizing: border-box ; outline: none ; color: rgb(77 , 77 , 76)&quot;&gt;]&lt;/span&gt;&lt;span class=&quot;pln&quot; style=&quot;box-sizing: border-box ; outline: none ; color: rgb(77 , 77 , 76)&quot;&gt; &lt;/span&gt;&lt;span class=&quot;pun&quot; style=&quot;box-sizing: border-box ; outline: none ; color: rgb(77 , 77 , 76)&quot;&gt;}&lt;/span&gt;&lt;/code&gt;&lt;/li&gt;&lt;/ol&gt;" style="text;whiteSpace=wrap;html=1;fillColor=#f5f5f5;strokeColor=#666666;fontColor=#333333;" parent="1" vertex="1">
          <mxGeometry x="720" y="130" width="440" height="60" as="geometry" />
        </mxCell>
        <mxCell id="GyIqp0dEOlZTqXCWweCi-17" value="&lt;meta charset=&quot;utf-8&quot;&gt;&lt;ol class=&quot;linenums&quot; style=&quot;box-sizing: border-box; outline: none; margin-top: 0px; margin-bottom: 0px; color: rgb(51, 51, 51); font-family: menlo, &amp;quot;bitstream vera sans mono&amp;quot;, &amp;quot;dejavu sans mono&amp;quot;, monaco, consolas, monospace; font-size: 12px; font-style: normal; font-weight: 400; letter-spacing: normal; text-align: left; text-indent: 0px; text-transform: none; word-spacing: 0px;&quot;&gt;&lt;li class=&quot;L0&quot; style=&quot;box-sizing: border-box ; outline: none ; border-left: 1px solid rgb(238 , 238 , 238) ; padding-left: 10px ; color: rgb(221 , 221 , 221)&quot;&gt;&lt;code style=&quot;box-sizing: border-box; outline: none; font-family: &amp;quot;source code pro&amp;quot;, monospace; font-size: inherit; padding: 0px; color: inherit; background: transparent; border-radius: 0px; border: none; margin: 0px;&quot;&gt;&lt;span class=&quot;pln&quot; style=&quot;box-sizing: border-box ; outline: none ; color: rgb(77 , 77 , 76)&quot;&gt;obj1&lt;/span&gt;&lt;span class=&quot;pun&quot; style=&quot;box-sizing: border-box ; outline: none ; color: rgb(77 , 77 , 76)&quot;&gt;={&lt;/span&gt;&lt;span class=&quot;str&quot; style=&quot;box-sizing: border-box ; outline: none ; color: rgb(113 , 140 , 0)&quot;&gt;&#39;name1&#39;&lt;/span&gt;&lt;span class=&quot;pun&quot; style=&quot;box-sizing: border-box ; outline: none ; color: rgb(77 , 77 , 76)&quot;&gt;:&lt;/span&gt;&lt;span class=&quot;pln&quot; style=&quot;box-sizing: border-box ; outline: none ; color: rgb(77 , 77 , 76)&quot;&gt; ndarray1&lt;/span&gt;&lt;span class=&quot;pun&quot; style=&quot;box-sizing: border-box ; outline: none ; color: rgb(77 , 77 , 76)&quot;&gt;,&lt;/span&gt;&lt;span class=&quot;pln&quot; style=&quot;box-sizing: border-box ; outline: none ; color: rgb(77 , 77 , 76)&quot;&gt; &lt;/span&gt;&lt;/code&gt;&lt;/li&gt;&lt;li class=&quot;L1&quot; style=&quot;box-sizing: border-box ; outline: none ; border-left: 1px solid rgb(238 , 238 , 238) ; padding-left: 10px ; color: rgb(221 , 221 , 221)&quot;&gt;&lt;code style=&quot;box-sizing: border-box; outline: none; font-family: &amp;quot;source code pro&amp;quot;, monospace; font-size: inherit; padding: 0px; color: inherit; background: transparent; border-radius: 0px; border: none; margin: 0px;&quot;&gt;&lt;span class=&quot;pln&quot; style=&quot;box-sizing: border-box ; outline: none ; color: rgb(77 , 77 , 76)&quot;&gt;      &lt;/span&gt;&lt;span class=&quot;str&quot; style=&quot;box-sizing: border-box ; outline: none ; color: rgb(113 , 140 , 0)&quot;&gt;&#39;name2&#39;&lt;/span&gt;&lt;span class=&quot;pun&quot; style=&quot;box-sizing: border-box ; outline: none ; color: rgb(77 , 77 , 76)&quot;&gt;:&lt;/span&gt;&lt;span class=&quot;pln&quot; style=&quot;box-sizing: border-box ; outline: none ; color: rgb(77 , 77 , 76)&quot;&gt; ndarray2&lt;/span&gt;&lt;span class=&quot;pun&quot; style=&quot;box-sizing: border-box ; outline: none ; color: rgb(77 , 77 , 76)&quot;&gt;,&lt;/span&gt;&lt;span class=&quot;pln&quot; style=&quot;box-sizing: border-box ; outline: none ; color: rgb(77 , 77 , 76)&quot;&gt; &lt;/span&gt;&lt;/code&gt;&lt;/li&gt;&lt;li class=&quot;L2&quot; style=&quot;box-sizing: border-box ; outline: none ; border-left: 1px solid rgb(238 , 238 , 238) ; padding-left: 10px ; color: rgb(221 , 221 , 221)&quot;&gt;&lt;code style=&quot;box-sizing: border-box; outline: none; font-family: &amp;quot;source code pro&amp;quot;, monospace; font-size: inherit; padding: 0px; color: inherit; background: transparent; border-radius: 0px; border: none; margin: 0px;&quot;&gt;&lt;span class=&quot;pln&quot; style=&quot;box-sizing: border-box ; outline: none ; color: rgb(77 , 77 , 76)&quot;&gt;      &lt;/span&gt;&lt;span class=&quot;str&quot; style=&quot;box-sizing: border-box ; outline: none ; color: rgb(113 , 140 , 0)&quot;&gt;&#39;name3&#39;&lt;/span&gt;&lt;span class=&quot;pun&quot; style=&quot;box-sizing: border-box ; outline: none ; color: rgb(77 , 77 , 76)&quot;&gt;:&lt;/span&gt;&lt;span class=&quot;pln&quot; style=&quot;box-sizing: border-box ; outline: none ; color: rgb(77 , 77 , 76)&quot;&gt; &lt;/span&gt;&lt;span class=&quot;pun&quot; style=&quot;box-sizing: border-box ; outline: none ; color: rgb(77 , 77 , 76)&quot;&gt;[&lt;/span&gt;&lt;span class=&quot;lit&quot; style=&quot;box-sizing: border-box ; outline: none ; color: rgb(245 , 135 , 31)&quot;&gt;1&lt;/span&gt;&lt;span class=&quot;pun&quot; style=&quot;box-sizing: border-box ; outline: none ; color: rgb(77 , 77 , 76)&quot;&gt;,&lt;/span&gt;&lt;span class=&quot;lit&quot; style=&quot;box-sizing: border-box ; outline: none ; color: rgb(245 , 135 , 31)&quot;&gt;2&lt;/span&gt;&lt;span class=&quot;pun&quot; style=&quot;box-sizing: border-box ; outline: none ; color: rgb(77 , 77 , 76)&quot;&gt;],}&lt;/span&gt;&lt;/code&gt;&lt;/li&gt;&lt;/ol&gt;" style="text;whiteSpace=wrap;html=1;fillColor=#f5f5f5;strokeColor=#666666;fontColor=#333333;" parent="1" vertex="1">
          <mxGeometry x="1390" y="-40" width="250" height="60" as="geometry" />
        </mxCell>
        <mxCell id="GyIqp0dEOlZTqXCWweCi-18" value="&lt;meta charset=&quot;utf-8&quot;&gt;&lt;ol class=&quot;linenums&quot; style=&quot;box-sizing: border-box; outline: none; margin-top: 0px; margin-bottom: 0px; color: rgb(51, 51, 51); font-family: menlo, &amp;quot;bitstream vera sans mono&amp;quot;, &amp;quot;dejavu sans mono&amp;quot;, monaco, consolas, monospace; font-size: 12px; font-style: normal; font-weight: 400; letter-spacing: normal; text-align: left; text-indent: 0px; text-transform: none; word-spacing: 0px;&quot;&gt;&lt;li class=&quot;L8&quot; style=&quot;box-sizing: border-box ; outline: none ; border-left: 1px solid rgb(238 , 238 , 238) ; padding-left: 10px ; color: rgb(221 , 221 , 221)&quot;&gt;&lt;code style=&quot;box-sizing: border-box; outline: none; font-family: &amp;quot;source code pro&amp;quot;, monospace; font-size: inherit; padding: 0px; color: inherit; background: transparent; border-radius: 0px; border: none; margin: 0px;&quot;&gt;&lt;span class=&quot;pln&quot; style=&quot;box-sizing: border-box ; outline: none ; color: rgb(77 , 77 , 76)&quot;&gt;obj3&lt;/span&gt;&lt;span class=&quot;pun&quot; style=&quot;box-sizing: border-box ; outline: none ; color: rgb(77 , 77 , 76)&quot;&gt;={&lt;/span&gt;&lt;span class=&quot;str&quot; style=&quot;box-sizing: border-box ; outline: none ; color: rgb(113 , 140 , 0)&quot;&gt;&#39;name1&#39;&lt;/span&gt;&lt;span class=&quot;pun&quot; style=&quot;box-sizing: border-box ; outline: none ; color: rgb(77 , 77 , 76)&quot;&gt;:&lt;/span&gt;&lt;span class=&quot;pln&quot; style=&quot;box-sizing: border-box ; outline: none ; color: rgb(77 , 77 , 76)&quot;&gt;  ndarray1&lt;/span&gt;&lt;span class=&quot;pun&quot; style=&quot;box-sizing: border-box ; outline: none ; color: rgb(77 , 77 , 76)&quot;&gt;,&lt;/span&gt;&lt;span class=&quot;pln&quot; style=&quot;box-sizing: border-box ; outline: none ; color: rgb(77 , 77 , 76)&quot;&gt; &lt;/span&gt;&lt;/code&gt;&lt;/li&gt;&lt;li class=&quot;L9&quot; style=&quot;box-sizing: border-box ; outline: none ; border-left: 1px solid rgb(238 , 238 , 238) ; padding-left: 10px ; color: rgb(221 , 221 , 221)&quot;&gt;&lt;code style=&quot;box-sizing: border-box; outline: none; font-family: &amp;quot;source code pro&amp;quot;, monospace; font-size: inherit; padding: 0px; color: inherit; background: transparent; border-radius: 0px; border: none; margin: 0px;&quot;&gt;&lt;span class=&quot;pln&quot; style=&quot;box-sizing: border-box ; outline: none ; color: rgb(77 , 77 , 76)&quot;&gt;      &lt;/span&gt;&lt;span class=&quot;str&quot; style=&quot;box-sizing: border-box ; outline: none ; color: rgb(113 , 140 , 0)&quot;&gt;&#39;name2&#39;&lt;/span&gt;&lt;span class=&quot;pun&quot; style=&quot;box-sizing: border-box ; outline: none ; color: rgb(77 , 77 , 76)&quot;&gt;:&lt;/span&gt;&lt;span class=&quot;pln&quot; style=&quot;box-sizing: border-box ; outline: none ; color: rgb(77 , 77 , 76)&quot;&gt; ndarray2&lt;/span&gt;&lt;span class=&quot;pun&quot; style=&quot;box-sizing: border-box ; outline: none ; color: rgb(77 , 77 , 76)&quot;&gt;,&lt;/span&gt;&lt;span class=&quot;pln&quot; style=&quot;box-sizing: border-box ; outline: none ; color: rgb(77 , 77 , 76)&quot;&gt; &lt;/span&gt;&lt;/code&gt;&lt;/li&gt;&lt;li class=&quot;L0&quot; style=&quot;box-sizing: border-box ; outline: none ; border-left: 1px solid rgb(238 , 238 , 238) ; padding-left: 10px ; color: rgb(221 , 221 , 221)&quot;&gt;&lt;code style=&quot;box-sizing: border-box; outline: none; font-family: &amp;quot;source code pro&amp;quot;, monospace; font-size: inherit; padding: 0px; color: inherit; background: transparent; border-radius: 0px; border: none; margin: 0px;&quot;&gt;&lt;span class=&quot;pln&quot; style=&quot;box-sizing: border-box ; outline: none ; color: rgb(77 , 77 , 76)&quot;&gt;      &lt;/span&gt;&lt;span class=&quot;str&quot; style=&quot;box-sizing: border-box ; outline: none ; color: rgb(113 , 140 , 0)&quot;&gt;&#39;name3&#39;&lt;/span&gt;&lt;span class=&quot;pun&quot; style=&quot;box-sizing: border-box ; outline: none ; color: rgb(77 , 77 , 76)&quot;&gt;:&lt;/span&gt;&lt;span class=&quot;pln&quot; style=&quot;box-sizing: border-box ; outline: none ; color: rgb(77 , 77 , 76)&quot;&gt; &lt;/span&gt;&lt;span class=&quot;pun&quot; style=&quot;box-sizing: border-box ; outline: none ; color: rgb(77 , 77 , 76)&quot;&gt;[&lt;/span&gt;&lt;span class=&quot;lit&quot; style=&quot;box-sizing: border-box ; outline: none ; color: rgb(245 , 135 , 31)&quot;&gt;1&lt;/span&gt;&lt;span class=&quot;pun&quot; style=&quot;box-sizing: border-box ; outline: none ; color: rgb(77 , 77 , 76)&quot;&gt;,&lt;/span&gt;&lt;span class=&quot;pln&quot; style=&quot;box-sizing: border-box ; outline: none ; color: rgb(77 , 77 , 76)&quot;&gt; ndarray3&lt;/span&gt;&lt;span class=&quot;pun&quot; style=&quot;box-sizing: border-box ; outline: none ; color: rgb(77 , 77 , 76)&quot;&gt;]}&lt;/span&gt;&lt;/code&gt;&lt;/li&gt;&lt;/ol&gt;" style="text;whiteSpace=wrap;html=1;fillColor=#f5f5f5;strokeColor=#666666;fontColor=#333333;" parent="1" vertex="1">
          <mxGeometry x="1390" y="100" width="250" height="60" as="geometry" />
        </mxCell>
        <mxCell id="GyIqp0dEOlZTqXCWweCi-19" value="&lt;meta charset=&quot;utf-8&quot;&gt;&lt;ol class=&quot;linenums&quot; style=&quot;box-sizing: border-box; outline: none; margin-top: 0px; margin-bottom: 0px; color: rgb(51, 51, 51); font-family: menlo, &amp;quot;bitstream vera sans mono&amp;quot;, &amp;quot;dejavu sans mono&amp;quot;, monaco, consolas, monospace; font-size: 12px; font-style: normal; font-weight: 400; letter-spacing: normal; text-align: left; text-indent: 0px; text-transform: none; word-spacing: 0px;&quot;&gt;&lt;li class=&quot;L0&quot; style=&quot;box-sizing: border-box ; outline: none ; border-left: 1px solid rgb(238 , 238 , 238) ; padding-left: 10px ; color: rgb(221 , 221 , 221)&quot;&gt;&lt;code style=&quot;box-sizing: border-box; outline: none; font-family: &amp;quot;source code pro&amp;quot;, monospace; font-size: inherit; padding: 0px; color: inherit; background: transparent; border-radius: 0px; border: none; margin: 0px;&quot;&gt;&lt;span class=&quot;pln&quot; style=&quot;box-sizing: border-box ; outline: none ; color: rgb(77 , 77 , 76)&quot;&gt;obj1&lt;/span&gt;&lt;span class=&quot;pun&quot; style=&quot;box-sizing: border-box ; outline: none ; color: rgb(77 , 77 , 76)&quot;&gt;={&lt;/span&gt;&lt;span class=&quot;str&quot; style=&quot;box-sizing: border-box ; outline: none ; color: rgb(113 , 140 , 0)&quot;&gt;&#39;name1&#39;&lt;/span&gt;&lt;span class=&quot;pun&quot; style=&quot;box-sizing: border-box ; outline: none ; color: rgb(77 , 77 , 76)&quot;&gt;:&lt;/span&gt;&lt;span class=&quot;pln&quot; style=&quot;box-sizing: border-box ; outline: none ; color: rgb(77 , 77 , 76)&quot;&gt; &lt;/span&gt;&lt;span class=&quot;typ&quot; style=&quot;box-sizing: border-box ; outline: none ; color: rgb(66 , 113 , 174)&quot;&gt;Tensor1&lt;/span&gt;&lt;span class=&quot;pun&quot; style=&quot;box-sizing: border-box ; outline: none ; color: rgb(77 , 77 , 76)&quot;&gt;,&lt;/span&gt;&lt;span class=&quot;pln&quot; style=&quot;box-sizing: border-box ; outline: none ; color: rgb(77 , 77 , 76)&quot;&gt; &lt;/span&gt;&lt;/code&gt;&lt;/li&gt;&lt;li class=&quot;L1&quot; style=&quot;box-sizing: border-box ; outline: none ; border-left: 1px solid rgb(238 , 238 , 238) ; padding-left: 10px ; color: rgb(221 , 221 , 221) ; background-color: rgb(250 , 250 , 250)&quot;&gt;&lt;code style=&quot;box-sizing: border-box; outline: none; font-family: &amp;quot;source code pro&amp;quot;, monospace; font-size: inherit; padding: 0px; color: inherit; background: transparent; border-radius: 0px; border: none; margin: 0px;&quot;&gt;&lt;span class=&quot;pln&quot; style=&quot;box-sizing: border-box ; outline: none ; color: rgb(77 , 77 , 76)&quot;&gt;      &lt;/span&gt;&lt;span class=&quot;str&quot; style=&quot;box-sizing: border-box ; outline: none ; color: rgb(113 , 140 , 0)&quot;&gt;&#39;name2&#39;&lt;/span&gt;&lt;span class=&quot;pun&quot; style=&quot;box-sizing: border-box ; outline: none ; color: rgb(77 , 77 , 76)&quot;&gt;:&lt;/span&gt;&lt;span class=&quot;pln&quot; style=&quot;box-sizing: border-box ; outline: none ; color: rgb(77 , 77 , 76)&quot;&gt; &lt;/span&gt;&lt;span class=&quot;typ&quot; style=&quot;box-sizing: border-box ; outline: none ; color: rgb(66 , 113 , 174)&quot;&gt;Tensor2&lt;/span&gt;&lt;span class=&quot;pun&quot; style=&quot;box-sizing: border-box ; outline: none ; color: rgb(77 , 77 , 76)&quot;&gt;,&lt;/span&gt;&lt;span class=&quot;pln&quot; style=&quot;box-sizing: border-box ; outline: none ; color: rgb(77 , 77 , 76)&quot;&gt; &lt;/span&gt;&lt;/code&gt;&lt;/li&gt;&lt;li class=&quot;L2&quot; style=&quot;box-sizing: border-box ; outline: none ; border-left: 1px solid rgb(238 , 238 , 238) ; padding-left: 10px ; color: rgb(221 , 221 , 221)&quot;&gt;&lt;code style=&quot;box-sizing: border-box; outline: none; font-family: &amp;quot;source code pro&amp;quot;, monospace; font-size: inherit; padding: 0px; color: inherit; background: transparent; border-radius: 0px; border: none; margin: 0px;&quot;&gt;&lt;span class=&quot;pln&quot; style=&quot;box-sizing: border-box ; outline: none ; color: rgb(77 , 77 , 76)&quot;&gt;      &lt;/span&gt;&lt;span class=&quot;str&quot; style=&quot;box-sizing: border-box ; outline: none ; color: rgb(113 , 140 , 0)&quot;&gt;&#39;name3&#39;&lt;/span&gt;&lt;span class=&quot;pun&quot; style=&quot;box-sizing: border-box ; outline: none ; color: rgb(77 , 77 , 76)&quot;&gt;:&lt;/span&gt;&lt;span class=&quot;pln&quot; style=&quot;box-sizing: border-box ; outline: none ; color: rgb(77 , 77 , 76)&quot;&gt; &lt;/span&gt;&lt;span class=&quot;pun&quot; style=&quot;box-sizing: border-box ; outline: none ; color: rgb(77 , 77 , 76)&quot;&gt;[&lt;/span&gt;&lt;span class=&quot;lit&quot; style=&quot;box-sizing: border-box ; outline: none ; color: rgb(245 , 135 , 31)&quot;&gt;1&lt;/span&gt;&lt;span class=&quot;pun&quot; style=&quot;box-sizing: border-box ; outline: none ; color: rgb(77 , 77 , 76)&quot;&gt;,&lt;/span&gt;&lt;span class=&quot;lit&quot; style=&quot;box-sizing: border-box ; outline: none ; color: rgb(245 , 135 , 31)&quot;&gt;2&lt;/span&gt;&lt;span class=&quot;pun&quot; style=&quot;box-sizing: border-box ; outline: none ; color: rgb(77 , 77 , 76)&quot;&gt;],}&lt;/span&gt;&lt;/code&gt;&lt;/li&gt;&lt;/ol&gt;" style="text;whiteSpace=wrap;html=1;fillColor=#f5f5f5;strokeColor=#666666;fontColor=#333333;" parent="1" vertex="1">
          <mxGeometry x="1390" y="240" width="240" height="60" as="geometry" />
        </mxCell>
        <mxCell id="GyIqp0dEOlZTqXCWweCi-20" value="&lt;meta charset=&quot;utf-8&quot;&gt;&lt;ol class=&quot;linenums&quot; style=&quot;box-sizing: border-box; outline: none; margin-top: 0px; margin-bottom: 0px; color: rgb(51, 51, 51); font-family: menlo, &amp;quot;bitstream vera sans mono&amp;quot;, &amp;quot;dejavu sans mono&amp;quot;, monaco, consolas, monospace; font-size: 12px; font-style: normal; font-weight: 400; letter-spacing: normal; text-align: left; text-indent: 0px; text-transform: none; word-spacing: 0px;&quot;&gt;&lt;li class=&quot;L4&quot; style=&quot;box-sizing: border-box ; outline: none ; border-left: 1px solid rgb(238 , 238 , 238) ; padding-left: 10px ; color: rgb(221 , 221 , 221) ; background-color: rgb(250 , 250 , 250)&quot;&gt;&lt;code style=&quot;box-sizing: border-box; outline: none; font-family: &amp;quot;source code pro&amp;quot;, monospace; font-size: inherit; padding: 0px; color: inherit; background: transparent; border-radius: 0px; border: none; margin: 0px;&quot;&gt;&lt;span class=&quot;pln&quot; style=&quot;box-sizing: border-box ; outline: none ; color: rgb(77 , 77 , 76)&quot;&gt;obj2&lt;/span&gt;&lt;span class=&quot;pun&quot; style=&quot;box-sizing: border-box ; outline: none ; color: rgb(77 , 77 , 76)&quot;&gt;={&lt;/span&gt;&lt;span class=&quot;str&quot; style=&quot;box-sizing: border-box ; outline: none ; color: rgb(113 , 140 , 0)&quot;&gt;&#39;name1&#39;&lt;/span&gt;&lt;span class=&quot;pun&quot; style=&quot;box-sizing: border-box ; outline: none ; color: rgb(77 , 77 , 76)&quot;&gt;:&lt;/span&gt;&lt;span class=&quot;pln&quot; style=&quot;box-sizing: border-box ; outline: none ; color: rgb(77 , 77 , 76)&quot;&gt; &lt;/span&gt;&lt;span class=&quot;typ&quot; style=&quot;box-sizing: border-box ; outline: none ; color: rgb(66 , 113 , 174)&quot;&gt;Tensor1&lt;/span&gt;&lt;span class=&quot;pun&quot; style=&quot;box-sizing: border-box ; outline: none ; color: rgb(77 , 77 , 76)&quot;&gt;,&lt;/span&gt;&lt;span class=&quot;pln&quot; style=&quot;box-sizing: border-box ; outline: none ; color: rgb(77 , 77 , 76)&quot;&gt; &lt;/span&gt;&lt;/code&gt;&lt;/li&gt;&lt;li class=&quot;L5&quot; style=&quot;box-sizing: border-box ; outline: none ; border-left: 1px solid rgb(238 , 238 , 238) ; padding-left: 10px ; color: rgb(221 , 221 , 221)&quot;&gt;&lt;code style=&quot;box-sizing: border-box; outline: none; font-family: &amp;quot;source code pro&amp;quot;, monospace; font-size: inherit; padding: 0px; color: inherit; background: transparent; border-radius: 0px; border: none; margin: 0px;&quot;&gt;&lt;span class=&quot;pln&quot; style=&quot;box-sizing: border-box ; outline: none ; color: rgb(77 , 77 , 76)&quot;&gt;      &lt;/span&gt;&lt;span class=&quot;str&quot; style=&quot;box-sizing: border-box ; outline: none ; color: rgb(113 , 140 , 0)&quot;&gt;&#39;name2&#39;&lt;/span&gt;&lt;span class=&quot;pun&quot; style=&quot;box-sizing: border-box ; outline: none ; color: rgb(77 , 77 , 76)&quot;&gt;:&lt;/span&gt;&lt;span class=&quot;pln&quot; style=&quot;box-sizing: border-box ; outline: none ; color: rgb(77 , 77 , 76)&quot;&gt; ndarray2&lt;/span&gt;&lt;span class=&quot;pun&quot; style=&quot;box-sizing: border-box ; outline: none ; color: rgb(77 , 77 , 76)&quot;&gt;,&lt;/span&gt;&lt;span class=&quot;pln&quot; style=&quot;box-sizing: border-box ; outline: none ; color: rgb(77 , 77 , 76)&quot;&gt; &lt;/span&gt;&lt;/code&gt;&lt;/li&gt;&lt;li class=&quot;L6&quot; style=&quot;box-sizing: border-box ; outline: none ; border-left: 1px solid rgb(238 , 238 , 238) ; padding-left: 10px ; color: rgb(221 , 221 , 221)&quot;&gt;&lt;code style=&quot;box-sizing: border-box; outline: none; font-family: &amp;quot;source code pro&amp;quot;, monospace; font-size: inherit; padding: 0px; color: inherit; background: transparent; border-radius: 0px; border: none; margin: 0px;&quot;&gt;&lt;span class=&quot;pln&quot; style=&quot;box-sizing: border-box ; outline: none ; color: rgb(77 , 77 , 76)&quot;&gt;      &lt;/span&gt;&lt;span class=&quot;str&quot; style=&quot;box-sizing: border-box ; outline: none ; color: rgb(113 , 140 , 0)&quot;&gt;&#39;name3&#39;&lt;/span&gt;&lt;span class=&quot;pun&quot; style=&quot;box-sizing: border-box ; outline: none ; color: rgb(77 , 77 , 76)&quot;&gt;:&lt;/span&gt;&lt;span class=&quot;pln&quot; style=&quot;box-sizing: border-box ; outline: none ; color: rgb(77 , 77 , 76)&quot;&gt; &lt;/span&gt;&lt;span class=&quot;pun&quot; style=&quot;box-sizing: border-box ; outline: none ; color: rgb(77 , 77 , 76)&quot;&gt;[&lt;/span&gt;&lt;span class=&quot;lit&quot; style=&quot;box-sizing: border-box ; outline: none ; color: rgb(245 , 135 , 31)&quot;&gt;1&lt;/span&gt;&lt;span class=&quot;pun&quot; style=&quot;box-sizing: border-box ; outline: none ; color: rgb(77 , 77 , 76)&quot;&gt;,&lt;/span&gt;&lt;span class=&quot;lit&quot; style=&quot;box-sizing: border-box ; outline: none ; color: rgb(245 , 135 , 31)&quot;&gt;2&lt;/span&gt;&lt;span class=&quot;pun&quot; style=&quot;box-sizing: border-box ; outline: none ; color: rgb(77 , 77 , 76)&quot;&gt;]&lt;/span&gt;&lt;span class=&quot;pln&quot; style=&quot;box-sizing: border-box ; outline: none ; color: rgb(77 , 77 , 76)&quot;&gt; &lt;/span&gt;&lt;span class=&quot;pun&quot; style=&quot;box-sizing: border-box ; outline: none ; color: rgb(77 , 77 , 76)&quot;&gt;}&lt;/span&gt;&lt;/code&gt;&lt;/li&gt;&lt;/ol&gt;" style="text;whiteSpace=wrap;html=1;fillColor=#f5f5f5;strokeColor=#666666;fontColor=#333333;" parent="1" vertex="1">
          <mxGeometry x="1390" y="360" width="240" height="60" as="geometry" />
        </mxCell>
        <mxCell id="GyIqp0dEOlZTqXCWweCi-21" value="&lt;meta charset=&quot;utf-8&quot;&gt;&lt;ol class=&quot;linenums&quot; style=&quot;box-sizing: border-box; outline: none; margin-top: 0px; margin-bottom: 0px; color: rgb(51, 51, 51); font-family: menlo, &amp;quot;bitstream vera sans mono&amp;quot;, &amp;quot;dejavu sans mono&amp;quot;, monaco, consolas, monospace; font-size: 12px; font-style: normal; font-weight: 400; letter-spacing: normal; text-align: left; text-indent: 0px; text-transform: none; word-spacing: 0px;&quot;&gt;&lt;li class=&quot;L8&quot; style=&quot;box-sizing: border-box ; outline: none ; border-left: 1px solid rgb(238 , 238 , 238) ; padding-left: 10px ; color: rgb(221 , 221 , 221)&quot;&gt;&lt;code style=&quot;box-sizing: border-box; outline: none; font-family: &amp;quot;source code pro&amp;quot;, monospace; font-size: inherit; padding: 0px; color: inherit; background: transparent; border-radius: 0px; border: none; margin: 0px;&quot;&gt;&lt;span class=&quot;pln&quot; style=&quot;box-sizing: border-box ; outline: none ; color: rgb(77 , 77 , 76)&quot;&gt;obj3&lt;/span&gt;&lt;span class=&quot;pun&quot; style=&quot;box-sizing: border-box ; outline: none ; color: rgb(77 , 77 , 76)&quot;&gt;={&lt;/span&gt;&lt;span class=&quot;str&quot; style=&quot;box-sizing: border-box ; outline: none ; color: rgb(113 , 140 , 0)&quot;&gt;&#39;name1&#39;&lt;/span&gt;&lt;span class=&quot;pun&quot; style=&quot;box-sizing: border-box ; outline: none ; color: rgb(77 , 77 , 76)&quot;&gt;:&lt;/span&gt;&lt;span class=&quot;pln&quot; style=&quot;box-sizing: border-box ; outline: none ; color: rgb(77 , 77 , 76)&quot;&gt;  &lt;/span&gt;&lt;span class=&quot;typ&quot; style=&quot;box-sizing: border-box ; outline: none ; color: rgb(66 , 113 , 174)&quot;&gt;Tensor1&lt;/span&gt;&lt;span class=&quot;pun&quot; style=&quot;box-sizing: border-box ; outline: none ; color: rgb(77 , 77 , 76)&quot;&gt;,&lt;/span&gt;&lt;span class=&quot;pln&quot; style=&quot;box-sizing: border-box ; outline: none ; color: rgb(77 , 77 , 76)&quot;&gt; &lt;/span&gt;&lt;/code&gt;&lt;/li&gt;&lt;li class=&quot;L9&quot; style=&quot;box-sizing: border-box ; outline: none ; border-left: 1px solid rgb(238 , 238 , 238) ; padding-left: 10px ; color: rgb(221 , 221 , 221)&quot;&gt;&lt;code style=&quot;box-sizing: border-box; outline: none; font-family: &amp;quot;source code pro&amp;quot;, monospace; font-size: inherit; padding: 0px; color: inherit; background: transparent; border-radius: 0px; border: none; margin: 0px;&quot;&gt;&lt;span class=&quot;pln&quot; style=&quot;box-sizing: border-box ; outline: none ; color: rgb(77 , 77 , 76)&quot;&gt;      &lt;/span&gt;&lt;span class=&quot;str&quot; style=&quot;box-sizing: border-box ; outline: none ; color: rgb(113 , 140 , 0)&quot;&gt;&#39;name2&#39;&lt;/span&gt;&lt;span class=&quot;pun&quot; style=&quot;box-sizing: border-box ; outline: none ; color: rgb(77 , 77 , 76)&quot;&gt;:&lt;/span&gt;&lt;span class=&quot;pln&quot; style=&quot;box-sizing: border-box ; outline: none ; color: rgb(77 , 77 , 76)&quot;&gt; ndarray2&lt;/span&gt;&lt;span class=&quot;pun&quot; style=&quot;box-sizing: border-box ; outline: none ; color: rgb(77 , 77 , 76)&quot;&gt;,&lt;/span&gt;&lt;span class=&quot;pln&quot; style=&quot;box-sizing: border-box ; outline: none ; color: rgb(77 , 77 , 76)&quot;&gt; &lt;/span&gt;&lt;/code&gt;&lt;/li&gt;&lt;li class=&quot;L0&quot; style=&quot;box-sizing: border-box ; outline: none ; border-left: 1px solid rgb(238 , 238 , 238) ; padding-left: 10px ; color: rgb(221 , 221 , 221) ; background-color: rgb(250 , 250 , 250)&quot;&gt;&lt;code style=&quot;box-sizing: border-box; outline: none; font-family: &amp;quot;source code pro&amp;quot;, monospace; font-size: inherit; padding: 0px; color: inherit; background: transparent; border-radius: 0px; border: none; margin: 0px;&quot;&gt;&lt;span class=&quot;pln&quot; style=&quot;box-sizing: border-box ; outline: none ; color: rgb(77 , 77 , 76)&quot;&gt;      &lt;/span&gt;&lt;span class=&quot;str&quot; style=&quot;box-sizing: border-box ; outline: none ; color: rgb(113 , 140 , 0)&quot;&gt;&#39;name3&#39;&lt;/span&gt;&lt;span class=&quot;pun&quot; style=&quot;box-sizing: border-box ; outline: none ; color: rgb(77 , 77 , 76)&quot;&gt;:&lt;/span&gt;&lt;span class=&quot;pln&quot; style=&quot;box-sizing: border-box ; outline: none ; color: rgb(77 , 77 , 76)&quot;&gt; &lt;/span&gt;&lt;span class=&quot;pun&quot; style=&quot;box-sizing: border-box ; outline: none ; color: rgb(77 , 77 , 76)&quot;&gt;[&lt;/span&gt;&lt;span class=&quot;lit&quot; style=&quot;box-sizing: border-box ; outline: none ; color: rgb(245 , 135 , 31)&quot;&gt;1&lt;/span&gt;&lt;span class=&quot;pun&quot; style=&quot;box-sizing: border-box ; outline: none ; color: rgb(77 , 77 , 76)&quot;&gt;,&lt;/span&gt;&lt;span class=&quot;pln&quot; style=&quot;box-sizing: border-box ; outline: none ; color: rgb(77 , 77 , 76)&quot;&gt; &lt;/span&gt;&lt;span class=&quot;typ&quot; style=&quot;box-sizing: border-box ; outline: none ; color: rgb(66 , 113 , 174)&quot;&gt;Tensor3&lt;/span&gt;&lt;span class=&quot;pun&quot; style=&quot;box-sizing: border-box ; outline: none ; color: rgb(77 , 77 , 76)&quot;&gt;]}&lt;/span&gt;&lt;/code&gt;&lt;/li&gt;&lt;/ol&gt;" style="text;whiteSpace=wrap;html=1;fillColor=#f5f5f5;strokeColor=#666666;fontColor=#333333;" parent="1" vertex="1">
          <mxGeometry x="1390" y="460" width="240" height="60" as="geometry" />
        </mxCell>
        <mxCell id="GyIqp0dEOlZTqXCWweCi-22" value="&lt;font style=&quot;font-size: 18px&quot;&gt;paddle.save的输入&lt;/font&gt;" style="text;html=1;strokeColor=none;fillColor=none;align=center;verticalAlign=middle;whiteSpace=wrap;rounded=0;" parent="1" vertex="1">
          <mxGeometry x="150" y="-20" width="170" height="20" as="geometry" />
        </mxCell>
        <mxCell id="GyIqp0dEOlZTqXCWweCi-23" value="&lt;font style=&quot;font-size: 18px&quot;&gt;经过paddle.save处理，&lt;br&gt;保存成文件中的格式&lt;/font&gt;" style="text;html=1;strokeColor=none;fillColor=none;align=left;verticalAlign=middle;whiteSpace=wrap;rounded=0;" parent="1" vertex="1">
          <mxGeometry x="840" y="-80" width="200" height="50" as="geometry" />
        </mxCell>
        <mxCell id="GyIqp0dEOlZTqXCWweCi-24" value="&lt;font style=&quot;font-size: 18px&quot;&gt;paddle.load返回的格式&lt;/font&gt;" style="text;html=1;strokeColor=none;fillColor=none;align=left;verticalAlign=middle;whiteSpace=wrap;rounded=0;" parent="1" vertex="1">
          <mxGeometry x="1410" y="-190" width="200" height="50" as="geometry" />
        </mxCell>
        <mxCell id="GyIqp0dEOlZTqXCWweCi-26" value="" style="endArrow=classic;html=1;exitX=1;exitY=0.25;exitDx=0;exitDy=0;entryX=0;entryY=0.5;entryDx=0;entryDy=0;strokeWidth=6;fillColor=#d5e8d4;strokeColor=#82b366;" parent="1" source="GyIqp0dEOlZTqXCWweCi-7" target="GyIqp0dEOlZTqXCWweCi-12" edge="1">
          <mxGeometry width="50" height="50" relative="1" as="geometry">
            <mxPoint x="570" y="90" as="sourcePoint" />
            <mxPoint x="620" y="40" as="targetPoint" />
          </mxGeometry>
        </mxCell>
        <mxCell id="GyIqp0dEOlZTqXCWweCi-27" value="" style="endArrow=classic;html=1;exitX=1;exitY=0.25;exitDx=0;exitDy=0;entryX=0;entryY=0.25;entryDx=0;entryDy=0;strokeWidth=6;fillColor=#f8cecc;strokeColor=#b85450;" parent="1" source="GyIqp0dEOlZTqXCWweCi-12" target="GyIqp0dEOlZTqXCWweCi-17" edge="1">
          <mxGeometry width="50" height="50" relative="1" as="geometry">
            <mxPoint x="1160" y="30" as="sourcePoint" />
            <mxPoint x="1360" y="-20" as="targetPoint" />
          </mxGeometry>
        </mxCell>
        <mxCell id="GyIqp0dEOlZTqXCWweCi-28" value="" style="endArrow=classic;html=1;exitX=1;exitY=0.75;exitDx=0;exitDy=0;entryX=0;entryY=0.25;entryDx=0;entryDy=0;strokeWidth=6;fillColor=#e1d5e7;strokeColor=#9673a6;" parent="1" source="GyIqp0dEOlZTqXCWweCi-12" target="GyIqp0dEOlZTqXCWweCi-19" edge="1">
          <mxGeometry width="50" height="50" relative="1" as="geometry">
            <mxPoint x="1170" y="20" as="sourcePoint" />
            <mxPoint x="1400" y="-15" as="targetPoint" />
          </mxGeometry>
        </mxCell>
        <mxCell id="GyIqp0dEOlZTqXCWweCi-29" value="" style="endArrow=classic;html=1;exitX=1;exitY=0.75;exitDx=0;exitDy=0;entryX=0;entryY=0.25;entryDx=0;entryDy=0;strokeWidth=6;fillColor=#dae8fc;strokeColor=#6c8ebf;" parent="1" source="GyIqp0dEOlZTqXCWweCi-7" target="GyIqp0dEOlZTqXCWweCi-16" edge="1">
          <mxGeometry width="50" height="50" relative="1" as="geometry">
            <mxPoint x="530" y="70" as="sourcePoint" />
            <mxPoint x="730" y="20" as="targetPoint" />
          </mxGeometry>
        </mxCell>
        <mxCell id="GyIqp0dEOlZTqXCWweCi-30" value="" style="endArrow=classic;html=1;strokeWidth=6;fillColor=#f8cecc;strokeColor=#b85450;" parent="1" edge="1">
          <mxGeometry width="50" height="50" relative="1" as="geometry">
            <mxPoint x="1160" y="145" as="sourcePoint" />
            <mxPoint x="1388" y="-10" as="targetPoint" />
          </mxGeometry>
        </mxCell>
        <mxCell id="GyIqp0dEOlZTqXCWweCi-31" value="" style="endArrow=classic;html=1;strokeWidth=6;fillColor=#f8cecc;strokeColor=#b85450;entryX=0;entryY=0.75;entryDx=0;entryDy=0;" parent="1" target="GyIqp0dEOlZTqXCWweCi-17" edge="1">
          <mxGeometry width="50" height="50" relative="1" as="geometry">
            <mxPoint x="1160" y="267.56" as="sourcePoint" />
            <mxPoint x="1388" y="130" as="targetPoint" />
          </mxGeometry>
        </mxCell>
        <mxCell id="GyIqp0dEOlZTqXCWweCi-32" value="" style="endArrow=classic;html=1;strokeWidth=6;fillColor=#f8cecc;strokeColor=#b85450;entryX=0;entryY=0.5;entryDx=0;entryDy=0;" parent="1" target="GyIqp0dEOlZTqXCWweCi-18" edge="1">
          <mxGeometry width="50" height="50" relative="1" as="geometry">
            <mxPoint x="1160" y="437.55999999999995" as="sourcePoint" />
            <mxPoint x="1388" y="300" as="targetPoint" />
          </mxGeometry>
        </mxCell>
        <mxCell id="GyIqp0dEOlZTqXCWweCi-33" value="" style="endArrow=classic;html=1;exitX=1;exitY=0.75;exitDx=0;exitDy=0;entryX=0;entryY=0.75;entryDx=0;entryDy=0;strokeWidth=6;fillColor=#e1d5e7;strokeColor=#9673a6;" parent="1" target="GyIqp0dEOlZTqXCWweCi-19" edge="1">
          <mxGeometry width="50" height="50" relative="1" as="geometry">
            <mxPoint x="1160" y="175" as="sourcePoint" />
            <mxPoint x="1390" y="380" as="targetPoint" />
          </mxGeometry>
        </mxCell>
        <mxCell id="GyIqp0dEOlZTqXCWweCi-34" value="" style="endArrow=classic;html=1;exitX=1;exitY=0.75;exitDx=0;exitDy=0;entryX=0;entryY=0.5;entryDx=0;entryDy=0;strokeWidth=6;fillColor=#e1d5e7;strokeColor=#9673a6;" parent="1" target="GyIqp0dEOlZTqXCWweCi-21" edge="1">
          <mxGeometry width="50" height="50" relative="1" as="geometry">
            <mxPoint x="1160" y="460" as="sourcePoint" />
            <mxPoint x="1390" y="555" as="targetPoint" />
          </mxGeometry>
        </mxCell>
        <mxCell id="GyIqp0dEOlZTqXCWweCi-35" value="" style="endArrow=classic;html=1;exitX=1;exitY=0.75;exitDx=0;exitDy=0;entryX=0;entryY=0.5;entryDx=0;entryDy=0;strokeWidth=6;fillColor=#e1d5e7;strokeColor=#9673a6;" parent="1" target="GyIqp0dEOlZTqXCWweCi-20" edge="1">
          <mxGeometry width="50" height="50" relative="1" as="geometry">
            <mxPoint x="1160" y="300" as="sourcePoint" />
            <mxPoint x="1390" y="395" as="targetPoint" />
          </mxGeometry>
        </mxCell>
        <mxCell id="GyIqp0dEOlZTqXCWweCi-36" value="" style="endArrow=classic;html=1;strokeWidth=6;fillColor=#d5e8d4;strokeColor=#82b366;exitX=1;exitY=0.25;exitDx=0;exitDy=0;entryX=0;entryY=0.25;entryDx=0;entryDy=0;" parent="1" source="GyIqp0dEOlZTqXCWweCi-10" target="GyIqp0dEOlZTqXCWweCi-15" edge="1">
          <mxGeometry width="50" height="50" relative="1" as="geometry">
            <mxPoint x="510" y="220" as="sourcePoint" />
            <mxPoint x="710" y="270" as="targetPoint" />
          </mxGeometry>
        </mxCell>
        <mxCell id="GyIqp0dEOlZTqXCWweCi-37" value="" style="endArrow=classic;html=1;strokeWidth=6;fillColor=#d5e8d4;strokeColor=#82b366;entryX=0;entryY=0.25;entryDx=0;entryDy=0;exitX=1;exitY=0.25;exitDx=0;exitDy=0;" parent="1" source="GyIqp0dEOlZTqXCWweCi-11" edge="1">
          <mxGeometry width="50" height="50" relative="1" as="geometry">
            <mxPoint x="550" y="410" as="sourcePoint" />
            <mxPoint x="720" y="438.75" as="targetPoint" />
          </mxGeometry>
        </mxCell>
        <mxCell id="GyIqp0dEOlZTqXCWweCi-38" value="" style="endArrow=classic;html=1;entryX=0;entryY=0.75;entryDx=0;entryDy=0;strokeWidth=6;fillColor=#dae8fc;strokeColor=#6c8ebf;exitX=1;exitY=0.75;exitDx=0;exitDy=0;" parent="1" source="GyIqp0dEOlZTqXCWweCi-11" target="GyIqp0dEOlZTqXCWweCi-14" edge="1">
          <mxGeometry width="50" height="50" relative="1" as="geometry">
            <mxPoint x="550" y="450" as="sourcePoint" />
            <mxPoint x="720" y="500" as="targetPoint" />
          </mxGeometry>
        </mxCell>
        <mxCell id="GyIqp0dEOlZTqXCWweCi-39" value="" style="endArrow=classic;html=1;entryX=0;entryY=0.75;entryDx=0;entryDy=0;strokeWidth=6;fillColor=#dae8fc;strokeColor=#6c8ebf;exitX=1;exitY=0.75;exitDx=0;exitDy=0;" parent="1" target="GyIqp0dEOlZTqXCWweCi-16" edge="1">
          <mxGeometry width="50" height="50" relative="1" as="geometry">
            <mxPoint x="520" y="275" as="sourcePoint" />
            <mxPoint x="720" y="300" as="targetPoint" />
          </mxGeometry>
        </mxCell>
        <mxCell id="GyIqp0dEOlZTqXCWweCi-40" value="" style="rounded=0;whiteSpace=wrap;html=1;strokeWidth=3;fillColor=none;dashed=1;" parent="1" vertex="1">
          <mxGeometry x="1370" y="220" width="270" height="360" as="geometry" />
        </mxCell>
        <mxCell id="GyIqp0dEOlZTqXCWweCi-42" value="&lt;font style=&quot;font-size: 16px&quot;&gt;return_numpy = True&lt;/font&gt;" style="text;html=1;strokeColor=none;fillColor=none;align=center;verticalAlign=middle;whiteSpace=wrap;rounded=0;dashed=1;strokeWidth=2;" parent="1" vertex="1">
          <mxGeometry x="1425" y="-90" width="170" height="20" as="geometry" />
        </mxCell>
        <mxCell id="GyIqp0dEOlZTqXCWweCi-43" value="&lt;font style=&quot;font-size: 16px&quot;&gt;return_numpy = False&lt;/font&gt;" style="text;html=1;strokeColor=none;fillColor=none;align=center;verticalAlign=middle;whiteSpace=wrap;rounded=0;dashed=1;strokeWidth=2;" parent="1" vertex="1">
          <mxGeometry x="1425" y="540" width="170" height="20" as="geometry" />
        </mxCell>
        <mxCell id="hMPwxwOWYM7d5sagDKWG-2" value="" style="endArrow=classic;html=1;exitX=1;exitY=0.25;exitDx=0;exitDy=0;strokeWidth=6;fillColor=#d5e8d4;strokeColor=#82b366;" parent="1" edge="1">
          <mxGeometry width="50" height="50" relative="1" as="geometry">
            <mxPoint x="420" y="-60" as="sourcePoint" />
            <mxPoint x="470" y="-60" as="targetPoint" />
          </mxGeometry>
        </mxCell>
        <mxCell id="hMPwxwOWYM7d5sagDKWG-3" value="动态图save" style="text;html=1;align=center;verticalAlign=middle;resizable=0;points=[];autosize=1;" parent="1" vertex="1">
          <mxGeometry x="465" y="-70" width="80" height="20" as="geometry" />
        </mxCell>
        <mxCell id="hMPwxwOWYM7d5sagDKWG-5" value="" style="endArrow=classic;html=1;exitX=1;exitY=0.25;exitDx=0;exitDy=0;strokeWidth=6;fillColor=#dae8fc;strokeColor=#6c8ebf;" parent="1" edge="1">
          <mxGeometry width="50" height="50" relative="1" as="geometry">
            <mxPoint x="420" y="-90" as="sourcePoint" />
            <mxPoint x="470" y="-90" as="targetPoint" />
          </mxGeometry>
        </mxCell>
        <mxCell id="hMPwxwOWYM7d5sagDKWG-6" value="静态图save" style="text;html=1;align=center;verticalAlign=middle;resizable=0;points=[];autosize=1;" parent="1" vertex="1">
          <mxGeometry x="465" y="-100" width="80" height="20" as="geometry" />
        </mxCell>
        <mxCell id="hMPwxwOWYM7d5sagDKWG-11" value="" style="endArrow=classic;html=1;exitX=1;exitY=0.25;exitDx=0;exitDy=0;strokeWidth=6;fillColor=#e1d5e7;strokeColor=#9673a6;" parent="1" edge="1">
          <mxGeometry width="50" height="50" relative="1" as="geometry">
            <mxPoint x="1190" y="-60" as="sourcePoint" />
            <mxPoint x="1240" y="-60" as="targetPoint" />
          </mxGeometry>
        </mxCell>
        <mxCell id="hMPwxwOWYM7d5sagDKWG-13" value="" style="endArrow=classic;html=1;exitX=1;exitY=0.25;exitDx=0;exitDy=0;strokeWidth=6;fillColor=#f8cecc;strokeColor=#b85450;" parent="1" edge="1">
          <mxGeometry width="50" height="50" relative="1" as="geometry">
            <mxPoint x="1190" y="-90" as="sourcePoint" />
            <mxPoint x="1240" y="-90" as="targetPoint" />
          </mxGeometry>
        </mxCell>
        <mxCell id="hMPwxwOWYM7d5sagDKWG-14" value="return_numpy=True" style="text;html=1;align=center;verticalAlign=middle;resizable=0;points=[];autosize=1;" parent="1" vertex="1">
          <mxGeometry x="1241" y="-100" width="120" height="20" as="geometry" />
        </mxCell>
        <mxCell id="hMPwxwOWYM7d5sagDKWG-15" value="return_numpy=False" style="text;html=1;align=center;verticalAlign=middle;resizable=0;points=[];autosize=1;" parent="1" vertex="1">
          <mxGeometry x="1236" y="-70" width="130" height="20" as="geometry" />
        </mxCell>
        <mxCell id="kWca1h-Ah_QSKacg4VAW-1" value="" style="rounded=0;whiteSpace=wrap;html=1;strokeWidth=3;fillColor=none;dashed=1;" vertex="1" parent="1">
          <mxGeometry x="1400" y="1020" width="270" height="280" as="geometry" />
        </mxCell>
        <mxCell id="kWca1h-Ah_QSKacg4VAW-2" style="edgeStyle=orthogonalEdgeStyle;rounded=0;orthogonalLoop=1;jettySize=auto;html=1;exitX=0.5;exitY=1;exitDx=0;exitDy=0;" edge="1" parent="1">
          <mxGeometry relative="1" as="geometry">
            <mxPoint x="290" y="1270" as="sourcePoint" />
            <mxPoint x="290" y="1270" as="targetPoint" />
          </mxGeometry>
        </mxCell>
        <mxCell id="kWca1h-Ah_QSKacg4VAW-3" value="&lt;meta charset=&quot;utf-8&quot;&gt;&lt;ol class=&quot;linenums&quot; style=&quot;box-sizing: border-box; outline: none; margin-top: 0px; margin-bottom: 0px; color: rgb(51, 51, 51); font-family: menlo, &amp;quot;bitstream vera sans mono&amp;quot;, &amp;quot;dejavu sans mono&amp;quot;, monaco, consolas, monospace; font-size: 12px; font-style: normal; font-weight: 400; letter-spacing: normal; text-align: left; text-indent: 0px; text-transform: none; word-spacing: 0px;&quot;&gt;&lt;li class=&quot;L0&quot; style=&quot;box-sizing: border-box ; outline: none ; border-left: 1px solid rgb(238 , 238 , 238) ; padding-left: 10px ; color: rgb(221 , 221 , 221) ; background-color: rgb(250 , 250 , 250)&quot;&gt;&lt;code style=&quot;box-sizing: border-box; outline: none; font-family: &amp;quot;source code pro&amp;quot;, monospace; font-size: inherit; padding: 0px; color: inherit; background: transparent; border-radius: 0px; border: none; margin: 0px;&quot;&gt;&lt;span class=&quot;com&quot; style=&quot;box-sizing: border-box ; outline: none ; color: rgb(142 , 144 , 140)&quot;&gt;# 可以被paddle2.0的paddle.save解析的state_dict的形式。&lt;/span&gt;&lt;/code&gt;&lt;/li&gt;&lt;li class=&quot;L1&quot; style=&quot;box-sizing: border-box ; outline: none ; border-left: 1px solid rgb(238 , 238 , 238) ; padding-left: 10px ; color: rgb(221 , 221 , 221)&quot;&gt;&lt;code style=&quot;box-sizing: border-box; outline: none; font-family: &amp;quot;source code pro&amp;quot;, monospace; font-size: inherit; padding: 0px; color: inherit; background: transparent; border-radius: 0px; border: none; margin: 0px;&quot;&gt;&lt;span class=&quot;com&quot; style=&quot;box-sizing: border-box ; outline: none ; color: rgb(142 , 144 , 140)&quot;&gt;# tensor只能是obj1的value，tensor不能出现在嵌套结构中。&lt;/span&gt;&lt;/code&gt;&lt;/li&gt;&lt;li class=&quot;L2&quot; style=&quot;box-sizing: border-box ; outline: none ; border-left: 1px solid rgb(238 , 238 , 238) ; padding-left: 10px ; color: rgb(221 , 221 , 221)&quot;&gt;&lt;code style=&quot;box-sizing: border-box; outline: none; font-family: &amp;quot;source code pro&amp;quot;, monospace; font-size: inherit; padding: 0px; color: inherit; background: transparent; border-radius: 0px; border: none; margin: 0px;&quot;&gt;&lt;span class=&quot;pln&quot; style=&quot;box-sizing: border-box ; outline: none ; color: rgb(77 , 77 , 76)&quot;&gt;obj1&lt;/span&gt;&lt;span class=&quot;pun&quot; style=&quot;box-sizing: border-box ; outline: none ; color: rgb(77 , 77 , 76)&quot;&gt;={&lt;/span&gt;&lt;span class=&quot;str&quot; style=&quot;box-sizing: border-box ; outline: none ; color: rgb(113 , 140 , 0)&quot;&gt;&#39;name1&#39;&lt;/span&gt;&lt;span class=&quot;pun&quot; style=&quot;box-sizing: border-box ; outline: none ; color: rgb(77 , 77 , 76)&quot;&gt;:&lt;/span&gt;&lt;span class=&quot;pln&quot; style=&quot;box-sizing: border-box ; outline: none ; color: rgb(77 , 77 , 76)&quot;&gt; &lt;/span&gt;&lt;span class=&quot;typ&quot; style=&quot;box-sizing: border-box ; outline: none ; color: rgb(66 , 113 , 174)&quot;&gt;Tensor1&lt;/span&gt;&lt;span class=&quot;pun&quot; style=&quot;box-sizing: border-box ; outline: none ; color: rgb(77 , 77 , 76)&quot;&gt;,&lt;/span&gt;&lt;span class=&quot;pln&quot; style=&quot;box-sizing: border-box ; outline: none ; color: rgb(77 , 77 , 76)&quot;&gt; &lt;/span&gt;&lt;/code&gt;&lt;/li&gt;&lt;li class=&quot;L3&quot; style=&quot;box-sizing: border-box ; outline: none ; border-left: 1px solid rgb(238 , 238 , 238) ; padding-left: 10px ; color: rgb(221 , 221 , 221)&quot;&gt;&lt;code style=&quot;box-sizing: border-box; outline: none; font-family: &amp;quot;source code pro&amp;quot;, monospace; font-size: inherit; padding: 0px; color: inherit; background: transparent; border-radius: 0px; border: none; margin: 0px;&quot;&gt;&lt;span class=&quot;pln&quot; style=&quot;box-sizing: border-box ; outline: none ; color: rgb(77 , 77 , 76)&quot;&gt;      &lt;/span&gt;&lt;span class=&quot;str&quot; style=&quot;box-sizing: border-box ; outline: none ; color: rgb(113 , 140 , 0)&quot;&gt;&#39;name2&#39;&lt;/span&gt;&lt;span class=&quot;pun&quot; style=&quot;box-sizing: border-box ; outline: none ; color: rgb(77 , 77 , 76)&quot;&gt;:&lt;/span&gt;&lt;span class=&quot;pln&quot; style=&quot;box-sizing: border-box ; outline: none ; color: rgb(77 , 77 , 76)&quot;&gt; &lt;/span&gt;&lt;span class=&quot;typ&quot; style=&quot;box-sizing: border-box ; outline: none ; color: rgb(66 , 113 , 174)&quot;&gt;Tensor2&lt;/span&gt;&lt;span class=&quot;pun&quot; style=&quot;box-sizing: border-box ; outline: none ; color: rgb(77 , 77 , 76)&quot;&gt;,&lt;/span&gt;&lt;span class=&quot;pln&quot; style=&quot;box-sizing: border-box ; outline: none ; color: rgb(77 , 77 , 76)&quot;&gt; &lt;/span&gt;&lt;/code&gt;&lt;/li&gt;&lt;li class=&quot;L4&quot; style=&quot;box-sizing: border-box ; outline: none ; border-left: 1px solid rgb(238 , 238 , 238) ; padding-left: 10px ; color: rgb(221 , 221 , 221)&quot;&gt;&lt;code style=&quot;box-sizing: border-box; outline: none; font-family: &amp;quot;source code pro&amp;quot;, monospace; font-size: inherit; padding: 0px; color: inherit; background: transparent; border-radius: 0px; border: none; margin: 0px;&quot;&gt;&lt;span class=&quot;pln&quot; style=&quot;box-sizing: border-box ; outline: none ; color: rgb(77 , 77 , 76)&quot;&gt;      &lt;/span&gt;&lt;span class=&quot;str&quot; style=&quot;box-sizing: border-box ; outline: none ; color: rgb(113 , 140 , 0)&quot;&gt;&#39;name3&#39;&lt;/span&gt;&lt;span class=&quot;pun&quot; style=&quot;box-sizing: border-box ; outline: none ; color: rgb(77 , 77 , 76)&quot;&gt;:&lt;/span&gt;&lt;span class=&quot;pln&quot; style=&quot;box-sizing: border-box ; outline: none ; color: rgb(77 , 77 , 76)&quot;&gt; &lt;/span&gt;&lt;span class=&quot;pun&quot; style=&quot;box-sizing: border-box ; outline: none ; color: rgb(77 , 77 , 76)&quot;&gt;[&lt;/span&gt;&lt;span class=&quot;lit&quot; style=&quot;box-sizing: border-box ; outline: none ; color: rgb(245 , 135 , 31)&quot;&gt;1&lt;/span&gt;&lt;span class=&quot;pun&quot; style=&quot;box-sizing: border-box ; outline: none ; color: rgb(77 , 77 , 76)&quot;&gt;,&lt;/span&gt;&lt;span class=&quot;lit&quot; style=&quot;box-sizing: border-box ; outline: none ; color: rgb(245 , 135 , 31)&quot;&gt;2&lt;/span&gt;&lt;span class=&quot;pun&quot; style=&quot;box-sizing: border-box ; outline: none ; color: rgb(77 , 77 , 76)&quot;&gt;]}&lt;/span&gt;&lt;/code&gt;&lt;/li&gt;&lt;/ol&gt;" style="text;whiteSpace=wrap;html=1;fillColor=#f5f5f5;strokeColor=#666666;fontColor=#333333;" vertex="1" parent="1">
          <mxGeometry x="70" y="1160" width="480" height="80" as="geometry" />
        </mxCell>
        <mxCell id="kWca1h-Ah_QSKacg4VAW-4" value="&lt;meta charset=&quot;utf-8&quot;&gt;&lt;ol class=&quot;linenums&quot; style=&quot;box-sizing: border-box; outline: none; margin-top: 0px; margin-bottom: 0px; color: rgb(51, 51, 51); font-family: menlo, &amp;quot;bitstream vera sans mono&amp;quot;, &amp;quot;dejavu sans mono&amp;quot;, monaco, consolas, monospace; font-size: 12px; font-style: normal; font-weight: 400; letter-spacing: normal; text-align: left; text-indent: 0px; text-transform: none; word-spacing: 0px;&quot;&gt;&lt;li class=&quot;L6&quot; style=&quot;box-sizing: border-box ; outline: none ; border-left: 1px solid rgb(238 , 238 , 238) ; padding-left: 10px ; color: rgb(221 , 221 , 221)&quot;&gt;&lt;code style=&quot;box-sizing: border-box; outline: none; font-family: &amp;quot;source code pro&amp;quot;, monospace; font-size: inherit; padding: 0px; color: inherit; background: transparent; border-radius: 0px; border: none; margin: 0px;&quot;&gt;&lt;span class=&quot;com&quot; style=&quot;box-sizing: border-box ; outline: none ; color: rgb(142 , 144 , 140)&quot;&gt;# 可以被paddle2.0的paddle.save解析的state_dict的形式。&lt;/span&gt;&lt;/code&gt;&lt;/li&gt;&lt;li class=&quot;L7&quot; style=&quot;box-sizing: border-box ; outline: none ; border-left: 1px solid rgb(238 , 238 , 238) ; padding-left: 10px ; color: rgb(221 , 221 , 221)&quot;&gt;&lt;code style=&quot;box-sizing: border-box; outline: none; font-family: &amp;quot;source code pro&amp;quot;, monospace; font-size: inherit; padding: 0px; color: inherit; background: transparent; border-radius: 0px; border: none; margin: 0px;&quot;&gt;&lt;span class=&quot;com&quot; style=&quot;box-sizing: border-box ; outline: none ; color: rgb(142 , 144 , 140)&quot;&gt;# 但是，存在numpy.ndarray, 需要对用户做出警告：&lt;/span&gt;&lt;/code&gt;&lt;/li&gt;&lt;li class=&quot;L8&quot; style=&quot;box-sizing: border-box ; outline: none ; border-left: 1px solid rgb(238 , 238 , 238) ; padding-left: 10px ; color: rgb(221 , 221 , 221)&quot;&gt;&lt;code style=&quot;box-sizing: border-box; outline: none; font-family: &amp;quot;source code pro&amp;quot;, monospace; font-size: inherit; padding: 0px; color: inherit; background: transparent; border-radius: 0px; border: none; margin: 0px;&quot;&gt;&lt;span class=&quot;com&quot; style=&quot;box-sizing: border-box ; outline: none ; color: rgb(142 , 144 , 140)&quot;&gt;# 如果用户在load时期望返回Tensor，ndarray2也会被转化为Tensor。&lt;/span&gt;&lt;/code&gt;&lt;/li&gt;&lt;li class=&quot;L9&quot; style=&quot;box-sizing: border-box ; outline: none ; border-left: 1px solid rgb(238 , 238 , 238) ; padding-left: 10px ; color: rgb(221 , 221 , 221)&quot;&gt;&lt;code style=&quot;box-sizing: border-box; outline: none; font-family: &amp;quot;source code pro&amp;quot;, monospace; font-size: inherit; padding: 0px; color: inherit; background: transparent; border-radius: 0px; border: none; margin: 0px;&quot;&gt;&lt;span class=&quot;pln&quot; style=&quot;box-sizing: border-box ; outline: none ; color: rgb(77 , 77 , 76)&quot;&gt;obj2&lt;/span&gt;&lt;span class=&quot;pun&quot; style=&quot;box-sizing: border-box ; outline: none ; color: rgb(77 , 77 , 76)&quot;&gt;={&lt;/span&gt;&lt;span class=&quot;str&quot; style=&quot;box-sizing: border-box ; outline: none ; color: rgb(113 , 140 , 0)&quot;&gt;&#39;name1&#39;&lt;/span&gt;&lt;span class=&quot;pun&quot; style=&quot;box-sizing: border-box ; outline: none ; color: rgb(77 , 77 , 76)&quot;&gt;:&lt;/span&gt;&lt;span class=&quot;pln&quot; style=&quot;box-sizing: border-box ; outline: none ; color: rgb(77 , 77 , 76)&quot;&gt; &lt;/span&gt;&lt;span class=&quot;typ&quot; style=&quot;box-sizing: border-box ; outline: none ; color: rgb(66 , 113 , 174)&quot;&gt;Tensor1&lt;/span&gt;&lt;span class=&quot;pun&quot; style=&quot;box-sizing: border-box ; outline: none ; color: rgb(77 , 77 , 76)&quot;&gt;,&lt;/span&gt;&lt;span class=&quot;pln&quot; style=&quot;box-sizing: border-box ; outline: none ; color: rgb(77 , 77 , 76)&quot;&gt; &lt;/span&gt;&lt;/code&gt;&lt;/li&gt;&lt;li class=&quot;L0&quot; style=&quot;box-sizing: border-box ; outline: none ; border-left: 1px solid rgb(238 , 238 , 238) ; padding-left: 10px ; color: rgb(221 , 221 , 221)&quot;&gt;&lt;code style=&quot;box-sizing: border-box; outline: none; font-family: &amp;quot;source code pro&amp;quot;, monospace; font-size: inherit; padding: 0px; color: inherit; background: transparent; border-radius: 0px; border: none; margin: 0px;&quot;&gt;&lt;span class=&quot;pln&quot; style=&quot;box-sizing: border-box ; outline: none ; color: rgb(77 , 77 , 76)&quot;&gt;      &lt;/span&gt;&lt;span class=&quot;str&quot; style=&quot;box-sizing: border-box ; outline: none ; color: rgb(113 , 140 , 0)&quot;&gt;&#39;name2&#39;&lt;/span&gt;&lt;span class=&quot;pun&quot; style=&quot;box-sizing: border-box ; outline: none ; color: rgb(77 , 77 , 76)&quot;&gt;:&lt;/span&gt;&lt;span class=&quot;pln&quot; style=&quot;box-sizing: border-box ; outline: none ; color: rgb(77 , 77 , 76)&quot;&gt; ndarray2&lt;/span&gt;&lt;span class=&quot;pun&quot; style=&quot;box-sizing: border-box ; outline: none ; color: rgb(77 , 77 , 76)&quot;&gt;,&lt;/span&gt;&lt;span class=&quot;pln&quot; style=&quot;box-sizing: border-box ; outline: none ; color: rgb(77 , 77 , 76)&quot;&gt; &lt;/span&gt;&lt;/code&gt;&lt;/li&gt;&lt;li class=&quot;L1&quot; style=&quot;box-sizing: border-box ; outline: none ; border-left: 1px solid rgb(238 , 238 , 238) ; padding-left: 10px ; color: rgb(221 , 221 , 221)&quot;&gt;&lt;code style=&quot;box-sizing: border-box; outline: none; font-family: &amp;quot;source code pro&amp;quot;, monospace; font-size: inherit; padding: 0px; color: inherit; background: transparent; border-radius: 0px; border: none; margin: 0px;&quot;&gt;&lt;span class=&quot;pln&quot; style=&quot;box-sizing: border-box ; outline: none ; color: rgb(77 , 77 , 76)&quot;&gt;      &lt;/span&gt;&lt;span class=&quot;str&quot; style=&quot;box-sizing: border-box ; outline: none ; color: rgb(113 , 140 , 0)&quot;&gt;&#39;name3&#39;&lt;/span&gt;&lt;span class=&quot;pun&quot; style=&quot;box-sizing: border-box ; outline: none ; color: rgb(77 , 77 , 76)&quot;&gt;:&lt;/span&gt;&lt;span class=&quot;pln&quot; style=&quot;box-sizing: border-box ; outline: none ; color: rgb(77 , 77 , 76)&quot;&gt; &lt;/span&gt;&lt;span class=&quot;pun&quot; style=&quot;box-sizing: border-box ; outline: none ; color: rgb(77 , 77 , 76)&quot;&gt;[&lt;/span&gt;&lt;span class=&quot;lit&quot; style=&quot;box-sizing: border-box ; outline: none ; color: rgb(245 , 135 , 31)&quot;&gt;1&lt;/span&gt;&lt;span class=&quot;pun&quot; style=&quot;box-sizing: border-box ; outline: none ; color: rgb(77 , 77 , 76)&quot;&gt;,&lt;/span&gt;&lt;span class=&quot;lit&quot; style=&quot;box-sizing: border-box ; outline: none ; color: rgb(245 , 135 , 31)&quot;&gt;2&lt;/span&gt;&lt;span class=&quot;pun&quot; style=&quot;box-sizing: border-box ; outline: none ; color: rgb(77 , 77 , 76)&quot;&gt;]}&lt;/span&gt;&lt;/code&gt;&lt;/li&gt;&lt;/ol&gt;" style="text;whiteSpace=wrap;html=1;fillColor=#f5f5f5;strokeColor=#666666;fontColor=#333333;" vertex="1" parent="1">
          <mxGeometry x="70" y="1320" width="480" height="100" as="geometry" />
        </mxCell>
        <mxCell id="kWca1h-Ah_QSKacg4VAW-5" value="&lt;meta charset=&quot;utf-8&quot;&gt;&lt;ol class=&quot;linenums&quot; style=&quot;box-sizing: border-box; outline: none; margin-top: 0px; margin-bottom: 0px; color: rgb(51, 51, 51); font-family: menlo, &amp;quot;bitstream vera sans mono&amp;quot;, &amp;quot;dejavu sans mono&amp;quot;, monaco, consolas, monospace; font-size: 12px; font-style: normal; font-weight: 400; letter-spacing: normal; text-align: left; text-indent: 0px; text-transform: none; word-spacing: 0px;&quot;&gt;&lt;li class=&quot;L3&quot; style=&quot;box-sizing: border-box ; outline: none ; border-left: 1px solid rgb(238 , 238 , 238) ; padding-left: 10px ; color: rgb(221 , 221 , 221)&quot;&gt;&lt;code style=&quot;box-sizing: border-box; outline: none; font-family: &amp;quot;source code pro&amp;quot;, monospace; font-size: inherit; padding: 0px; color: inherit; background: transparent; border-radius: 0px; border: none; margin: 0px;&quot;&gt;&lt;span class=&quot;com&quot; style=&quot;box-sizing: border-box ; outline: none ; color: rgb(142 , 144 , 140)&quot;&gt;# 不可以被paddle2.0的paddle.save解析的state_dict的形式。&lt;/span&gt;&lt;/code&gt;&lt;/li&gt;&lt;li class=&quot;L4&quot; style=&quot;box-sizing: border-box ; outline: none ; border-left: 1px solid rgb(238 , 238 , 238) ; padding-left: 10px ; color: rgb(221 , 221 , 221)&quot;&gt;&lt;code style=&quot;box-sizing: border-box; outline: none; font-family: &amp;quot;source code pro&amp;quot;, monospace; font-size: inherit; padding: 0px; color: inherit; background: transparent; border-radius: 0px; border: none; margin: 0px;&quot;&gt;&lt;span class=&quot;com&quot; style=&quot;box-sizing: border-box ; outline: none ; color: rgb(142 , 144 , 140)&quot;&gt;# 因为Tensor出现在嵌套结构中（Tensor3在dict的list中）&lt;/span&gt;&lt;/code&gt;&lt;/li&gt;&lt;li class=&quot;L5&quot; style=&quot;box-sizing: border-box ; outline: none ; border-left: 1px solid rgb(238 , 238 , 238) ; padding-left: 10px ; color: rgb(221 , 221 , 221)&quot;&gt;&lt;code style=&quot;box-sizing: border-box; outline: none; font-family: &amp;quot;source code pro&amp;quot;, monospace; font-size: inherit; padding: 0px; color: inherit; background: transparent; border-radius: 0px; border: none; margin: 0px;&quot;&gt;&lt;span class=&quot;pln&quot; style=&quot;box-sizing: border-box ; outline: none ; color: rgb(77 , 77 , 76)&quot;&gt;obj3&lt;/span&gt;&lt;span class=&quot;pun&quot; style=&quot;box-sizing: border-box ; outline: none ; color: rgb(77 , 77 , 76)&quot;&gt;={&lt;/span&gt;&lt;span class=&quot;str&quot; style=&quot;box-sizing: border-box ; outline: none ; color: rgb(113 , 140 , 0)&quot;&gt;&#39;name1&#39;&lt;/span&gt;&lt;span class=&quot;pun&quot; style=&quot;box-sizing: border-box ; outline: none ; color: rgb(77 , 77 , 76)&quot;&gt;:&lt;/span&gt;&lt;span class=&quot;pln&quot; style=&quot;box-sizing: border-box ; outline: none ; color: rgb(77 , 77 , 76)&quot;&gt; &lt;/span&gt;&lt;span class=&quot;typ&quot; style=&quot;box-sizing: border-box ; outline: none ; color: rgb(66 , 113 , 174)&quot;&gt;Tensor1&lt;/span&gt;&lt;span class=&quot;pun&quot; style=&quot;box-sizing: border-box ; outline: none ; color: rgb(77 , 77 , 76)&quot;&gt;,&lt;/span&gt;&lt;span class=&quot;pln&quot; style=&quot;box-sizing: border-box ; outline: none ; color: rgb(77 , 77 , 76)&quot;&gt; &lt;/span&gt;&lt;/code&gt;&lt;/li&gt;&lt;li class=&quot;L6&quot; style=&quot;box-sizing: border-box ; outline: none ; border-left: 1px solid rgb(238 , 238 , 238) ; padding-left: 10px ; color: rgb(221 , 221 , 221)&quot;&gt;&lt;code style=&quot;box-sizing: border-box; outline: none; font-family: &amp;quot;source code pro&amp;quot;, monospace; font-size: inherit; padding: 0px; color: inherit; background: transparent; border-radius: 0px; border: none; margin: 0px;&quot;&gt;&lt;span class=&quot;pln&quot; style=&quot;box-sizing: border-box ; outline: none ; color: rgb(77 , 77 , 76)&quot;&gt;      &lt;/span&gt;&lt;span class=&quot;str&quot; style=&quot;box-sizing: border-box ; outline: none ; color: rgb(113 , 140 , 0)&quot;&gt;&#39;name2&#39;&lt;/span&gt;&lt;span class=&quot;pun&quot; style=&quot;box-sizing: border-box ; outline: none ; color: rgb(77 , 77 , 76)&quot;&gt;:&lt;/span&gt;&lt;span class=&quot;pln&quot; style=&quot;box-sizing: border-box ; outline: none ; color: rgb(77 , 77 , 76)&quot;&gt; ndarray2&lt;/span&gt;&lt;span class=&quot;pun&quot; style=&quot;box-sizing: border-box ; outline: none ; color: rgb(77 , 77 , 76)&quot;&gt;,&lt;/span&gt;&lt;span class=&quot;pln&quot; style=&quot;box-sizing: border-box ; outline: none ; color: rgb(77 , 77 , 76)&quot;&gt; &lt;/span&gt;&lt;/code&gt;&lt;/li&gt;&lt;li class=&quot;L7&quot; style=&quot;box-sizing: border-box ; outline: none ; border-left: 1px solid rgb(238 , 238 , 238) ; padding-left: 10px ; color: rgb(221 , 221 , 221)&quot;&gt;&lt;code style=&quot;box-sizing: border-box; outline: none; font-family: &amp;quot;source code pro&amp;quot;, monospace; font-size: inherit; padding: 0px; color: inherit; background: transparent; border-radius: 0px; border: none; margin: 0px;&quot;&gt;&lt;span class=&quot;pln&quot; style=&quot;box-sizing: border-box ; outline: none ; color: rgb(77 , 77 , 76)&quot;&gt;      &lt;/span&gt;&lt;span class=&quot;str&quot; style=&quot;box-sizing: border-box ; outline: none ; color: rgb(113 , 140 , 0)&quot;&gt;&#39;name3&#39;&lt;/span&gt;&lt;span class=&quot;pun&quot; style=&quot;box-sizing: border-box ; outline: none ; color: rgb(77 , 77 , 76)&quot;&gt;:&lt;/span&gt;&lt;span class=&quot;pln&quot; style=&quot;box-sizing: border-box ; outline: none ; color: rgb(77 , 77 , 76)&quot;&gt; &lt;/span&gt;&lt;span class=&quot;pun&quot; style=&quot;box-sizing: border-box ; outline: none ; color: rgb(77 , 77 , 76)&quot;&gt;[&lt;/span&gt;&lt;span class=&quot;lit&quot; style=&quot;box-sizing: border-box ; outline: none ; color: rgb(245 , 135 , 31)&quot;&gt;1&lt;/span&gt;&lt;span class=&quot;pun&quot; style=&quot;box-sizing: border-box ; outline: none ; color: rgb(77 , 77 , 76)&quot;&gt;,&lt;/span&gt;&lt;span class=&quot;typ&quot; style=&quot;box-sizing: border-box ; outline: none ; color: rgb(66 , 113 , 174)&quot;&gt;Tensor3&lt;/span&gt;&lt;span class=&quot;pun&quot; style=&quot;box-sizing: border-box ; outline: none ; color: rgb(77 , 77 , 76)&quot;&gt;]}&lt;/span&gt;&lt;/code&gt;&lt;/li&gt;&lt;/ol&gt;" style="text;whiteSpace=wrap;html=1;fillColor=#f5f5f5;strokeColor=#666666;fontColor=#333333;" vertex="1" parent="1">
          <mxGeometry x="70" y="1500" width="480" height="80" as="geometry" />
        </mxCell>
        <mxCell id="kWca1h-Ah_QSKacg4VAW-6" value="&lt;meta charset=&quot;utf-8&quot;&gt;&lt;ol class=&quot;linenums&quot; style=&quot;box-sizing: border-box; outline: none; margin-top: 0px; margin-bottom: 0px; color: rgb(51, 51, 51); font-family: menlo, &amp;quot;bitstream vera sans mono&amp;quot;, &amp;quot;dejavu sans mono&amp;quot;, monaco, consolas, monospace; font-size: 12px; font-style: normal; font-weight: 400; letter-spacing: normal; text-align: left; text-indent: 0px; text-transform: none; word-spacing: 0px;&quot;&gt;&lt;li class=&quot;L0&quot; style=&quot;box-sizing: border-box ; outline: none ; border-left: 1px solid rgb(238 , 238 , 238) ; padding-left: 10px ; color: rgb(221 , 221 , 221)&quot;&gt;&lt;code style=&quot;box-sizing: border-box; outline: none; font-family: &amp;quot;source code pro&amp;quot;, monospace; font-size: inherit; padding: 0px; color: inherit; background: transparent; border-radius: 0px; border: none; margin: 0px;&quot;&gt;&lt;span class=&quot;pln&quot; style=&quot;box-sizing: border-box ; outline: none ; color: rgb(77 , 77 , 76)&quot;&gt;obj1&lt;/span&gt;&lt;span class=&quot;pun&quot; style=&quot;box-sizing: border-box ; outline: none ; color: rgb(77 , 77 , 76)&quot;&gt;={&lt;/span&gt;&lt;span class=&quot;str&quot; style=&quot;box-sizing: border-box ; outline: none ; color: rgb(113 , 140 , 0)&quot;&gt;&#39;name1&#39;&lt;/span&gt;&lt;span class=&quot;pun&quot; style=&quot;box-sizing: border-box ; outline: none ; color: rgb(77 , 77 , 76)&quot;&gt;:&lt;/span&gt;&lt;span class=&quot;pln&quot; style=&quot;box-sizing: border-box ; outline: none ; color: rgb(77 , 77 , 76)&quot;&gt; ndarray1&lt;/span&gt;&lt;span class=&quot;pun&quot; style=&quot;box-sizing: border-box ; outline: none ; color: rgb(77 , 77 , 76)&quot;&gt;,&lt;/span&gt;&lt;span class=&quot;pln&quot; style=&quot;box-sizing: border-box ; outline: none ; color: rgb(77 , 77 , 76)&quot;&gt; &lt;/span&gt;&lt;/code&gt;&lt;/li&gt;&lt;li class=&quot;L1&quot; style=&quot;box-sizing: border-box ; outline: none ; border-left: 1px solid rgb(238 , 238 , 238) ; padding-left: 10px ; color: rgb(221 , 221 , 221)&quot;&gt;&lt;code style=&quot;box-sizing: border-box; outline: none; font-family: &amp;quot;source code pro&amp;quot;, monospace; font-size: inherit; padding: 0px; color: inherit; background: transparent; border-radius: 0px; border: none; margin: 0px;&quot;&gt;&lt;span class=&quot;pln&quot; style=&quot;box-sizing: border-box ; outline: none ; color: rgb(77 , 77 , 76)&quot;&gt;      &lt;/span&gt;&lt;span class=&quot;str&quot; style=&quot;box-sizing: border-box ; outline: none ; color: rgb(113 , 140 , 0)&quot;&gt;&#39;name2&#39;&lt;/span&gt;&lt;span class=&quot;pun&quot; style=&quot;box-sizing: border-box ; outline: none ; color: rgb(77 , 77 , 76)&quot;&gt;:&lt;/span&gt;&lt;span class=&quot;pln&quot; style=&quot;box-sizing: border-box ; outline: none ; color: rgb(77 , 77 , 76)&quot;&gt; ndarray2&lt;/span&gt;&lt;span class=&quot;pun&quot; style=&quot;box-sizing: border-box ; outline: none ; color: rgb(77 , 77 , 76)&quot;&gt;,&lt;/span&gt;&lt;span class=&quot;pln&quot; style=&quot;box-sizing: border-box ; outline: none ; color: rgb(77 , 77 , 76)&quot;&gt; &lt;/span&gt;&lt;/code&gt;&lt;/li&gt;&lt;li class=&quot;L2&quot; style=&quot;box-sizing: border-box ; outline: none ; border-left: 1px solid rgb(238 , 238 , 238) ; padding-left: 10px ; color: rgb(221 , 221 , 221)&quot;&gt;&lt;code style=&quot;box-sizing: border-box; outline: none; font-family: &amp;quot;source code pro&amp;quot;, monospace; font-size: inherit; padding: 0px; color: inherit; background: transparent; border-radius: 0px; border: none; margin: 0px;&quot;&gt;&lt;span class=&quot;pln&quot; style=&quot;box-sizing: border-box ; outline: none ; color: rgb(77 , 77 , 76)&quot;&gt;      &lt;/span&gt;&lt;span class=&quot;str&quot; style=&quot;box-sizing: border-box ; outline: none ; color: rgb(113 , 140 , 0)&quot;&gt;&#39;name3&#39;&lt;/span&gt;&lt;span class=&quot;pun&quot; style=&quot;box-sizing: border-box ; outline: none ; color: rgb(77 , 77 , 76)&quot;&gt;:&lt;/span&gt;&lt;span class=&quot;pln&quot; style=&quot;box-sizing: border-box ; outline: none ; color: rgb(77 , 77 , 76)&quot;&gt; &lt;/span&gt;&lt;span class=&quot;pun&quot; style=&quot;box-sizing: border-box ; outline: none ; color: rgb(77 , 77 , 76)&quot;&gt;[&lt;/span&gt;&lt;span class=&quot;lit&quot; style=&quot;box-sizing: border-box ; outline: none ; color: rgb(245 , 135 , 31)&quot;&gt;1&lt;/span&gt;&lt;span class=&quot;pun&quot; style=&quot;box-sizing: border-box ; outline: none ; color: rgb(77 , 77 , 76)&quot;&gt;,&lt;/span&gt;&lt;span class=&quot;lit&quot; style=&quot;box-sizing: border-box ; outline: none ; color: rgb(245 , 135 , 31)&quot;&gt;2&lt;/span&gt;&lt;span class=&quot;pun&quot; style=&quot;box-sizing: border-box ; outline: none ; color: rgb(77 , 77 , 76)&quot;&gt;],&lt;/span&gt;&lt;/code&gt;&lt;/li&gt;&lt;li class=&quot;L3&quot; style=&quot;box-sizing: border-box ; outline: none ; border-left: 1px solid rgb(238 , 238 , 238) ; padding-left: 10px ; color: rgb(221 , 221 , 221)&quot;&gt;&lt;code style=&quot;box-sizing: border-box; outline: none; font-family: &amp;quot;source code pro&amp;quot;, monospace; font-size: inherit; padding: 0px; color: inherit; background: transparent; border-radius: 0px; border: none; margin: 0px;&quot;&gt;&lt;span class=&quot;pln&quot; style=&quot;box-sizing: border-box ; outline: none ; color: rgb(77 , 77 , 76)&quot;&gt;      &lt;/span&gt;&lt;span class=&quot;str&quot; style=&quot;box-sizing: border-box ; outline: none ; color: rgb(113 , 140 , 0)&quot;&gt;&#39;StructuredToParameterName@@&#39;&lt;/span&gt;&lt;span class=&quot;pun&quot; style=&quot;box-sizing: border-box ; outline: none ; color: rgb(77 , 77 , 76)&quot;&gt;:{&lt;/span&gt;&lt;span class=&quot;str&quot; style=&quot;box-sizing: border-box ; outline: none ; color: rgb(113 , 140 , 0)&quot;&gt;&#39;name1&#39;&lt;/span&gt;&lt;span class=&quot;pun&quot; style=&quot;box-sizing: border-box ; outline: none ; color: rgb(77 , 77 , 76)&quot;&gt;:&lt;/span&gt;&lt;span class=&quot;typ&quot; style=&quot;box-sizing: border-box ; outline: none ; color: rgb(66 , 113 , 174)&quot;&gt;Tensor1&lt;/span&gt;&lt;span class=&quot;pun&quot; style=&quot;box-sizing: border-box ; outline: none ; color: rgb(77 , 77 , 76)&quot;&gt;.&lt;/span&gt;&lt;span class=&quot;pln&quot; style=&quot;box-sizing: border-box ; outline: none ; color: rgb(77 , 77 , 76)&quot;&gt;name&lt;/span&gt;&lt;span class=&quot;pun&quot; style=&quot;box-sizing: border-box ; outline: none ; color: rgb(77 , 77 , 76)&quot;&gt;,&lt;/span&gt;&lt;span class=&quot;pln&quot; style=&quot;box-sizing: border-box ; outline: none ; color: rgb(77 , 77 , 76)&quot;&gt; &lt;/span&gt;&lt;/code&gt;&lt;/li&gt;&lt;li class=&quot;L4&quot; style=&quot;box-sizing: border-box ; outline: none ; border-left: 1px solid rgb(238 , 238 , 238) ; padding-left: 10px ; color: rgb(221 , 221 , 221) ; background-color: rgb(250 , 250 , 250)&quot;&gt;&lt;code style=&quot;box-sizing: border-box; outline: none; font-family: &amp;quot;source code pro&amp;quot;, monospace; font-size: inherit; padding: 0px; color: inherit; background: transparent; border-radius: 0px; border: none; margin: 0px;&quot;&gt;&lt;span class=&quot;pln&quot; style=&quot;box-sizing: border-box ; outline: none ; color: rgb(77 , 77 , 76)&quot;&gt;                                     &lt;/span&gt;&lt;span class=&quot;str&quot; style=&quot;box-sizing: border-box ; outline: none ; color: rgb(113 , 140 , 0)&quot;&gt;&#39;name2&#39;&lt;/span&gt;&lt;span class=&quot;pun&quot; style=&quot;box-sizing: border-box ; outline: none ; color: rgb(77 , 77 , 76)&quot;&gt;:&lt;/span&gt;&lt;span class=&quot;typ&quot; style=&quot;box-sizing: border-box ; outline: none ; color: rgb(66 , 113 , 174)&quot;&gt;Tensor2&lt;/span&gt;&lt;span class=&quot;pun&quot; style=&quot;box-sizing: border-box ; outline: none ; color: rgb(77 , 77 , 76)&quot;&gt;.&lt;/span&gt;&lt;span class=&quot;pln&quot; style=&quot;box-sizing: border-box ; outline: none ; color: rgb(77 , 77 , 76)&quot;&gt;name &lt;/span&gt;&lt;span class=&quot;pun&quot; style=&quot;box-sizing: border-box ; outline: none ; color: rgb(77 , 77 , 76)&quot;&gt;}}&lt;/span&gt;&lt;/code&gt;&lt;/li&gt;&lt;/ol&gt;" style="text;whiteSpace=wrap;html=1;fillColor=#f5f5f5;strokeColor=#666666;fontColor=#333333;" vertex="1" parent="1">
          <mxGeometry x="750" y="1110" width="440" height="80" as="geometry" />
        </mxCell>
        <mxCell id="kWca1h-Ah_QSKacg4VAW-7" value="&lt;meta charset=&quot;utf-8&quot;&gt;&lt;ol class=&quot;linenums&quot; style=&quot;box-sizing: border-box; outline: none; margin-top: 0px; margin-bottom: 0px; color: rgb(51, 51, 51); font-family: menlo, &amp;quot;bitstream vera sans mono&amp;quot;, &amp;quot;dejavu sans mono&amp;quot;, monaco, consolas, monospace; font-size: 12px; font-style: normal; font-weight: 400; letter-spacing: normal; text-align: left; text-indent: 0px; text-transform: none; word-spacing: 0px;&quot;&gt;&lt;li class=&quot;L1&quot; style=&quot;box-sizing: border-box ; outline: none ; border-left: 1px solid rgb(238 , 238 , 238) ; padding-left: 10px ; color: rgb(221 , 221 , 221)&quot;&gt;&lt;code style=&quot;box-sizing: border-box; outline: none; font-family: &amp;quot;source code pro&amp;quot;, monospace; font-size: inherit; padding: 0px; color: inherit; background: transparent; border-radius: 0px; border: none; margin: 0px;&quot;&gt;&lt;span class=&quot;pln&quot; style=&quot;box-sizing: border-box ; outline: none ; color: rgb(77 , 77 , 76)&quot;&gt;obj3&lt;/span&gt;&lt;span class=&quot;pun&quot; style=&quot;box-sizing: border-box ; outline: none ; color: rgb(77 , 77 , 76)&quot;&gt;={&lt;/span&gt;&lt;span class=&quot;str&quot; style=&quot;box-sizing: border-box ; outline: none ; color: rgb(113 , 140 , 0)&quot;&gt;&#39;name1&#39;&lt;/span&gt;&lt;span class=&quot;pun&quot; style=&quot;box-sizing: border-box ; outline: none ; color: rgb(77 , 77 , 76)&quot;&gt;:&lt;/span&gt;&lt;span class=&quot;pln&quot; style=&quot;box-sizing: border-box ; outline: none ; color: rgb(77 , 77 , 76)&quot;&gt; &lt;/span&gt;&lt;span class=&quot;pun&quot; style=&quot;box-sizing: border-box ; outline: none ; color: rgb(77 , 77 , 76)&quot;&gt;(&lt;/span&gt;&lt;span class=&quot;typ&quot; style=&quot;box-sizing: border-box ; outline: none ; color: rgb(66 , 113 , 174)&quot;&gt;Tensor1&lt;/span&gt;&lt;span class=&quot;pun&quot; style=&quot;box-sizing: border-box ; outline: none ; color: rgb(77 , 77 , 76)&quot;&gt;.&lt;/span&gt;&lt;span class=&quot;pln&quot; style=&quot;box-sizing: border-box ; outline: none ; color: rgb(77 , 77 , 76)&quot;&gt;name&lt;/span&gt;&lt;span class=&quot;pun&quot; style=&quot;box-sizing: border-box ; outline: none ; color: rgb(77 , 77 , 76)&quot;&gt;,&lt;/span&gt;&lt;span class=&quot;pln&quot; style=&quot;box-sizing: border-box ; outline: none ; color: rgb(77 , 77 , 76)&quot;&gt; ndarray1&lt;/span&gt;&lt;span class=&quot;pun&quot; style=&quot;box-sizing: border-box ; outline: none ; color: rgb(77 , 77 , 76)&quot;&gt;),&lt;/span&gt;&lt;span class=&quot;pln&quot; style=&quot;box-sizing: border-box ; outline: none ; color: rgb(77 , 77 , 76)&quot;&gt; &lt;/span&gt;&lt;/code&gt;&lt;/li&gt;&lt;li class=&quot;L2&quot; style=&quot;box-sizing: border-box ; outline: none ; border-left: 1px solid rgb(238 , 238 , 238) ; padding-left: 10px ; color: rgb(221 , 221 , 221)&quot;&gt;&lt;code style=&quot;box-sizing: border-box; outline: none; font-family: &amp;quot;source code pro&amp;quot;, monospace; font-size: inherit; padding: 0px; color: inherit; background: transparent; border-radius: 0px; border: none; margin: 0px;&quot;&gt;&lt;span class=&quot;pln&quot; style=&quot;box-sizing: border-box ; outline: none ; color: rgb(77 , 77 , 76)&quot;&gt;      &lt;/span&gt;&lt;span class=&quot;str&quot; style=&quot;box-sizing: border-box ; outline: none ; color: rgb(113 , 140 , 0)&quot;&gt;&#39;name2&#39;&lt;/span&gt;&lt;span class=&quot;pun&quot; style=&quot;box-sizing: border-box ; outline: none ; color: rgb(77 , 77 , 76)&quot;&gt;:&lt;/span&gt;&lt;span class=&quot;pln&quot; style=&quot;box-sizing: border-box ; outline: none ; color: rgb(77 , 77 , 76)&quot;&gt; ndarray2&lt;/span&gt;&lt;span class=&quot;pun&quot; style=&quot;box-sizing: border-box ; outline: none ; color: rgb(77 , 77 , 76)&quot;&gt;,&lt;/span&gt;&lt;span class=&quot;pln&quot; style=&quot;box-sizing: border-box ; outline: none ; color: rgb(77 , 77 , 76)&quot;&gt; &lt;/span&gt;&lt;/code&gt;&lt;/li&gt;&lt;li class=&quot;L3&quot; style=&quot;box-sizing: border-box ; outline: none ; border-left: 1px solid rgb(238 , 238 , 238) ; padding-left: 10px ; color: rgb(221 , 221 , 221) ; background-color: rgb(250 , 250 , 250)&quot;&gt;&lt;code style=&quot;box-sizing: border-box; outline: none; font-family: &amp;quot;source code pro&amp;quot;, monospace; font-size: inherit; padding: 0px; color: inherit; background: transparent; border-radius: 0px; border: none; margin: 0px;&quot;&gt;&lt;span class=&quot;pln&quot; style=&quot;box-sizing: border-box ; outline: none ; color: rgb(77 , 77 , 76)&quot;&gt;      &lt;/span&gt;&lt;span class=&quot;str&quot; style=&quot;box-sizing: border-box ; outline: none ; color: rgb(113 , 140 , 0)&quot;&gt;&#39;name3&#39;&lt;/span&gt;&lt;span class=&quot;pun&quot; style=&quot;box-sizing: border-box ; outline: none ; color: rgb(77 , 77 , 76)&quot;&gt;:&lt;/span&gt;&lt;span class=&quot;pln&quot; style=&quot;box-sizing: border-box ; outline: none ; color: rgb(77 , 77 , 76)&quot;&gt; &lt;/span&gt;&lt;span class=&quot;pun&quot; style=&quot;box-sizing: border-box ; outline: none ; color: rgb(77 , 77 , 76)&quot;&gt;[&lt;/span&gt;&lt;span class=&quot;lit&quot; style=&quot;box-sizing: border-box ; outline: none ; color: rgb(245 , 135 , 31)&quot;&gt;1&lt;/span&gt;&lt;span class=&quot;pun&quot; style=&quot;box-sizing: border-box ; outline: none ; color: rgb(77 , 77 , 76)&quot;&gt;,(&lt;/span&gt;&lt;span class=&quot;typ&quot; style=&quot;box-sizing: border-box ; outline: none ; color: rgb(66 , 113 , 174)&quot;&gt;Tensor3&lt;/span&gt;&lt;span class=&quot;pun&quot; style=&quot;box-sizing: border-box ; outline: none ; color: rgb(77 , 77 , 76)&quot;&gt;.&lt;/span&gt;&lt;span class=&quot;pln&quot; style=&quot;box-sizing: border-box ; outline: none ; color: rgb(77 , 77 , 76)&quot;&gt;name&lt;/span&gt;&lt;span class=&quot;pun&quot; style=&quot;box-sizing: border-box ; outline: none ; color: rgb(77 , 77 , 76)&quot;&gt;,&lt;/span&gt;&lt;span class=&quot;pln&quot; style=&quot;box-sizing: border-box ; outline: none ; color: rgb(77 , 77 , 76)&quot;&gt; ndarray3&lt;/span&gt;&lt;span class=&quot;pun&quot; style=&quot;box-sizing: border-box ; outline: none ; color: rgb(77 , 77 , 76)&quot;&gt;)]}&lt;/span&gt;&lt;/code&gt;&lt;/li&gt;&lt;/ol&gt;" style="text;whiteSpace=wrap;html=1;fillColor=#f5f5f5;strokeColor=#666666;fontColor=#333333;" vertex="1" parent="1">
          <mxGeometry x="750" y="1520" width="440" height="60" as="geometry" />
        </mxCell>
        <mxCell id="kWca1h-Ah_QSKacg4VAW-8" value="&lt;meta charset=&quot;utf-8&quot;&gt;&lt;ol class=&quot;linenums&quot; style=&quot;box-sizing: border-box; outline: none; margin-top: 0px; margin-bottom: 0px; color: rgb(51, 51, 51); font-family: menlo, &amp;quot;bitstream vera sans mono&amp;quot;, &amp;quot;dejavu sans mono&amp;quot;, monaco, consolas, monospace; font-size: 12px; font-style: normal; font-weight: 400; letter-spacing: normal; text-align: left; text-indent: 0px; text-transform: none; word-spacing: 0px;&quot;&gt;&lt;li class=&quot;L6&quot; style=&quot;box-sizing: border-box ; outline: none ; border-left: 1px solid rgb(238 , 238 , 238) ; padding-left: 10px ; color: rgb(221 , 221 , 221) ; background-color: rgb(250 , 250 , 250)&quot;&gt;&lt;code style=&quot;box-sizing: border-box; outline: none; font-family: &amp;quot;source code pro&amp;quot;, monospace; font-size: inherit; padding: 0px; color: inherit; background: transparent; border-radius: 0px; border: none; margin: 0px;&quot;&gt;&lt;span class=&quot;pln&quot; style=&quot;box-sizing: border-box ; outline: none ; color: rgb(77 , 77 , 76)&quot;&gt;obj2&lt;/span&gt;&lt;span class=&quot;pun&quot; style=&quot;box-sizing: border-box ; outline: none ; color: rgb(77 , 77 , 76)&quot;&gt;={&lt;/span&gt;&lt;span class=&quot;str&quot; style=&quot;box-sizing: border-box ; outline: none ; color: rgb(113 , 140 , 0)&quot;&gt;&#39;name1&#39;&lt;/span&gt;&lt;span class=&quot;pun&quot; style=&quot;box-sizing: border-box ; outline: none ; color: rgb(77 , 77 , 76)&quot;&gt;:&lt;/span&gt;&lt;span class=&quot;pln&quot; style=&quot;box-sizing: border-box ; outline: none ; color: rgb(77 , 77 , 76)&quot;&gt; ndarray1&lt;/span&gt;&lt;span class=&quot;pun&quot; style=&quot;box-sizing: border-box ; outline: none ; color: rgb(77 , 77 , 76)&quot;&gt;,&lt;/span&gt;&lt;span class=&quot;pln&quot; style=&quot;box-sizing: border-box ; outline: none ; color: rgb(77 , 77 , 76)&quot;&gt; &lt;/span&gt;&lt;/code&gt;&lt;/li&gt;&lt;li class=&quot;L7&quot; style=&quot;box-sizing: border-box ; outline: none ; border-left: 1px solid rgb(238 , 238 , 238) ; padding-left: 10px ; color: rgb(221 , 221 , 221)&quot;&gt;&lt;code style=&quot;box-sizing: border-box; outline: none; font-family: &amp;quot;source code pro&amp;quot;, monospace; font-size: inherit; padding: 0px; color: inherit; background: transparent; border-radius: 0px; border: none; margin: 0px;&quot;&gt;&lt;span class=&quot;pln&quot; style=&quot;box-sizing: border-box ; outline: none ; color: rgb(77 , 77 , 76)&quot;&gt;      &lt;/span&gt;&lt;span class=&quot;str&quot; style=&quot;box-sizing: border-box ; outline: none ; color: rgb(113 , 140 , 0)&quot;&gt;&#39;name2&#39;&lt;/span&gt;&lt;span class=&quot;pun&quot; style=&quot;box-sizing: border-box ; outline: none ; color: rgb(77 , 77 , 76)&quot;&gt;:&lt;/span&gt;&lt;span class=&quot;pln&quot; style=&quot;box-sizing: border-box ; outline: none ; color: rgb(77 , 77 , 76)&quot;&gt; ndarray2&lt;/span&gt;&lt;span class=&quot;pun&quot; style=&quot;box-sizing: border-box ; outline: none ; color: rgb(77 , 77 , 76)&quot;&gt;,&lt;/span&gt;&lt;span class=&quot;pln&quot; style=&quot;box-sizing: border-box ; outline: none ; color: rgb(77 , 77 , 76)&quot;&gt; &lt;/span&gt;&lt;/code&gt;&lt;/li&gt;&lt;li class=&quot;L8&quot; style=&quot;box-sizing: border-box ; outline: none ; border-left: 1px solid rgb(238 , 238 , 238) ; padding-left: 10px ; color: rgb(221 , 221 , 221)&quot;&gt;&lt;code style=&quot;box-sizing: border-box; outline: none; font-family: &amp;quot;source code pro&amp;quot;, monospace; font-size: inherit; padding: 0px; color: inherit; background: transparent; border-radius: 0px; border: none; margin: 0px;&quot;&gt;&lt;span class=&quot;pln&quot; style=&quot;box-sizing: border-box ; outline: none ; color: rgb(77 , 77 , 76)&quot;&gt;      &lt;/span&gt;&lt;span class=&quot;str&quot; style=&quot;box-sizing: border-box ; outline: none ; color: rgb(113 , 140 , 0)&quot;&gt;&#39;name3&#39;&lt;/span&gt;&lt;span class=&quot;pun&quot; style=&quot;box-sizing: border-box ; outline: none ; color: rgb(77 , 77 , 76)&quot;&gt;:&lt;/span&gt;&lt;span class=&quot;pln&quot; style=&quot;box-sizing: border-box ; outline: none ; color: rgb(77 , 77 , 76)&quot;&gt; &lt;/span&gt;&lt;span class=&quot;pun&quot; style=&quot;box-sizing: border-box ; outline: none ; color: rgb(77 , 77 , 76)&quot;&gt;[&lt;/span&gt;&lt;span class=&quot;lit&quot; style=&quot;box-sizing: border-box ; outline: none ; color: rgb(245 , 135 , 31)&quot;&gt;1&lt;/span&gt;&lt;span class=&quot;pun&quot; style=&quot;box-sizing: border-box ; outline: none ; color: rgb(77 , 77 , 76)&quot;&gt;,&lt;/span&gt;&lt;span class=&quot;lit&quot; style=&quot;box-sizing: border-box ; outline: none ; color: rgb(245 , 135 , 31)&quot;&gt;2&lt;/span&gt;&lt;span class=&quot;pun&quot; style=&quot;box-sizing: border-box ; outline: none ; color: rgb(77 , 77 , 76)&quot;&gt;],&lt;/span&gt;&lt;span class=&quot;pln&quot; style=&quot;box-sizing: border-box ; outline: none ; color: rgb(77 , 77 , 76)&quot;&gt; &lt;/span&gt;&lt;/code&gt;&lt;/li&gt;&lt;li class=&quot;L9&quot; style=&quot;box-sizing: border-box ; outline: none ; border-left: 1px solid rgb(238 , 238 , 238) ; padding-left: 10px ; color: rgb(221 , 221 , 221)&quot;&gt;&lt;code style=&quot;box-sizing: border-box; outline: none; font-family: &amp;quot;source code pro&amp;quot;, monospace; font-size: inherit; padding: 0px; color: inherit; background: transparent; border-radius: 0px; border: none; margin: 0px;&quot;&gt;&lt;span class=&quot;pln&quot; style=&quot;box-sizing: border-box ; outline: none ; color: rgb(77 , 77 , 76)&quot;&gt;      &lt;/span&gt;&lt;span class=&quot;str&quot; style=&quot;box-sizing: border-box ; outline: none ; color: rgb(113 , 140 , 0)&quot;&gt;&#39;StructuredToParameterName@@&#39;&lt;/span&gt;&lt;span class=&quot;pun&quot; style=&quot;box-sizing: border-box ; outline: none ; color: rgb(77 , 77 , 76)&quot;&gt;:{&lt;/span&gt;&lt;span class=&quot;str&quot; style=&quot;box-sizing: border-box ; outline: none ; color: rgb(113 , 140 , 0)&quot;&gt;&#39;name1&#39;&lt;/span&gt;&lt;span class=&quot;pun&quot; style=&quot;box-sizing: border-box ; outline: none ; color: rgb(77 , 77 , 76)&quot;&gt;:&lt;/span&gt;&lt;span class=&quot;typ&quot; style=&quot;box-sizing: border-box ; outline: none ; color: rgb(66 , 113 , 174)&quot;&gt;Tensor1&lt;/span&gt;&lt;span class=&quot;pun&quot; style=&quot;box-sizing: border-box ; outline: none ; color: rgb(77 , 77 , 76)&quot;&gt;.&lt;/span&gt;&lt;span class=&quot;pln&quot; style=&quot;box-sizing: border-box ; outline: none ; color: rgb(77 , 77 , 76)&quot;&gt;name&lt;/span&gt;&lt;span class=&quot;pun&quot; style=&quot;box-sizing: border-box ; outline: none ; color: rgb(77 , 77 , 76)&quot;&gt;}}&lt;/span&gt;&lt;/code&gt;&lt;/li&gt;&lt;/ol&gt;" style="text;whiteSpace=wrap;html=1;fillColor=#f5f5f5;strokeColor=#666666;fontColor=#333333;" vertex="1" parent="1">
          <mxGeometry x="750" y="1365" width="440" height="70" as="geometry" />
        </mxCell>
        <mxCell id="kWca1h-Ah_QSKacg4VAW-9" value="&lt;meta charset=&quot;utf-8&quot;&gt;&lt;ol class=&quot;linenums&quot; style=&quot;box-sizing: border-box; outline: none; margin-top: 0px; margin-bottom: 0px; color: rgb(51, 51, 51); font-family: menlo, &amp;quot;bitstream vera sans mono&amp;quot;, &amp;quot;dejavu sans mono&amp;quot;, monaco, consolas, monospace; font-size: 12px; font-style: normal; font-weight: 400; letter-spacing: normal; text-align: left; text-indent: 0px; text-transform: none; word-spacing: 0px;&quot;&gt;&lt;li class=&quot;L0&quot; style=&quot;box-sizing: border-box ; outline: none ; border-left: 1px solid rgb(238 , 238 , 238) ; padding-left: 10px ; color: rgb(221 , 221 , 221)&quot;&gt;&lt;code style=&quot;box-sizing: border-box; outline: none; font-family: &amp;quot;source code pro&amp;quot;, monospace; font-size: inherit; padding: 0px; color: inherit; background: transparent; border-radius: 0px; border: none; margin: 0px;&quot;&gt;&lt;span class=&quot;pln&quot; style=&quot;box-sizing: border-box ; outline: none ; color: rgb(77 , 77 , 76)&quot;&gt;obj1&lt;/span&gt;&lt;span class=&quot;pun&quot; style=&quot;box-sizing: border-box ; outline: none ; color: rgb(77 , 77 , 76)&quot;&gt;={&lt;/span&gt;&lt;span class=&quot;str&quot; style=&quot;box-sizing: border-box ; outline: none ; color: rgb(113 , 140 , 0)&quot;&gt;&#39;name1&#39;&lt;/span&gt;&lt;span class=&quot;pun&quot; style=&quot;box-sizing: border-box ; outline: none ; color: rgb(77 , 77 , 76)&quot;&gt;:&lt;/span&gt;&lt;span class=&quot;pln&quot; style=&quot;box-sizing: border-box ; outline: none ; color: rgb(77 , 77 , 76)&quot;&gt; ndarray1&lt;/span&gt;&lt;span class=&quot;pun&quot; style=&quot;box-sizing: border-box ; outline: none ; color: rgb(77 , 77 , 76)&quot;&gt;,&lt;/span&gt;&lt;span class=&quot;pln&quot; style=&quot;box-sizing: border-box ; outline: none ; color: rgb(77 , 77 , 76)&quot;&gt; &lt;/span&gt;&lt;/code&gt;&lt;/li&gt;&lt;li class=&quot;L1&quot; style=&quot;box-sizing: border-box ; outline: none ; border-left: 1px solid rgb(238 , 238 , 238) ; padding-left: 10px ; color: rgb(221 , 221 , 221)&quot;&gt;&lt;code style=&quot;box-sizing: border-box; outline: none; font-family: &amp;quot;source code pro&amp;quot;, monospace; font-size: inherit; padding: 0px; color: inherit; background: transparent; border-radius: 0px; border: none; margin: 0px;&quot;&gt;&lt;span class=&quot;pln&quot; style=&quot;box-sizing: border-box ; outline: none ; color: rgb(77 , 77 , 76)&quot;&gt;      &lt;/span&gt;&lt;span class=&quot;str&quot; style=&quot;box-sizing: border-box ; outline: none ; color: rgb(113 , 140 , 0)&quot;&gt;&#39;name2&#39;&lt;/span&gt;&lt;span class=&quot;pun&quot; style=&quot;box-sizing: border-box ; outline: none ; color: rgb(77 , 77 , 76)&quot;&gt;:&lt;/span&gt;&lt;span class=&quot;pln&quot; style=&quot;box-sizing: border-box ; outline: none ; color: rgb(77 , 77 , 76)&quot;&gt; ndarray2&lt;/span&gt;&lt;span class=&quot;pun&quot; style=&quot;box-sizing: border-box ; outline: none ; color: rgb(77 , 77 , 76)&quot;&gt;,&lt;/span&gt;&lt;span class=&quot;pln&quot; style=&quot;box-sizing: border-box ; outline: none ; color: rgb(77 , 77 , 76)&quot;&gt; &lt;/span&gt;&lt;/code&gt;&lt;/li&gt;&lt;li class=&quot;L2&quot; style=&quot;box-sizing: border-box ; outline: none ; border-left: 1px solid rgb(238 , 238 , 238) ; padding-left: 10px ; color: rgb(221 , 221 , 221)&quot;&gt;&lt;code style=&quot;box-sizing: border-box; outline: none; font-family: &amp;quot;source code pro&amp;quot;, monospace; font-size: inherit; padding: 0px; color: inherit; background: transparent; border-radius: 0px; border: none; margin: 0px;&quot;&gt;&lt;span class=&quot;pln&quot; style=&quot;box-sizing: border-box ; outline: none ; color: rgb(77 , 77 , 76)&quot;&gt;      &lt;/span&gt;&lt;span class=&quot;str&quot; style=&quot;box-sizing: border-box ; outline: none ; color: rgb(113 , 140 , 0)&quot;&gt;&#39;name3&#39;&lt;/span&gt;&lt;span class=&quot;pun&quot; style=&quot;box-sizing: border-box ; outline: none ; color: rgb(77 , 77 , 76)&quot;&gt;:&lt;/span&gt;&lt;span class=&quot;pln&quot; style=&quot;box-sizing: border-box ; outline: none ; color: rgb(77 , 77 , 76)&quot;&gt; &lt;/span&gt;&lt;span class=&quot;pun&quot; style=&quot;box-sizing: border-box ; outline: none ; color: rgb(77 , 77 , 76)&quot;&gt;[&lt;/span&gt;&lt;span class=&quot;lit&quot; style=&quot;box-sizing: border-box ; outline: none ; color: rgb(245 , 135 , 31)&quot;&gt;1&lt;/span&gt;&lt;span class=&quot;pun&quot; style=&quot;box-sizing: border-box ; outline: none ; color: rgb(77 , 77 , 76)&quot;&gt;,&lt;/span&gt;&lt;span class=&quot;lit&quot; style=&quot;box-sizing: border-box ; outline: none ; color: rgb(245 , 135 , 31)&quot;&gt;2&lt;/span&gt;&lt;span class=&quot;pun&quot; style=&quot;box-sizing: border-box ; outline: none ; color: rgb(77 , 77 , 76)&quot;&gt;]&lt;/span&gt;&lt;span class=&quot;pln&quot; style=&quot;box-sizing: border-box ; outline: none ; color: rgb(77 , 77 , 76)&quot;&gt; &lt;/span&gt;&lt;span class=&quot;pun&quot; style=&quot;box-sizing: border-box ; outline: none ; color: rgb(77 , 77 , 76)&quot;&gt;}&lt;/span&gt;&lt;/code&gt;&lt;/li&gt;&lt;/ol&gt;" style="text;whiteSpace=wrap;html=1;fillColor=#f5f5f5;strokeColor=#666666;fontColor=#333333;" vertex="1" parent="1">
          <mxGeometry x="750" y="1250" width="440" height="60" as="geometry" />
        </mxCell>
        <mxCell id="kWca1h-Ah_QSKacg4VAW-10" value="&lt;meta charset=&quot;utf-8&quot;&gt;&lt;ol class=&quot;linenums&quot; style=&quot;box-sizing: border-box; outline: none; margin-top: 0px; margin-bottom: 0px; color: rgb(51, 51, 51); font-family: menlo, &amp;quot;bitstream vera sans mono&amp;quot;, &amp;quot;dejavu sans mono&amp;quot;, monaco, consolas, monospace; font-size: 12px; font-style: normal; font-weight: 400; letter-spacing: normal; text-align: left; text-indent: 0px; text-transform: none; word-spacing: 0px;&quot;&gt;&lt;li class=&quot;L0&quot; style=&quot;box-sizing: border-box ; outline: none ; border-left: 1px solid rgb(238 , 238 , 238) ; padding-left: 10px ; color: rgb(221 , 221 , 221)&quot;&gt;&lt;code style=&quot;box-sizing: border-box; outline: none; font-family: &amp;quot;source code pro&amp;quot;, monospace; font-size: inherit; padding: 0px; color: inherit; background: transparent; border-radius: 0px; border: none; margin: 0px;&quot;&gt;&lt;span class=&quot;pln&quot; style=&quot;box-sizing: border-box ; outline: none ; color: rgb(77 , 77 , 76)&quot;&gt;obj1&lt;/span&gt;&lt;span class=&quot;pun&quot; style=&quot;box-sizing: border-box ; outline: none ; color: rgb(77 , 77 , 76)&quot;&gt;={&lt;/span&gt;&lt;span class=&quot;str&quot; style=&quot;box-sizing: border-box ; outline: none ; color: rgb(113 , 140 , 0)&quot;&gt;&#39;name1&#39;&lt;/span&gt;&lt;span class=&quot;pun&quot; style=&quot;box-sizing: border-box ; outline: none ; color: rgb(77 , 77 , 76)&quot;&gt;:&lt;/span&gt;&lt;span class=&quot;pln&quot; style=&quot;box-sizing: border-box ; outline: none ; color: rgb(77 , 77 , 76)&quot;&gt; ndarray1&lt;/span&gt;&lt;span class=&quot;pun&quot; style=&quot;box-sizing: border-box ; outline: none ; color: rgb(77 , 77 , 76)&quot;&gt;,&lt;/span&gt;&lt;span class=&quot;pln&quot; style=&quot;box-sizing: border-box ; outline: none ; color: rgb(77 , 77 , 76)&quot;&gt; &lt;/span&gt;&lt;/code&gt;&lt;/li&gt;&lt;li class=&quot;L1&quot; style=&quot;box-sizing: border-box ; outline: none ; border-left: 1px solid rgb(238 , 238 , 238) ; padding-left: 10px ; color: rgb(221 , 221 , 221)&quot;&gt;&lt;code style=&quot;box-sizing: border-box; outline: none; font-family: &amp;quot;source code pro&amp;quot;, monospace; font-size: inherit; padding: 0px; color: inherit; background: transparent; border-radius: 0px; border: none; margin: 0px;&quot;&gt;&lt;span class=&quot;pln&quot; style=&quot;box-sizing: border-box ; outline: none ; color: rgb(77 , 77 , 76)&quot;&gt;      &lt;/span&gt;&lt;span class=&quot;str&quot; style=&quot;box-sizing: border-box ; outline: none ; color: rgb(113 , 140 , 0)&quot;&gt;&#39;name2&#39;&lt;/span&gt;&lt;span class=&quot;pun&quot; style=&quot;box-sizing: border-box ; outline: none ; color: rgb(77 , 77 , 76)&quot;&gt;:&lt;/span&gt;&lt;span class=&quot;pln&quot; style=&quot;box-sizing: border-box ; outline: none ; color: rgb(77 , 77 , 76)&quot;&gt; ndarray2&lt;/span&gt;&lt;span class=&quot;pun&quot; style=&quot;box-sizing: border-box ; outline: none ; color: rgb(77 , 77 , 76)&quot;&gt;,&lt;/span&gt;&lt;span class=&quot;pln&quot; style=&quot;box-sizing: border-box ; outline: none ; color: rgb(77 , 77 , 76)&quot;&gt; &lt;/span&gt;&lt;/code&gt;&lt;/li&gt;&lt;li class=&quot;L2&quot; style=&quot;box-sizing: border-box ; outline: none ; border-left: 1px solid rgb(238 , 238 , 238) ; padding-left: 10px ; color: rgb(221 , 221 , 221)&quot;&gt;&lt;code style=&quot;box-sizing: border-box; outline: none; font-family: &amp;quot;source code pro&amp;quot;, monospace; font-size: inherit; padding: 0px; color: inherit; background: transparent; border-radius: 0px; border: none; margin: 0px;&quot;&gt;&lt;span class=&quot;pln&quot; style=&quot;box-sizing: border-box ; outline: none ; color: rgb(77 , 77 , 76)&quot;&gt;      &lt;/span&gt;&lt;span class=&quot;str&quot; style=&quot;box-sizing: border-box ; outline: none ; color: rgb(113 , 140 , 0)&quot;&gt;&#39;name3&#39;&lt;/span&gt;&lt;span class=&quot;pun&quot; style=&quot;box-sizing: border-box ; outline: none ; color: rgb(77 , 77 , 76)&quot;&gt;:&lt;/span&gt;&lt;span class=&quot;pln&quot; style=&quot;box-sizing: border-box ; outline: none ; color: rgb(77 , 77 , 76)&quot;&gt; &lt;/span&gt;&lt;span class=&quot;pun&quot; style=&quot;box-sizing: border-box ; outline: none ; color: rgb(77 , 77 , 76)&quot;&gt;[&lt;/span&gt;&lt;span class=&quot;lit&quot; style=&quot;box-sizing: border-box ; outline: none ; color: rgb(245 , 135 , 31)&quot;&gt;1&lt;/span&gt;&lt;span class=&quot;pun&quot; style=&quot;box-sizing: border-box ; outline: none ; color: rgb(77 , 77 , 76)&quot;&gt;,&lt;/span&gt;&lt;span class=&quot;lit&quot; style=&quot;box-sizing: border-box ; outline: none ; color: rgb(245 , 135 , 31)&quot;&gt;2&lt;/span&gt;&lt;span class=&quot;pun&quot; style=&quot;box-sizing: border-box ; outline: none ; color: rgb(77 , 77 , 76)&quot;&gt;],}&lt;/span&gt;&lt;/code&gt;&lt;/li&gt;&lt;/ol&gt;" style="text;whiteSpace=wrap;html=1;fillColor=#f5f5f5;strokeColor=#666666;fontColor=#333333;" vertex="1" parent="1">
          <mxGeometry x="1420" y="1080" width="250" height="60" as="geometry" />
        </mxCell>
        <mxCell id="kWca1h-Ah_QSKacg4VAW-11" value="&lt;meta charset=&quot;utf-8&quot;&gt;&lt;ol class=&quot;linenums&quot; style=&quot;box-sizing: border-box; outline: none; margin-top: 0px; margin-bottom: 0px; color: rgb(51, 51, 51); font-family: menlo, &amp;quot;bitstream vera sans mono&amp;quot;, &amp;quot;dejavu sans mono&amp;quot;, monaco, consolas, monospace; font-size: 12px; font-style: normal; font-weight: 400; letter-spacing: normal; text-align: left; text-indent: 0px; text-transform: none; word-spacing: 0px;&quot;&gt;&lt;li class=&quot;L8&quot; style=&quot;box-sizing: border-box ; outline: none ; border-left: 1px solid rgb(238 , 238 , 238) ; padding-left: 10px ; color: rgb(221 , 221 , 221)&quot;&gt;&lt;code style=&quot;box-sizing: border-box; outline: none; font-family: &amp;quot;source code pro&amp;quot;, monospace; font-size: inherit; padding: 0px; color: inherit; background: transparent; border-radius: 0px; border: none; margin: 0px;&quot;&gt;&lt;span class=&quot;pln&quot; style=&quot;box-sizing: border-box ; outline: none ; color: rgb(77 , 77 , 76)&quot;&gt;obj3&lt;/span&gt;&lt;span class=&quot;pun&quot; style=&quot;box-sizing: border-box ; outline: none ; color: rgb(77 , 77 , 76)&quot;&gt;={&lt;/span&gt;&lt;span class=&quot;str&quot; style=&quot;box-sizing: border-box ; outline: none ; color: rgb(113 , 140 , 0)&quot;&gt;&#39;name1&#39;&lt;/span&gt;&lt;span class=&quot;pun&quot; style=&quot;box-sizing: border-box ; outline: none ; color: rgb(77 , 77 , 76)&quot;&gt;:&lt;/span&gt;&lt;span class=&quot;pln&quot; style=&quot;box-sizing: border-box ; outline: none ; color: rgb(77 , 77 , 76)&quot;&gt;  ndarray1&lt;/span&gt;&lt;span class=&quot;pun&quot; style=&quot;box-sizing: border-box ; outline: none ; color: rgb(77 , 77 , 76)&quot;&gt;,&lt;/span&gt;&lt;span class=&quot;pln&quot; style=&quot;box-sizing: border-box ; outline: none ; color: rgb(77 , 77 , 76)&quot;&gt; &lt;/span&gt;&lt;/code&gt;&lt;/li&gt;&lt;li class=&quot;L9&quot; style=&quot;box-sizing: border-box ; outline: none ; border-left: 1px solid rgb(238 , 238 , 238) ; padding-left: 10px ; color: rgb(221 , 221 , 221)&quot;&gt;&lt;code style=&quot;box-sizing: border-box; outline: none; font-family: &amp;quot;source code pro&amp;quot;, monospace; font-size: inherit; padding: 0px; color: inherit; background: transparent; border-radius: 0px; border: none; margin: 0px;&quot;&gt;&lt;span class=&quot;pln&quot; style=&quot;box-sizing: border-box ; outline: none ; color: rgb(77 , 77 , 76)&quot;&gt;      &lt;/span&gt;&lt;span class=&quot;str&quot; style=&quot;box-sizing: border-box ; outline: none ; color: rgb(113 , 140 , 0)&quot;&gt;&#39;name2&#39;&lt;/span&gt;&lt;span class=&quot;pun&quot; style=&quot;box-sizing: border-box ; outline: none ; color: rgb(77 , 77 , 76)&quot;&gt;:&lt;/span&gt;&lt;span class=&quot;pln&quot; style=&quot;box-sizing: border-box ; outline: none ; color: rgb(77 , 77 , 76)&quot;&gt; ndarray2&lt;/span&gt;&lt;span class=&quot;pun&quot; style=&quot;box-sizing: border-box ; outline: none ; color: rgb(77 , 77 , 76)&quot;&gt;,&lt;/span&gt;&lt;span class=&quot;pln&quot; style=&quot;box-sizing: border-box ; outline: none ; color: rgb(77 , 77 , 76)&quot;&gt; &lt;/span&gt;&lt;/code&gt;&lt;/li&gt;&lt;li class=&quot;L0&quot; style=&quot;box-sizing: border-box ; outline: none ; border-left: 1px solid rgb(238 , 238 , 238) ; padding-left: 10px ; color: rgb(221 , 221 , 221)&quot;&gt;&lt;code style=&quot;box-sizing: border-box; outline: none; font-family: &amp;quot;source code pro&amp;quot;, monospace; font-size: inherit; padding: 0px; color: inherit; background: transparent; border-radius: 0px; border: none; margin: 0px;&quot;&gt;&lt;span class=&quot;pln&quot; style=&quot;box-sizing: border-box ; outline: none ; color: rgb(77 , 77 , 76)&quot;&gt;      &lt;/span&gt;&lt;span class=&quot;str&quot; style=&quot;box-sizing: border-box ; outline: none ; color: rgb(113 , 140 , 0)&quot;&gt;&#39;name3&#39;&lt;/span&gt;&lt;span class=&quot;pun&quot; style=&quot;box-sizing: border-box ; outline: none ; color: rgb(77 , 77 , 76)&quot;&gt;:&lt;/span&gt;&lt;span class=&quot;pln&quot; style=&quot;box-sizing: border-box ; outline: none ; color: rgb(77 , 77 , 76)&quot;&gt; &lt;/span&gt;&lt;span class=&quot;pun&quot; style=&quot;box-sizing: border-box ; outline: none ; color: rgb(77 , 77 , 76)&quot;&gt;[&lt;/span&gt;&lt;span class=&quot;lit&quot; style=&quot;box-sizing: border-box ; outline: none ; color: rgb(245 , 135 , 31)&quot;&gt;1&lt;/span&gt;&lt;span class=&quot;pun&quot; style=&quot;box-sizing: border-box ; outline: none ; color: rgb(77 , 77 , 76)&quot;&gt;,&lt;/span&gt;&lt;span class=&quot;pln&quot; style=&quot;box-sizing: border-box ; outline: none ; color: rgb(77 , 77 , 76)&quot;&gt; ndarray3&lt;/span&gt;&lt;span class=&quot;pun&quot; style=&quot;box-sizing: border-box ; outline: none ; color: rgb(77 , 77 , 76)&quot;&gt;]}&lt;/span&gt;&lt;/code&gt;&lt;/li&gt;&lt;/ol&gt;" style="text;whiteSpace=wrap;html=1;fillColor=#f5f5f5;strokeColor=#666666;fontColor=#333333;" vertex="1" parent="1">
          <mxGeometry x="1420" y="1220" width="250" height="60" as="geometry" />
        </mxCell>
        <mxCell id="kWca1h-Ah_QSKacg4VAW-12" value="&lt;meta charset=&quot;utf-8&quot;&gt;&lt;ol class=&quot;linenums&quot; style=&quot;box-sizing: border-box; outline: none; margin-top: 0px; margin-bottom: 0px; color: rgb(51, 51, 51); font-family: menlo, &amp;quot;bitstream vera sans mono&amp;quot;, &amp;quot;dejavu sans mono&amp;quot;, monaco, consolas, monospace; font-size: 12px; font-style: normal; font-weight: 400; letter-spacing: normal; text-align: left; text-indent: 0px; text-transform: none; word-spacing: 0px;&quot;&gt;&lt;li class=&quot;L0&quot; style=&quot;box-sizing: border-box ; outline: none ; border-left: 1px solid rgb(238 , 238 , 238) ; padding-left: 10px ; color: rgb(221 , 221 , 221)&quot;&gt;&lt;code style=&quot;box-sizing: border-box; outline: none; font-family: &amp;quot;source code pro&amp;quot;, monospace; font-size: inherit; padding: 0px; color: inherit; background: transparent; border-radius: 0px; border: none; margin: 0px;&quot;&gt;&lt;span class=&quot;pln&quot; style=&quot;box-sizing: border-box ; outline: none ; color: rgb(77 , 77 , 76)&quot;&gt;obj1&lt;/span&gt;&lt;span class=&quot;pun&quot; style=&quot;box-sizing: border-box ; outline: none ; color: rgb(77 , 77 , 76)&quot;&gt;={&lt;/span&gt;&lt;span class=&quot;str&quot; style=&quot;box-sizing: border-box ; outline: none ; color: rgb(113 , 140 , 0)&quot;&gt;&#39;name1&#39;&lt;/span&gt;&lt;span class=&quot;pun&quot; style=&quot;box-sizing: border-box ; outline: none ; color: rgb(77 , 77 , 76)&quot;&gt;:&lt;/span&gt;&lt;span class=&quot;pln&quot; style=&quot;box-sizing: border-box ; outline: none ; color: rgb(77 , 77 , 76)&quot;&gt; &lt;/span&gt;&lt;span class=&quot;typ&quot; style=&quot;box-sizing: border-box ; outline: none ; color: rgb(66 , 113 , 174)&quot;&gt;Tensor1&lt;/span&gt;&lt;span class=&quot;pun&quot; style=&quot;box-sizing: border-box ; outline: none ; color: rgb(77 , 77 , 76)&quot;&gt;,&lt;/span&gt;&lt;span class=&quot;pln&quot; style=&quot;box-sizing: border-box ; outline: none ; color: rgb(77 , 77 , 76)&quot;&gt; &lt;/span&gt;&lt;/code&gt;&lt;/li&gt;&lt;li class=&quot;L1&quot; style=&quot;box-sizing: border-box ; outline: none ; border-left: 1px solid rgb(238 , 238 , 238) ; padding-left: 10px ; color: rgb(221 , 221 , 221) ; background-color: rgb(250 , 250 , 250)&quot;&gt;&lt;code style=&quot;box-sizing: border-box; outline: none; font-family: &amp;quot;source code pro&amp;quot;, monospace; font-size: inherit; padding: 0px; color: inherit; background: transparent; border-radius: 0px; border: none; margin: 0px;&quot;&gt;&lt;span class=&quot;pln&quot; style=&quot;box-sizing: border-box ; outline: none ; color: rgb(77 , 77 , 76)&quot;&gt;      &lt;/span&gt;&lt;span class=&quot;str&quot; style=&quot;box-sizing: border-box ; outline: none ; color: rgb(113 , 140 , 0)&quot;&gt;&#39;name2&#39;&lt;/span&gt;&lt;span class=&quot;pun&quot; style=&quot;box-sizing: border-box ; outline: none ; color: rgb(77 , 77 , 76)&quot;&gt;:&lt;/span&gt;&lt;span class=&quot;pln&quot; style=&quot;box-sizing: border-box ; outline: none ; color: rgb(77 , 77 , 76)&quot;&gt; &lt;/span&gt;&lt;span class=&quot;typ&quot; style=&quot;box-sizing: border-box ; outline: none ; color: rgb(66 , 113 , 174)&quot;&gt;Tensor2&lt;/span&gt;&lt;span class=&quot;pun&quot; style=&quot;box-sizing: border-box ; outline: none ; color: rgb(77 , 77 , 76)&quot;&gt;,&lt;/span&gt;&lt;span class=&quot;pln&quot; style=&quot;box-sizing: border-box ; outline: none ; color: rgb(77 , 77 , 76)&quot;&gt; &lt;/span&gt;&lt;/code&gt;&lt;/li&gt;&lt;li class=&quot;L2&quot; style=&quot;box-sizing: border-box ; outline: none ; border-left: 1px solid rgb(238 , 238 , 238) ; padding-left: 10px ; color: rgb(221 , 221 , 221)&quot;&gt;&lt;code style=&quot;box-sizing: border-box; outline: none; font-family: &amp;quot;source code pro&amp;quot;, monospace; font-size: inherit; padding: 0px; color: inherit; background: transparent; border-radius: 0px; border: none; margin: 0px;&quot;&gt;&lt;span class=&quot;pln&quot; style=&quot;box-sizing: border-box ; outline: none ; color: rgb(77 , 77 , 76)&quot;&gt;      &lt;/span&gt;&lt;span class=&quot;str&quot; style=&quot;box-sizing: border-box ; outline: none ; color: rgb(113 , 140 , 0)&quot;&gt;&#39;name3&#39;&lt;/span&gt;&lt;span class=&quot;pun&quot; style=&quot;box-sizing: border-box ; outline: none ; color: rgb(77 , 77 , 76)&quot;&gt;:&lt;/span&gt;&lt;span class=&quot;pln&quot; style=&quot;box-sizing: border-box ; outline: none ; color: rgb(77 , 77 , 76)&quot;&gt; &lt;/span&gt;&lt;span class=&quot;pun&quot; style=&quot;box-sizing: border-box ; outline: none ; color: rgb(77 , 77 , 76)&quot;&gt;[&lt;/span&gt;&lt;span class=&quot;lit&quot; style=&quot;box-sizing: border-box ; outline: none ; color: rgb(245 , 135 , 31)&quot;&gt;1&lt;/span&gt;&lt;span class=&quot;pun&quot; style=&quot;box-sizing: border-box ; outline: none ; color: rgb(77 , 77 , 76)&quot;&gt;,&lt;/span&gt;&lt;span class=&quot;lit&quot; style=&quot;box-sizing: border-box ; outline: none ; color: rgb(245 , 135 , 31)&quot;&gt;2&lt;/span&gt;&lt;span class=&quot;pun&quot; style=&quot;box-sizing: border-box ; outline: none ; color: rgb(77 , 77 , 76)&quot;&gt;],}&lt;/span&gt;&lt;/code&gt;&lt;/li&gt;&lt;/ol&gt;" style="text;whiteSpace=wrap;html=1;fillColor=#f5f5f5;strokeColor=#666666;fontColor=#333333;" vertex="1" parent="1">
          <mxGeometry x="1420" y="1360" width="240" height="60" as="geometry" />
        </mxCell>
        <mxCell id="kWca1h-Ah_QSKacg4VAW-13" value="&lt;meta charset=&quot;utf-8&quot;&gt;&lt;ol class=&quot;linenums&quot; style=&quot;box-sizing: border-box; outline: none; margin-top: 0px; margin-bottom: 0px; color: rgb(51, 51, 51); font-family: menlo, &amp;quot;bitstream vera sans mono&amp;quot;, &amp;quot;dejavu sans mono&amp;quot;, monaco, consolas, monospace; font-size: 12px; font-style: normal; font-weight: 400; letter-spacing: normal; text-align: left; text-indent: 0px; text-transform: none; word-spacing: 0px;&quot;&gt;&lt;li class=&quot;L4&quot; style=&quot;box-sizing: border-box ; outline: none ; border-left: 1px solid rgb(238 , 238 , 238) ; padding-left: 10px ; color: rgb(221 , 221 , 221) ; background-color: rgb(250 , 250 , 250)&quot;&gt;&lt;code style=&quot;box-sizing: border-box; outline: none; font-family: &amp;quot;source code pro&amp;quot;, monospace; font-size: inherit; padding: 0px; color: inherit; background: transparent; border-radius: 0px; border: none; margin: 0px;&quot;&gt;&lt;span class=&quot;pln&quot; style=&quot;box-sizing: border-box ; outline: none ; color: rgb(77 , 77 , 76)&quot;&gt;obj2&lt;/span&gt;&lt;span class=&quot;pun&quot; style=&quot;box-sizing: border-box ; outline: none ; color: rgb(77 , 77 , 76)&quot;&gt;={&lt;/span&gt;&lt;span class=&quot;str&quot; style=&quot;box-sizing: border-box ; outline: none ; color: rgb(113 , 140 , 0)&quot;&gt;&#39;name1&#39;&lt;/span&gt;&lt;span class=&quot;pun&quot; style=&quot;box-sizing: border-box ; outline: none ; color: rgb(77 , 77 , 76)&quot;&gt;:&lt;/span&gt;&lt;span class=&quot;pln&quot; style=&quot;box-sizing: border-box ; outline: none ; color: rgb(77 , 77 , 76)&quot;&gt; &lt;/span&gt;&lt;span class=&quot;typ&quot; style=&quot;box-sizing: border-box ; outline: none ; color: rgb(66 , 113 , 174)&quot;&gt;Tensor1&lt;/span&gt;&lt;span class=&quot;pun&quot; style=&quot;box-sizing: border-box ; outline: none ; color: rgb(77 , 77 , 76)&quot;&gt;,&lt;/span&gt;&lt;span class=&quot;pln&quot; style=&quot;box-sizing: border-box ; outline: none ; color: rgb(77 , 77 , 76)&quot;&gt; &lt;/span&gt;&lt;/code&gt;&lt;/li&gt;&lt;li class=&quot;L5&quot; style=&quot;box-sizing: border-box ; outline: none ; border-left: 1px solid rgb(238 , 238 , 238) ; padding-left: 10px ; color: rgb(221 , 221 , 221)&quot;&gt;&lt;code style=&quot;box-sizing: border-box; outline: none; font-family: &amp;quot;source code pro&amp;quot;, monospace; font-size: inherit; padding: 0px; color: inherit; background: transparent; border-radius: 0px; border: none; margin: 0px;&quot;&gt;&lt;span class=&quot;pln&quot; style=&quot;box-sizing: border-box ; outline: none ; color: rgb(77 , 77 , 76)&quot;&gt;      &lt;/span&gt;&lt;span class=&quot;str&quot; style=&quot;box-sizing: border-box ; outline: none ; color: rgb(113 , 140 , 0)&quot;&gt;&#39;name2&#39;&lt;/span&gt;&lt;span class=&quot;pun&quot; style=&quot;box-sizing: border-box ; outline: none ; color: rgb(77 , 77 , 76)&quot;&gt;:&lt;/span&gt;&lt;span class=&quot;pln&quot; style=&quot;box-sizing: border-box ; outline: none ; color: rgb(77 , 77 , 76)&quot;&gt; ndarray2&lt;/span&gt;&lt;span class=&quot;pun&quot; style=&quot;box-sizing: border-box ; outline: none ; color: rgb(77 , 77 , 76)&quot;&gt;,&lt;/span&gt;&lt;span class=&quot;pln&quot; style=&quot;box-sizing: border-box ; outline: none ; color: rgb(77 , 77 , 76)&quot;&gt; &lt;/span&gt;&lt;/code&gt;&lt;/li&gt;&lt;li class=&quot;L6&quot; style=&quot;box-sizing: border-box ; outline: none ; border-left: 1px solid rgb(238 , 238 , 238) ; padding-left: 10px ; color: rgb(221 , 221 , 221)&quot;&gt;&lt;code style=&quot;box-sizing: border-box; outline: none; font-family: &amp;quot;source code pro&amp;quot;, monospace; font-size: inherit; padding: 0px; color: inherit; background: transparent; border-radius: 0px; border: none; margin: 0px;&quot;&gt;&lt;span class=&quot;pln&quot; style=&quot;box-sizing: border-box ; outline: none ; color: rgb(77 , 77 , 76)&quot;&gt;      &lt;/span&gt;&lt;span class=&quot;str&quot; style=&quot;box-sizing: border-box ; outline: none ; color: rgb(113 , 140 , 0)&quot;&gt;&#39;name3&#39;&lt;/span&gt;&lt;span class=&quot;pun&quot; style=&quot;box-sizing: border-box ; outline: none ; color: rgb(77 , 77 , 76)&quot;&gt;:&lt;/span&gt;&lt;span class=&quot;pln&quot; style=&quot;box-sizing: border-box ; outline: none ; color: rgb(77 , 77 , 76)&quot;&gt; &lt;/span&gt;&lt;span class=&quot;pun&quot; style=&quot;box-sizing: border-box ; outline: none ; color: rgb(77 , 77 , 76)&quot;&gt;[&lt;/span&gt;&lt;span class=&quot;lit&quot; style=&quot;box-sizing: border-box ; outline: none ; color: rgb(245 , 135 , 31)&quot;&gt;1&lt;/span&gt;&lt;span class=&quot;pun&quot; style=&quot;box-sizing: border-box ; outline: none ; color: rgb(77 , 77 , 76)&quot;&gt;,&lt;/span&gt;&lt;span class=&quot;lit&quot; style=&quot;box-sizing: border-box ; outline: none ; color: rgb(245 , 135 , 31)&quot;&gt;2&lt;/span&gt;&lt;span class=&quot;pun&quot; style=&quot;box-sizing: border-box ; outline: none ; color: rgb(77 , 77 , 76)&quot;&gt;]&lt;/span&gt;&lt;span class=&quot;pln&quot; style=&quot;box-sizing: border-box ; outline: none ; color: rgb(77 , 77 , 76)&quot;&gt; &lt;/span&gt;&lt;span class=&quot;pun&quot; style=&quot;box-sizing: border-box ; outline: none ; color: rgb(77 , 77 , 76)&quot;&gt;}&lt;/span&gt;&lt;/code&gt;&lt;/li&gt;&lt;/ol&gt;" style="text;whiteSpace=wrap;html=1;fillColor=#f5f5f5;strokeColor=#666666;fontColor=#333333;" vertex="1" parent="1">
          <mxGeometry x="1420" y="1480" width="240" height="60" as="geometry" />
        </mxCell>
        <mxCell id="kWca1h-Ah_QSKacg4VAW-14" value="&lt;meta charset=&quot;utf-8&quot;&gt;&lt;ol class=&quot;linenums&quot; style=&quot;box-sizing: border-box; outline: none; margin-top: 0px; margin-bottom: 0px; color: rgb(51, 51, 51); font-family: menlo, &amp;quot;bitstream vera sans mono&amp;quot;, &amp;quot;dejavu sans mono&amp;quot;, monaco, consolas, monospace; font-size: 12px; font-style: normal; font-weight: 400; letter-spacing: normal; text-align: left; text-indent: 0px; text-transform: none; word-spacing: 0px;&quot;&gt;&lt;li class=&quot;L8&quot; style=&quot;box-sizing: border-box ; outline: none ; border-left: 1px solid rgb(238 , 238 , 238) ; padding-left: 10px ; color: rgb(221 , 221 , 221)&quot;&gt;&lt;code style=&quot;box-sizing: border-box; outline: none; font-family: &amp;quot;source code pro&amp;quot;, monospace; font-size: inherit; padding: 0px; color: inherit; background: transparent; border-radius: 0px; border: none; margin: 0px;&quot;&gt;&lt;span class=&quot;pln&quot; style=&quot;box-sizing: border-box ; outline: none ; color: rgb(77 , 77 , 76)&quot;&gt;obj3&lt;/span&gt;&lt;span class=&quot;pun&quot; style=&quot;box-sizing: border-box ; outline: none ; color: rgb(77 , 77 , 76)&quot;&gt;={&lt;/span&gt;&lt;span class=&quot;str&quot; style=&quot;box-sizing: border-box ; outline: none ; color: rgb(113 , 140 , 0)&quot;&gt;&#39;name1&#39;&lt;/span&gt;&lt;span class=&quot;pun&quot; style=&quot;box-sizing: border-box ; outline: none ; color: rgb(77 , 77 , 76)&quot;&gt;:&lt;/span&gt;&lt;span class=&quot;pln&quot; style=&quot;box-sizing: border-box ; outline: none ; color: rgb(77 , 77 , 76)&quot;&gt;  &lt;/span&gt;&lt;span class=&quot;typ&quot; style=&quot;box-sizing: border-box ; outline: none ; color: rgb(66 , 113 , 174)&quot;&gt;Tensor1&lt;/span&gt;&lt;span class=&quot;pun&quot; style=&quot;box-sizing: border-box ; outline: none ; color: rgb(77 , 77 , 76)&quot;&gt;,&lt;/span&gt;&lt;span class=&quot;pln&quot; style=&quot;box-sizing: border-box ; outline: none ; color: rgb(77 , 77 , 76)&quot;&gt; &lt;/span&gt;&lt;/code&gt;&lt;/li&gt;&lt;li class=&quot;L9&quot; style=&quot;box-sizing: border-box ; outline: none ; border-left: 1px solid rgb(238 , 238 , 238) ; padding-left: 10px ; color: rgb(221 , 221 , 221)&quot;&gt;&lt;code style=&quot;box-sizing: border-box; outline: none; font-family: &amp;quot;source code pro&amp;quot;, monospace; font-size: inherit; padding: 0px; color: inherit; background: transparent; border-radius: 0px; border: none; margin: 0px;&quot;&gt;&lt;span class=&quot;pln&quot; style=&quot;box-sizing: border-box ; outline: none ; color: rgb(77 , 77 , 76)&quot;&gt;      &lt;/span&gt;&lt;span class=&quot;str&quot; style=&quot;box-sizing: border-box ; outline: none ; color: rgb(113 , 140 , 0)&quot;&gt;&#39;name2&#39;&lt;/span&gt;&lt;span class=&quot;pun&quot; style=&quot;box-sizing: border-box ; outline: none ; color: rgb(77 , 77 , 76)&quot;&gt;:&lt;/span&gt;&lt;span class=&quot;pln&quot; style=&quot;box-sizing: border-box ; outline: none ; color: rgb(77 , 77 , 76)&quot;&gt; ndarray2&lt;/span&gt;&lt;span class=&quot;pun&quot; style=&quot;box-sizing: border-box ; outline: none ; color: rgb(77 , 77 , 76)&quot;&gt;,&lt;/span&gt;&lt;span class=&quot;pln&quot; style=&quot;box-sizing: border-box ; outline: none ; color: rgb(77 , 77 , 76)&quot;&gt; &lt;/span&gt;&lt;/code&gt;&lt;/li&gt;&lt;li class=&quot;L0&quot; style=&quot;box-sizing: border-box ; outline: none ; border-left: 1px solid rgb(238 , 238 , 238) ; padding-left: 10px ; color: rgb(221 , 221 , 221) ; background-color: rgb(250 , 250 , 250)&quot;&gt;&lt;code style=&quot;box-sizing: border-box; outline: none; font-family: &amp;quot;source code pro&amp;quot;, monospace; font-size: inherit; padding: 0px; color: inherit; background: transparent; border-radius: 0px; border: none; margin: 0px;&quot;&gt;&lt;span class=&quot;pln&quot; style=&quot;box-sizing: border-box ; outline: none ; color: rgb(77 , 77 , 76)&quot;&gt;      &lt;/span&gt;&lt;span class=&quot;str&quot; style=&quot;box-sizing: border-box ; outline: none ; color: rgb(113 , 140 , 0)&quot;&gt;&#39;name3&#39;&lt;/span&gt;&lt;span class=&quot;pun&quot; style=&quot;box-sizing: border-box ; outline: none ; color: rgb(77 , 77 , 76)&quot;&gt;:&lt;/span&gt;&lt;span class=&quot;pln&quot; style=&quot;box-sizing: border-box ; outline: none ; color: rgb(77 , 77 , 76)&quot;&gt; &lt;/span&gt;&lt;span class=&quot;pun&quot; style=&quot;box-sizing: border-box ; outline: none ; color: rgb(77 , 77 , 76)&quot;&gt;[&lt;/span&gt;&lt;span class=&quot;lit&quot; style=&quot;box-sizing: border-box ; outline: none ; color: rgb(245 , 135 , 31)&quot;&gt;1&lt;/span&gt;&lt;span class=&quot;pun&quot; style=&quot;box-sizing: border-box ; outline: none ; color: rgb(77 , 77 , 76)&quot;&gt;,&lt;/span&gt;&lt;span class=&quot;pln&quot; style=&quot;box-sizing: border-box ; outline: none ; color: rgb(77 , 77 , 76)&quot;&gt; &lt;/span&gt;&lt;span class=&quot;typ&quot; style=&quot;box-sizing: border-box ; outline: none ; color: rgb(66 , 113 , 174)&quot;&gt;Tensor3&lt;/span&gt;&lt;span class=&quot;pun&quot; style=&quot;box-sizing: border-box ; outline: none ; color: rgb(77 , 77 , 76)&quot;&gt;]}&lt;/span&gt;&lt;/code&gt;&lt;/li&gt;&lt;/ol&gt;" style="text;whiteSpace=wrap;html=1;fillColor=#f5f5f5;strokeColor=#666666;fontColor=#333333;" vertex="1" parent="1">
          <mxGeometry x="1420" y="1580" width="240" height="60" as="geometry" />
        </mxCell>
        <mxCell id="kWca1h-Ah_QSKacg4VAW-15" value="&lt;font style=&quot;font-size: 18px&quot;&gt;paddle.save的输入&lt;/font&gt;" style="text;html=1;strokeColor=none;fillColor=none;align=center;verticalAlign=middle;whiteSpace=wrap;rounded=0;" vertex="1" parent="1">
          <mxGeometry x="180" y="1100" width="170" height="20" as="geometry" />
        </mxCell>
        <mxCell id="kWca1h-Ah_QSKacg4VAW-16" value="&lt;font style=&quot;font-size: 18px&quot;&gt;经过paddle.save处理，&lt;br&gt;保存成文件中的格式&lt;/font&gt;" style="text;html=1;strokeColor=none;fillColor=none;align=left;verticalAlign=middle;whiteSpace=wrap;rounded=0;" vertex="1" parent="1">
          <mxGeometry x="870" y="1040" width="200" height="50" as="geometry" />
        </mxCell>
        <mxCell id="kWca1h-Ah_QSKacg4VAW-17" value="&lt;font style=&quot;font-size: 18px&quot;&gt;paddle.load返回的格式&lt;/font&gt;" style="text;html=1;strokeColor=none;fillColor=none;align=left;verticalAlign=middle;whiteSpace=wrap;rounded=0;" vertex="1" parent="1">
          <mxGeometry x="1440" y="930" width="200" height="50" as="geometry" />
        </mxCell>
        <mxCell id="kWca1h-Ah_QSKacg4VAW-18" value="" style="endArrow=classic;html=1;exitX=1;exitY=0.25;exitDx=0;exitDy=0;entryX=0;entryY=0.5;entryDx=0;entryDy=0;strokeWidth=6;fillColor=#d5e8d4;strokeColor=#82b366;" edge="1" parent="1" source="kWca1h-Ah_QSKacg4VAW-3" target="kWca1h-Ah_QSKacg4VAW-6">
          <mxGeometry width="50" height="50" relative="1" as="geometry">
            <mxPoint x="600" y="1210" as="sourcePoint" />
            <mxPoint x="650" y="1160" as="targetPoint" />
          </mxGeometry>
        </mxCell>
        <mxCell id="kWca1h-Ah_QSKacg4VAW-19" value="" style="endArrow=classic;html=1;exitX=1;exitY=0.25;exitDx=0;exitDy=0;entryX=0;entryY=0.25;entryDx=0;entryDy=0;strokeWidth=6;fillColor=#f8cecc;strokeColor=#b85450;" edge="1" parent="1" source="kWca1h-Ah_QSKacg4VAW-6" target="kWca1h-Ah_QSKacg4VAW-10">
          <mxGeometry width="50" height="50" relative="1" as="geometry">
            <mxPoint x="1190" y="1150" as="sourcePoint" />
            <mxPoint x="1390" y="1100" as="targetPoint" />
          </mxGeometry>
        </mxCell>
        <mxCell id="kWca1h-Ah_QSKacg4VAW-20" value="" style="endArrow=classic;html=1;exitX=1;exitY=0.75;exitDx=0;exitDy=0;entryX=0;entryY=0.25;entryDx=0;entryDy=0;strokeWidth=6;fillColor=#e1d5e7;strokeColor=#9673a6;" edge="1" parent="1" source="kWca1h-Ah_QSKacg4VAW-6" target="kWca1h-Ah_QSKacg4VAW-12">
          <mxGeometry width="50" height="50" relative="1" as="geometry">
            <mxPoint x="1200" y="1140" as="sourcePoint" />
            <mxPoint x="1430" y="1105" as="targetPoint" />
          </mxGeometry>
        </mxCell>
        <mxCell id="kWca1h-Ah_QSKacg4VAW-21" value="" style="endArrow=classic;html=1;exitX=1;exitY=0.75;exitDx=0;exitDy=0;entryX=0;entryY=0.25;entryDx=0;entryDy=0;strokeWidth=6;fillColor=#dae8fc;strokeColor=#6c8ebf;" edge="1" parent="1" source="kWca1h-Ah_QSKacg4VAW-3" target="kWca1h-Ah_QSKacg4VAW-9">
          <mxGeometry width="50" height="50" relative="1" as="geometry">
            <mxPoint x="560" y="1190" as="sourcePoint" />
            <mxPoint x="760" y="1140" as="targetPoint" />
          </mxGeometry>
        </mxCell>
        <mxCell id="kWca1h-Ah_QSKacg4VAW-22" value="" style="endArrow=classic;html=1;strokeWidth=6;fillColor=#f8cecc;strokeColor=#b85450;" edge="1" parent="1">
          <mxGeometry width="50" height="50" relative="1" as="geometry">
            <mxPoint x="1190" y="1265" as="sourcePoint" />
            <mxPoint x="1418" y="1110" as="targetPoint" />
          </mxGeometry>
        </mxCell>
        <mxCell id="kWca1h-Ah_QSKacg4VAW-23" value="" style="endArrow=classic;html=1;strokeWidth=6;fillColor=#f8cecc;strokeColor=#b85450;entryX=0;entryY=0.75;entryDx=0;entryDy=0;" edge="1" parent="1" target="kWca1h-Ah_QSKacg4VAW-10">
          <mxGeometry width="50" height="50" relative="1" as="geometry">
            <mxPoint x="1190" y="1387.56" as="sourcePoint" />
            <mxPoint x="1418" y="1250" as="targetPoint" />
          </mxGeometry>
        </mxCell>
        <mxCell id="kWca1h-Ah_QSKacg4VAW-24" value="" style="endArrow=classic;html=1;strokeWidth=6;fillColor=#f8cecc;strokeColor=#b85450;entryX=0;entryY=0.25;entryDx=0;entryDy=0;exitX=1;exitY=0.25;exitDx=0;exitDy=0;" edge="1" parent="1" target="kWca1h-Ah_QSKacg4VAW-11" source="kWca1h-Ah_QSKacg4VAW-7">
          <mxGeometry width="50" height="50" relative="1" as="geometry">
            <mxPoint x="1190" y="1557.56" as="sourcePoint" />
            <mxPoint x="1418" y="1420" as="targetPoint" />
          </mxGeometry>
        </mxCell>
        <mxCell id="kWca1h-Ah_QSKacg4VAW-25" value="" style="endArrow=classic;html=1;exitX=1;exitY=0.75;exitDx=0;exitDy=0;entryX=0;entryY=0.75;entryDx=0;entryDy=0;strokeWidth=6;fillColor=#e1d5e7;strokeColor=#9673a6;" edge="1" parent="1" target="kWca1h-Ah_QSKacg4VAW-12">
          <mxGeometry width="50" height="50" relative="1" as="geometry">
            <mxPoint x="1190" y="1295" as="sourcePoint" />
            <mxPoint x="1420" y="1500" as="targetPoint" />
          </mxGeometry>
        </mxCell>
        <mxCell id="kWca1h-Ah_QSKacg4VAW-26" value="" style="endArrow=classic;html=1;exitX=1;exitY=0.75;exitDx=0;exitDy=0;entryX=0;entryY=0.5;entryDx=0;entryDy=0;strokeWidth=6;fillColor=#e1d5e7;strokeColor=#9673a6;" edge="1" parent="1" target="kWca1h-Ah_QSKacg4VAW-14" source="kWca1h-Ah_QSKacg4VAW-7">
          <mxGeometry width="50" height="50" relative="1" as="geometry">
            <mxPoint x="1190" y="1580" as="sourcePoint" />
            <mxPoint x="1420" y="1675" as="targetPoint" />
          </mxGeometry>
        </mxCell>
        <mxCell id="kWca1h-Ah_QSKacg4VAW-27" value="" style="endArrow=classic;html=1;exitX=1;exitY=0.75;exitDx=0;exitDy=0;entryX=0;entryY=0.5;entryDx=0;entryDy=0;strokeWidth=6;fillColor=#e1d5e7;strokeColor=#9673a6;" edge="1" parent="1" target="kWca1h-Ah_QSKacg4VAW-13">
          <mxGeometry width="50" height="50" relative="1" as="geometry">
            <mxPoint x="1190" y="1420" as="sourcePoint" />
            <mxPoint x="1420" y="1515" as="targetPoint" />
          </mxGeometry>
        </mxCell>
        <mxCell id="kWca1h-Ah_QSKacg4VAW-28" value="" style="endArrow=classic;html=1;strokeWidth=6;fillColor=#d5e8d4;strokeColor=#82b366;exitX=1;exitY=0.25;exitDx=0;exitDy=0;entryX=0;entryY=0.25;entryDx=0;entryDy=0;" edge="1" parent="1" source="kWca1h-Ah_QSKacg4VAW-4" target="kWca1h-Ah_QSKacg4VAW-8">
          <mxGeometry width="50" height="50" relative="1" as="geometry">
            <mxPoint x="540" y="1340" as="sourcePoint" />
            <mxPoint x="740" y="1390" as="targetPoint" />
          </mxGeometry>
        </mxCell>
        <mxCell id="kWca1h-Ah_QSKacg4VAW-29" value="" style="endArrow=classic;html=1;strokeWidth=6;fillColor=#d5e8d4;strokeColor=#82b366;entryX=0;entryY=0.5;entryDx=0;entryDy=0;exitX=1;exitY=0.25;exitDx=0;exitDy=0;" edge="1" parent="1" source="kWca1h-Ah_QSKacg4VAW-5" target="kWca1h-Ah_QSKacg4VAW-7">
          <mxGeometry width="50" height="50" relative="1" as="geometry">
            <mxPoint x="580" y="1530" as="sourcePoint" />
            <mxPoint x="750" y="1558.75" as="targetPoint" />
          </mxGeometry>
        </mxCell>
        <mxCell id="kWca1h-Ah_QSKacg4VAW-30" value="" style="endArrow=classic;html=1;entryX=0;entryY=0.5;entryDx=0;entryDy=0;strokeWidth=6;fillColor=#dae8fc;strokeColor=#6c8ebf;exitX=1;exitY=0.75;exitDx=0;exitDy=0;" edge="1" parent="1" source="kWca1h-Ah_QSKacg4VAW-5" target="kWca1h-Ah_QSKacg4VAW-43">
          <mxGeometry width="50" height="50" relative="1" as="geometry">
            <mxPoint x="580" y="1570" as="sourcePoint" />
            <mxPoint x="750" y="1620" as="targetPoint" />
          </mxGeometry>
        </mxCell>
        <mxCell id="kWca1h-Ah_QSKacg4VAW-31" value="" style="endArrow=classic;html=1;entryX=0;entryY=0.75;entryDx=0;entryDy=0;strokeWidth=6;fillColor=#dae8fc;strokeColor=#6c8ebf;exitX=1;exitY=0.75;exitDx=0;exitDy=0;" edge="1" parent="1" target="kWca1h-Ah_QSKacg4VAW-9">
          <mxGeometry width="50" height="50" relative="1" as="geometry">
            <mxPoint x="550" y="1395" as="sourcePoint" />
            <mxPoint x="750" y="1420" as="targetPoint" />
          </mxGeometry>
        </mxCell>
        <mxCell id="kWca1h-Ah_QSKacg4VAW-33" value="&lt;font style=&quot;font-size: 16px&quot;&gt;return_numpy = True&lt;/font&gt;" style="text;html=1;strokeColor=none;fillColor=none;align=center;verticalAlign=middle;whiteSpace=wrap;rounded=0;dashed=1;strokeWidth=2;" vertex="1" parent="1">
          <mxGeometry x="1455" y="1030" width="170" height="20" as="geometry" />
        </mxCell>
        <mxCell id="kWca1h-Ah_QSKacg4VAW-34" value="&lt;font style=&quot;font-size: 16px&quot;&gt;return_numpy = False&lt;/font&gt;" style="text;html=1;strokeColor=none;fillColor=none;align=center;verticalAlign=middle;whiteSpace=wrap;rounded=0;dashed=1;strokeWidth=2;" vertex="1" parent="1">
          <mxGeometry x="1455" y="1754" width="170" height="20" as="geometry" />
        </mxCell>
        <mxCell id="kWca1h-Ah_QSKacg4VAW-35" value="" style="endArrow=classic;html=1;exitX=1;exitY=0.25;exitDx=0;exitDy=0;strokeWidth=6;fillColor=#d5e8d4;strokeColor=#82b366;" edge="1" parent="1">
          <mxGeometry width="50" height="50" relative="1" as="geometry">
            <mxPoint x="450" y="1060" as="sourcePoint" />
            <mxPoint x="500" y="1060" as="targetPoint" />
          </mxGeometry>
        </mxCell>
        <mxCell id="kWca1h-Ah_QSKacg4VAW-36" value="动态图save" style="text;html=1;align=center;verticalAlign=middle;resizable=0;points=[];autosize=1;" vertex="1" parent="1">
          <mxGeometry x="495" y="1050" width="80" height="20" as="geometry" />
        </mxCell>
        <mxCell id="kWca1h-Ah_QSKacg4VAW-37" value="" style="endArrow=classic;html=1;exitX=1;exitY=0.25;exitDx=0;exitDy=0;strokeWidth=6;fillColor=#dae8fc;strokeColor=#6c8ebf;" edge="1" parent="1">
          <mxGeometry width="50" height="50" relative="1" as="geometry">
            <mxPoint x="450" y="1030" as="sourcePoint" />
            <mxPoint x="500" y="1030" as="targetPoint" />
          </mxGeometry>
        </mxCell>
        <mxCell id="kWca1h-Ah_QSKacg4VAW-38" value="静态图save" style="text;html=1;align=center;verticalAlign=middle;resizable=0;points=[];autosize=1;" vertex="1" parent="1">
          <mxGeometry x="495" y="1020" width="80" height="20" as="geometry" />
        </mxCell>
        <mxCell id="kWca1h-Ah_QSKacg4VAW-39" value="" style="endArrow=classic;html=1;exitX=1;exitY=0.25;exitDx=0;exitDy=0;strokeWidth=6;fillColor=#e1d5e7;strokeColor=#9673a6;" edge="1" parent="1">
          <mxGeometry width="50" height="50" relative="1" as="geometry">
            <mxPoint x="1220" y="1060" as="sourcePoint" />
            <mxPoint x="1270" y="1060" as="targetPoint" />
          </mxGeometry>
        </mxCell>
        <mxCell id="kWca1h-Ah_QSKacg4VAW-40" value="" style="endArrow=classic;html=1;exitX=1;exitY=0.25;exitDx=0;exitDy=0;strokeWidth=6;fillColor=#f8cecc;strokeColor=#b85450;" edge="1" parent="1">
          <mxGeometry width="50" height="50" relative="1" as="geometry">
            <mxPoint x="1220" y="1030" as="sourcePoint" />
            <mxPoint x="1270" y="1030" as="targetPoint" />
          </mxGeometry>
        </mxCell>
        <mxCell id="kWca1h-Ah_QSKacg4VAW-41" value="return_numpy=True" style="text;html=1;align=center;verticalAlign=middle;resizable=0;points=[];autosize=1;" vertex="1" parent="1">
          <mxGeometry x="1271" y="1020" width="120" height="20" as="geometry" />
        </mxCell>
        <mxCell id="kWca1h-Ah_QSKacg4VAW-42" value="return_numpy=False" style="text;html=1;align=center;verticalAlign=middle;resizable=0;points=[];autosize=1;" vertex="1" parent="1">
          <mxGeometry x="1266" y="1050" width="130" height="20" as="geometry" />
        </mxCell>
        <mxCell id="kWca1h-Ah_QSKacg4VAW-43" value="&lt;ol class=&quot;linenums&quot; style=&quot;box-sizing: border-box ; outline: none ; margin-top: 0px ; margin-bottom: 0px ; color: rgb(51 , 51 , 51) ; font-family: &amp;#34;menlo&amp;#34; , &amp;#34;bitstream vera sans mono&amp;#34; , &amp;#34;dejavu sans mono&amp;#34; , &amp;#34;monaco&amp;#34; , &amp;#34;consolas&amp;#34; , monospace ; font-size: 12px ; font-style: normal ; font-weight: 400 ; letter-spacing: normal ; text-align: left ; text-indent: 0px ; text-transform: none ; word-spacing: 0px&quot;&gt;&lt;li class=&quot;L1&quot; style=&quot;box-sizing: border-box ; outline: none ; border-left: 1px solid rgb(238 , 238 , 238) ; padding-left: 10px ; color: rgb(221 , 221 , 221)&quot;&gt;&lt;code style=&quot;box-sizing: border-box ; outline: none ; font-family: &amp;#34;source code pro&amp;#34; , monospace ; font-size: inherit ; padding: 0px ; color: inherit ; background: transparent ; border-radius: 0px ; border: none ; margin: 0px&quot;&gt;&lt;span class=&quot;pln&quot; style=&quot;box-sizing: border-box ; outline: none ; color: rgb(77 , 77 , 76)&quot;&gt;obj3&lt;/span&gt;&lt;span class=&quot;pun&quot; style=&quot;box-sizing: border-box ; outline: none ; color: rgb(77 , 77 , 76)&quot;&gt;={&lt;/span&gt;&lt;span class=&quot;str&quot; style=&quot;box-sizing: border-box ; outline: none ; color: rgb(113 , 140 , 0)&quot;&gt;&#39;name1&#39;&lt;/span&gt;&lt;span class=&quot;pun&quot; style=&quot;box-sizing: border-box ; outline: none ; color: rgb(77 , 77 , 76)&quot;&gt;:&lt;/span&gt;&lt;span class=&quot;pln&quot; style=&quot;box-sizing: border-box ; outline: none ; color: rgb(77 , 77 , 76)&quot;&gt; &lt;/span&gt;&lt;span class=&quot;pln&quot; style=&quot;box-sizing: border-box ; outline: none ; color: rgb(77 , 77 , 76)&quot;&gt;ndarray1&lt;/span&gt;&lt;span class=&quot;pun&quot; style=&quot;box-sizing: border-box ; outline: none ; color: rgb(77 , 77 , 76)&quot;&gt;,&lt;/span&gt;&lt;span class=&quot;pln&quot; style=&quot;box-sizing: border-box ; outline: none ; color: rgb(77 , 77 , 76)&quot;&gt; &lt;/span&gt;&lt;/code&gt;&lt;/li&gt;&lt;li class=&quot;L2&quot; style=&quot;box-sizing: border-box ; outline: none ; border-left: 1px solid rgb(238 , 238 , 238) ; padding-left: 10px ; color: rgb(221 , 221 , 221)&quot;&gt;&lt;code style=&quot;box-sizing: border-box ; outline: none ; font-family: &amp;#34;source code pro&amp;#34; , monospace ; font-size: inherit ; padding: 0px ; color: inherit ; background: transparent ; border-radius: 0px ; border: none ; margin: 0px&quot;&gt;&lt;span class=&quot;pln&quot; style=&quot;box-sizing: border-box ; outline: none ; color: rgb(77 , 77 , 76)&quot;&gt;      &lt;/span&gt;&lt;span class=&quot;str&quot; style=&quot;box-sizing: border-box ; outline: none ; color: rgb(113 , 140 , 0)&quot;&gt;&#39;name2&#39;&lt;/span&gt;&lt;span class=&quot;pun&quot; style=&quot;box-sizing: border-box ; outline: none ; color: rgb(77 , 77 , 76)&quot;&gt;:&lt;/span&gt;&lt;span class=&quot;pln&quot; style=&quot;box-sizing: border-box ; outline: none ; color: rgb(77 , 77 , 76)&quot;&gt; ndarray2&lt;/span&gt;&lt;span class=&quot;pun&quot; style=&quot;box-sizing: border-box ; outline: none ; color: rgb(77 , 77 , 76)&quot;&gt;,&lt;/span&gt;&lt;span class=&quot;pln&quot; style=&quot;box-sizing: border-box ; outline: none ; color: rgb(77 , 77 , 76)&quot;&gt; &lt;/span&gt;&lt;/code&gt;&lt;/li&gt;&lt;li class=&quot;L3&quot; style=&quot;box-sizing: border-box ; outline: none ; border-left: 1px solid rgb(238 , 238 , 238) ; padding-left: 10px ; color: rgb(221 , 221 , 221) ; background-color: rgb(250 , 250 , 250)&quot;&gt;&lt;code style=&quot;box-sizing: border-box ; outline: none ; font-family: &amp;#34;source code pro&amp;#34; , monospace ; font-size: inherit ; padding: 0px ; color: inherit ; background: transparent ; border-radius: 0px ; border: none ; margin: 0px&quot;&gt;&lt;span class=&quot;pln&quot; style=&quot;box-sizing: border-box ; outline: none ; color: rgb(77 , 77 , 76)&quot;&gt;      &lt;/span&gt;&lt;span class=&quot;str&quot; style=&quot;box-sizing: border-box ; outline: none ; color: rgb(113 , 140 , 0)&quot;&gt;&#39;name3&#39;&lt;/span&gt;&lt;span class=&quot;pun&quot; style=&quot;box-sizing: border-box ; outline: none ; color: rgb(77 , 77 , 76)&quot;&gt;:&lt;/span&gt;&lt;span class=&quot;pln&quot; style=&quot;box-sizing: border-box ; outline: none ; color: rgb(77 , 77 , 76)&quot;&gt; &lt;/span&gt;&lt;span class=&quot;pun&quot; style=&quot;box-sizing: border-box ; outline: none ; color: rgb(77 , 77 , 76)&quot;&gt;[&lt;/span&gt;&lt;span class=&quot;lit&quot; style=&quot;box-sizing: border-box ; outline: none ; color: rgb(245 , 135 , 31)&quot;&gt;1&lt;/span&gt;&lt;span class=&quot;pun&quot; style=&quot;box-sizing: border-box ; outline: none ; color: rgb(77 , 77 , 76)&quot;&gt;,&lt;/span&gt;&lt;span class=&quot;pln&quot; style=&quot;box-sizing: border-box ; outline: none ; color: rgb(77 , 77 , 76)&quot;&gt;&amp;nbsp;ndarray3&lt;/span&gt;&lt;span class=&quot;pun&quot; style=&quot;box-sizing: border-box ; outline: none ; color: rgb(77 , 77 , 76)&quot;&gt;]}&lt;/span&gt;&lt;/code&gt;&lt;/li&gt;&lt;/ol&gt;" style="text;whiteSpace=wrap;html=1;fillColor=#f5f5f5;strokeColor=#666666;fontColor=#333333;" vertex="1" parent="1">
          <mxGeometry x="750" y="1640" width="440" height="60" as="geometry" />
        </mxCell>
        <mxCell id="kWca1h-Ah_QSKacg4VAW-44" value="" style="endArrow=classic;html=1;strokeWidth=6;fillColor=#f8cecc;strokeColor=#b85450;entryX=0;entryY=0.75;entryDx=0;entryDy=0;" edge="1" parent="1" target="kWca1h-Ah_QSKacg4VAW-11">
          <mxGeometry width="50" height="50" relative="1" as="geometry">
            <mxPoint x="1190" y="1660" as="sourcePoint" />
            <mxPoint x="1370" y="1250" as="targetPoint" />
          </mxGeometry>
        </mxCell>
        <mxCell id="kWca1h-Ah_QSKacg4VAW-45" value="&lt;ol class=&quot;linenums&quot; style=&quot;box-sizing: border-box ; outline: none ; margin-top: 0px ; margin-bottom: 0px ; font-family: &amp;#34;menlo&amp;#34; , &amp;#34;bitstream vera sans mono&amp;#34; , &amp;#34;dejavu sans mono&amp;#34; , &amp;#34;monaco&amp;#34; , &amp;#34;consolas&amp;#34; , monospace ; font-size: 12px ; font-style: normal ; font-weight: 400 ; letter-spacing: normal ; text-align: left ; text-indent: 0px ; text-transform: none ; word-spacing: 0px&quot;&gt;&lt;li class=&quot;L8&quot; style=&quot;color: rgb(221 , 221 , 221) ; box-sizing: border-box ; outline: none ; border-left: 1px solid rgb(238 , 238 , 238) ; padding-left: 10px&quot;&gt;&lt;code style=&quot;box-sizing: border-box ; outline: none ; font-family: &amp;#34;source code pro&amp;#34; , monospace ; font-size: inherit ; padding: 0px ; color: inherit ; background: transparent ; border-radius: 0px ; border: none ; margin: 0px&quot;&gt;&lt;span class=&quot;pln&quot; style=&quot;box-sizing: border-box ; outline: none ; color: rgb(77 , 77 , 76)&quot;&gt;obj3&lt;/span&gt;&lt;span class=&quot;pun&quot; style=&quot;box-sizing: border-box ; outline: none ; color: rgb(77 , 77 , 76)&quot;&gt;={&lt;/span&gt;&lt;span class=&quot;str&quot; style=&quot;box-sizing: border-box ; outline: none ; color: rgb(113 , 140 , 0)&quot;&gt;&#39;name1&#39;&lt;/span&gt;&lt;span class=&quot;pun&quot; style=&quot;box-sizing: border-box ; outline: none ; color: rgb(77 , 77 , 76)&quot;&gt;:&lt;/span&gt;&lt;span class=&quot;pln&quot; style=&quot;box-sizing: border-box ; outline: none ; color: rgb(77 , 77 , 76)&quot;&gt;  &lt;/span&gt;&lt;span class=&quot;typ&quot; style=&quot;box-sizing: border-box ; outline: none ; color: rgb(66 , 113 , 174)&quot;&gt;Tensor1&lt;/span&gt;&lt;span class=&quot;pun&quot; style=&quot;box-sizing: border-box ; outline: none ; color: rgb(77 , 77 , 76)&quot;&gt;,&lt;/span&gt;&lt;span class=&quot;pln&quot; style=&quot;box-sizing: border-box ; outline: none ; color: rgb(77 , 77 , 76)&quot;&gt; &lt;/span&gt;&lt;/code&gt;&lt;/li&gt;&lt;li class=&quot;L9&quot; style=&quot;box-sizing: border-box ; outline: none ; border-left: 1px solid rgb(238 , 238 , 238) ; padding-left: 10px&quot;&gt;&lt;code style=&quot;box-sizing: border-box ; outline: none ; font-family: &amp;#34;source code pro&amp;#34; , monospace ; font-size: inherit ; padding: 0px ; background: transparent ; border-radius: 0px ; border: none ; margin: 0px&quot;&gt;&lt;span class=&quot;pln&quot; style=&quot;color: rgb(77 , 77 , 76) ; box-sizing: border-box ; outline: none&quot;&gt;      &lt;/span&gt;&lt;span class=&quot;str&quot; style=&quot;color: rgb(113 , 140 , 0) ; box-sizing: border-box ; outline: none&quot;&gt;&#39;name2&#39;&lt;/span&gt;&lt;span class=&quot;pun&quot; style=&quot;color: rgb(77 , 77 , 76) ; box-sizing: border-box ; outline: none&quot;&gt;:&lt;/span&gt;&lt;span class=&quot;pln&quot; style=&quot;color: rgb(77 , 77 , 76) ; box-sizing: border-box ; outline: none&quot;&gt;&amp;nbsp;&lt;/span&gt;&lt;span class=&quot;pun&quot; style=&quot;box-sizing: border-box ; outline: none&quot;&gt;&lt;font color=&quot;#2a7dd1&quot;&gt;Tensor3&lt;/font&gt;&lt;font color=&quot;#4d4d4c&quot;&gt;,&lt;/font&gt;&lt;/span&gt;&lt;span class=&quot;pln&quot; style=&quot;color: rgb(77 , 77 , 76) ; box-sizing: border-box ; outline: none&quot;&gt; &lt;/span&gt;&lt;/code&gt;&lt;/li&gt;&lt;li class=&quot;L0&quot; style=&quot;color: rgb(221 , 221 , 221) ; box-sizing: border-box ; outline: none ; border-left: 1px solid rgb(238 , 238 , 238) ; padding-left: 10px ; background-color: rgb(250 , 250 , 250)&quot;&gt;&lt;code style=&quot;box-sizing: border-box ; outline: none ; font-family: &amp;#34;source code pro&amp;#34; , monospace ; font-size: inherit ; padding: 0px ; color: inherit ; background: transparent ; border-radius: 0px ; border: none ; margin: 0px&quot;&gt;&lt;span class=&quot;pln&quot; style=&quot;box-sizing: border-box ; outline: none ; color: rgb(77 , 77 , 76)&quot;&gt;      &lt;/span&gt;&lt;span class=&quot;str&quot; style=&quot;box-sizing: border-box ; outline: none ; color: rgb(113 , 140 , 0)&quot;&gt;&#39;name3&#39;&lt;/span&gt;&lt;span class=&quot;pun&quot; style=&quot;box-sizing: border-box ; outline: none ; color: rgb(77 , 77 , 76)&quot;&gt;:&lt;/span&gt;&lt;span class=&quot;pln&quot; style=&quot;box-sizing: border-box ; outline: none ; color: rgb(77 , 77 , 76)&quot;&gt; &lt;/span&gt;&lt;span class=&quot;pun&quot; style=&quot;box-sizing: border-box ; outline: none ; color: rgb(77 , 77 , 76)&quot;&gt;[&lt;/span&gt;&lt;span class=&quot;lit&quot; style=&quot;box-sizing: border-box ; outline: none ; color: rgb(245 , 135 , 31)&quot;&gt;1&lt;/span&gt;&lt;span class=&quot;pun&quot; style=&quot;box-sizing: border-box ; outline: none ; color: rgb(77 , 77 , 76)&quot;&gt;,&lt;/span&gt;&lt;span class=&quot;pln&quot; style=&quot;box-sizing: border-box ; outline: none ; color: rgb(77 , 77 , 76)&quot;&gt; &lt;/span&gt;&lt;span class=&quot;typ&quot; style=&quot;box-sizing: border-box ; outline: none ; color: rgb(66 , 113 , 174)&quot;&gt;Tensor3&lt;/span&gt;&lt;span class=&quot;pun&quot; style=&quot;box-sizing: border-box ; outline: none ; color: rgb(77 , 77 , 76)&quot;&gt;]}&lt;/span&gt;&lt;/code&gt;&lt;/li&gt;&lt;/ol&gt;" style="text;whiteSpace=wrap;html=1;fillColor=#f5f5f5;strokeColor=#666666;fontColor=#333333;" vertex="1" parent="1">
          <mxGeometry x="1420" y="1680" width="240" height="60" as="geometry" />
        </mxCell>
        <mxCell id="kWca1h-Ah_QSKacg4VAW-46" value="" style="endArrow=classic;html=1;exitX=1;exitY=0.75;exitDx=0;exitDy=0;entryX=0;entryY=0.5;entryDx=0;entryDy=0;strokeWidth=6;fillColor=#e1d5e7;strokeColor=#9673a6;" edge="1" parent="1" source="kWca1h-Ah_QSKacg4VAW-43" target="kWca1h-Ah_QSKacg4VAW-45">
          <mxGeometry width="50" height="50" relative="1" as="geometry">
            <mxPoint x="1186" y="1680" as="sourcePoint" />
            <mxPoint x="1416" y="1725" as="targetPoint" />
          </mxGeometry>
        </mxCell>
      </root>
    </mxGraphModel>
  </diagram>
</mxfile>
